<ttFont>
    <TTGlyph name="A" xMin="-148" yMin="-184" xMax="793" yMax="840">
      <contour>
        <pt x="793" y="505" on="1"/>
        <pt x="793" y="501" on="0"/>
        <pt x="790" y="498" on="1"/>
        <pt x="769" y="475" on="0"/>
        <pt x="715" y="442" on="0"/>
        <pt x="653" y="421" on="0"/>
        <pt x="589" y="410" on="0"/>
        <pt x="559" y="409" on="1"/>
        <pt x="542" y="311" on="0"/>
        <pt x="506" y="111" on="0"/>
        <pt x="506" y="11" on="1"/>
        <pt x="506" y="-18" on="0"/>
        <pt x="513" y="-75" on="0"/>
        <pt x="536" y="-120" on="0"/>
        <pt x="579" y="-147" on="0"/>
        <pt x="615" y="-147" on="1"/>
        <pt x="621" y="-147" on="0"/>
        <pt x="632" y="-145" on="0"/>
        <pt x="638" y="-145" on="1"/>
        <pt x="645" y="-145" on="0"/>
        <pt x="653" y="-155" on="0"/>
        <pt x="653" y="-162" on="1"/>
        <pt x="653" y="-169" on="0"/>
        <pt x="638" y="-178" on="0"/>
        <pt x="619" y="-182" on="0"/>
        <pt x="599" y="-184" on="0"/>
        <pt x="594" y="-184" on="1"/>
        <pt x="551" y="-184" on="0"/>
        <pt x="496" y="-149" on="0"/>
        <pt x="464" y="-92" on="0"/>
        <pt x="451" y="-21" on="0"/>
        <pt x="451" y="14" on="1"/>
        <pt x="451" y="62" on="0"/>
        <pt x="462" y="162" on="0"/>
        <pt x="479" y="263" on="0"/>
        <pt x="499" y="363" on="0"/>
        <pt x="508" y="410" on="1"/>
        <pt x="487" y="411" on="0"/>
        <pt x="445" y="413" on="0"/>
        <pt x="424" y="413" on="1"/>
        <pt x="413" y="413" on="0"/>
        <pt x="393" y="413" on="0"/>
        <pt x="382" y="412" on="1"/>
        <pt x="365" y="385" on="0"/>
        <pt x="328" y="333" on="0"/>
        <pt x="309" y="307" on="1"/>
        <pt x="274" y="259" on="0"/>
        <pt x="194" y="164" on="0"/>
        <pt x="103" y="82" on="0"/>
        <pt x="-1" y="18" on="0"/>
        <pt x="-61" y="2" on="1"/>
        <pt x="-78" y="-3" on="0"/>
        <pt x="-117" y="-10" on="0"/>
        <pt x="-135" y="-10" on="1"/>
        <pt x="-141" y="-10" on="0"/>
        <pt x="-148" y="0" on="0"/>
        <pt x="-148" y="5" on="1"/>
        <pt x="-148" y="17" on="0"/>
        <pt x="-138" y="19" on="1"/>
        <pt x="-116" y="24" on="0"/>
        <pt x="-76" y="33" on="0"/>
        <pt x="-55" y="41" on="1"/>
        <pt x="-3" y="61" on="0"/>
        <pt x="87" y="126" on="0"/>
        <pt x="166" y="205" on="0"/>
        <pt x="236" y="293" on="0"/>
        <pt x="268" y="337" on="1"/>
        <pt x="280" y="354" on="0"/>
        <pt x="302" y="386" on="0"/>
        <pt x="313" y="403" on="1"/>
        <pt x="274" y="395" on="0"/>
        <pt x="216" y="366" on="0"/>
        <pt x="184" y="343" on="1"/>
        <pt x="182" y="341" on="0"/>
        <pt x="177" y="341" on="1"/>
        <pt x="172" y="341" on="0"/>
        <pt x="161" y="352" on="0"/>
        <pt x="161" y="357" on="1"/>
        <pt x="161" y="362" on="0"/>
        <pt x="164" y="365" on="1"/>
        <pt x="198" y="403" on="0"/>
        <pt x="297" y="446" on="0"/>
        <pt x="346" y="454" on="1"/>
        <pt x="366" y="485" on="0"/>
        <pt x="410" y="554" on="0"/>
        <pt x="457" y="623" on="0"/>
        <pt x="507" y="686" on="0"/>
        <pt x="534" y="711" on="1"/>
        <pt x="540" y="715" on="0"/>
        <pt x="543" y="715" on="1"/>
        <pt x="545" y="715" on="1"/>
        <pt x="544" y="730" on="0"/>
        <pt x="537" y="761" on="0"/>
        <pt x="522" y="786" on="0"/>
        <pt x="498" y="802" on="0"/>
        <pt x="480" y="802" on="1"/>
        <pt x="456" y="802" on="0"/>
        <pt x="405" y="784" on="0"/>
        <pt x="360" y="763" on="0"/>
        <pt x="328" y="746" on="0"/>
        <pt x="324" y="746" on="1"/>
        <pt x="318" y="746" on="0"/>
        <pt x="309" y="757" on="0"/>
        <pt x="309" y="762" on="1"/>
        <pt x="309" y="769" on="0"/>
        <pt x="316" y="774" on="1"/>
        <pt x="321" y="778" on="0"/>
        <pt x="335" y="785" on="0"/>
        <pt x="341" y="789" on="1"/>
        <pt x="374" y="808" on="0"/>
        <pt x="449" y="840" on="0"/>
        <pt x="489" y="840" on="1"/>
        <pt x="497" y="840" on="0"/>
        <pt x="515" y="835" on="0"/>
        <pt x="522" y="832" on="1"/>
        <pt x="542" y="823" on="0"/>
        <pt x="569" y="789" on="0"/>
        <pt x="584" y="748" on="0"/>
        <pt x="590" y="703" on="0"/>
        <pt x="590" y="683" on="1"/>
        <pt x="590" y="627" on="0"/>
        <pt x="578" y="518" on="0"/>
        <pt x="569" y="463" on="1"/>
        <pt x="611" y="468" on="0"/>
        <pt x="692" y="489" on="0"/>
        <pt x="731" y="505" on="1"/>
        <pt x="742" y="509" on="0"/>
        <pt x="762" y="518" on="0"/>
        <pt x="773" y="523" on="1"/>
        <pt x="776" y="523" on="1"/>
        <pt x="782" y="523" on="0"/>
        <pt x="793" y="512" on="0"/>
      </contour>
      <contour>
        <pt x="545" y="669" on="1"/>
        <pt x="532" y="647" on="0"/>
        <pt x="492" y="582" on="0"/>
        <pt x="453" y="519" on="0"/>
        <pt x="421" y="469" on="0"/>
        <pt x="416" y="462" on="1"/>
        <pt x="424" y="462" on="0"/>
        <pt x="441" y="463" on="0"/>
        <pt x="450" y="463" on="1"/>
        <pt x="465" y="463" on="0"/>
        <pt x="496" y="461" on="0"/>
        <pt x="511" y="461" on="1"/>
        <pt x="518" y="461" on="1"/>
        <pt x="528" y="513" on="0"/>
        <pt x="543" y="616" on="0"/>
      </contour>
    </TTGlyph>
    <TTGlyph name="AE" xMin="-148" yMin="-189" xMax="1240" yMax="835">
      <contour>
        <pt x="1240" y="795" on="1"/>
        <pt x="1240" y="790" on="0"/>
        <pt x="1236" y="786" on="1"/>
        <pt x="1204" y="754" on="0"/>
        <pt x="1111" y="715" on="0"/>
        <pt x="1067" y="707" on="1"/>
        <pt x="1022" y="699" on="0"/>
        <pt x="931" y="694" on="0"/>
        <pt x="886" y="692" on="1"/>
        <pt x="849" y="690" on="0"/>
        <pt x="770" y="685" on="0"/>
        <pt x="692" y="670" on="0"/>
        <pt x="619" y="643" on="0"/>
        <pt x="588" y="620" on="1"/>
        <pt x="584" y="551" on="0"/>
        <pt x="562" y="418" on="0"/>
        <pt x="550" y="352" on="1"/>
        <pt x="568" y="351" on="1"/>
        <pt x="659" y="350" on="0"/>
        <pt x="823" y="388" on="0"/>
        <pt x="904" y="428" on="1"/>
        <pt x="906" y="429" on="0"/>
        <pt x="909" y="429" on="1"/>
        <pt x="916" y="429" on="0"/>
        <pt x="924" y="418" on="0"/>
        <pt x="924" y="412" on="1"/>
        <pt x="924" y="405" on="0"/>
        <pt x="918" y="402" on="1"/>
        <pt x="906" y="393" on="0"/>
        <pt x="878" y="378" on="0"/>
        <pt x="864" y="372" on="1"/>
        <pt x="790" y="336" on="0"/>
        <pt x="630" y="302" on="0"/>
        <pt x="549" y="303" on="1"/>
        <pt x="541" y="303" on="1"/>
        <pt x="529" y="237" on="0"/>
        <pt x="510" y="105" on="0"/>
        <pt x="507" y="38" on="1"/>
        <pt x="518" y="39" on="1"/>
        <pt x="551" y="39" on="0"/>
        <pt x="615" y="29" on="0"/>
        <pt x="679" y="17" on="0"/>
        <pt x="743" y="7" on="0"/>
        <pt x="776" y="7" on="1"/>
        <pt x="807" y="7" on="0"/>
        <pt x="837" y="13" on="1"/>
        <pt x="886" y="23" on="0"/>
        <pt x="955" y="72" on="0"/>
        <pt x="990" y="106" on="1"/>
        <pt x="993" y="109" on="0"/>
        <pt x="998" y="109" on="1"/>
        <pt x="1003" y="109" on="0"/>
        <pt x="1015" y="99" on="0"/>
        <pt x="1015" y="93" on="1"/>
        <pt x="1015" y="89" on="0"/>
        <pt x="1012" y="86" on="1"/>
        <pt x="967" y="23" on="0"/>
        <pt x="840" y="-41" on="0"/>
        <pt x="763" y="-41" on="1"/>
        <pt x="732" y="-41" on="0"/>
        <pt x="672" y="-33" on="0"/>
        <pt x="612" y="-23" on="0"/>
        <pt x="551" y="-16" on="0"/>
        <pt x="521" y="-16" on="1"/>
        <pt x="507" y="-16" on="1"/>
        <pt x="508" y="-44" on="0"/>
        <pt x="518" y="-93" on="0"/>
        <pt x="542" y="-130" on="0"/>
        <pt x="583" y="-152" on="0"/>
        <pt x="615" y="-152" on="1"/>
        <pt x="621" y="-152" on="0"/>
        <pt x="632" y="-150" on="0"/>
        <pt x="637" y="-150" on="1"/>
        <pt x="645" y="-150" on="0"/>
        <pt x="653" y="-160" on="0"/>
        <pt x="653" y="-167" on="1"/>
        <pt x="653" y="-174" on="0"/>
        <pt x="638" y="-183" on="0"/>
        <pt x="619" y="-187" on="0"/>
        <pt x="599" y="-189" on="0"/>
        <pt x="594" y="-189" on="1"/>
        <pt x="557" y="-189" on="0"/>
        <pt x="505" y="-161" on="0"/>
        <pt x="471" y="-114" on="0"/>
        <pt x="454" y="-54" on="0"/>
        <pt x="452" y="-21" on="1"/>
        <pt x="435" y="-24" on="0"/>
        <pt x="407" y="-31" on="0"/>
        <pt x="381" y="-40" on="0"/>
        <pt x="355" y="-51" on="0"/>
        <pt x="339" y="-57" on="1"/>
        <pt x="338" y="-57" on="0"/>
        <pt x="338" y="-58" on="0"/>
        <pt x="337" y="-58" on="1"/>
        <pt x="336" y="-58" on="1"/>
        <pt x="329" y="-58" on="0"/>
        <pt x="318" y="-46" on="0"/>
        <pt x="318" y="-40" on="1"/>
        <pt x="318" y="-36" on="0"/>
        <pt x="322" y="-32" on="1"/>
        <pt x="346" y="-5" on="0"/>
        <pt x="416" y="27" on="0"/>
        <pt x="451" y="33" on="1"/>
        <pt x="453" y="102" on="0"/>
        <pt x="476" y="237" on="0"/>
        <pt x="489" y="304" on="1"/>
        <pt x="457" y="306" on="0"/>
        <pt x="392" y="314" on="0"/>
        <pt x="359" y="314" on="1"/>
        <pt x="348" y="314" on="0"/>
        <pt x="328" y="314" on="0"/>
        <pt x="317" y="313" on="1"/>
        <pt x="282" y="264" on="0"/>
        <pt x="200" y="166" on="0"/>
        <pt x="107" y="80" on="0"/>
        <pt x="0" y="14" on="0"/>
        <pt x="-60" y="-2" on="1"/>
        <pt x="-77" y="-7" on="0"/>
        <pt x="-117" y="-15" on="0"/>
        <pt x="-135" y="-15" on="1"/>
        <pt x="-141" y="-15" on="0"/>
        <pt x="-148" y="-5" on="0"/>
        <pt x="-148" y="0" on="1"/>
        <pt x="-148" y="12" on="0"/>
        <pt x="-138" y="15" on="1"/>
        <pt x="-118" y="20" on="0"/>
        <pt x="-81" y="27" on="0"/>
        <pt x="-61" y="34" on="1"/>
        <pt x="-13" y="52" on="0"/>
        <pt x="72" y="109" on="0"/>
        <pt x="147" y="181" on="0"/>
        <pt x="214" y="261" on="0"/>
        <pt x="244" y="301" on="1"/>
        <pt x="188" y="284" on="0"/>
        <pt x="103" y="222" on="0"/>
        <pt x="57" y="189" on="1"/>
        <pt x="54" y="186" on="0"/>
        <pt x="50" y="186" on="1"/>
        <pt x="44" y="186" on="0"/>
        <pt x="33" y="197" on="0"/>
        <pt x="33" y="203" on="1"/>
        <pt x="33" y="206" on="0"/>
        <pt x="35" y="210" on="1"/>
        <pt x="80" y="275" on="0"/>
        <pt x="212" y="357" on="0"/>
        <pt x="291" y="365" on="1"/>
        <pt x="320" y="408" on="0"/>
        <pt x="374" y="495" on="0"/>
        <pt x="402" y="538" on="1"/>
        <pt x="415" y="558" on="0"/>
        <pt x="447" y="604" on="0"/>
        <pt x="481" y="649" on="0"/>
        <pt x="517" y="691" on="0"/>
        <pt x="534" y="707" on="1"/>
        <pt x="538" y="710" on="0"/>
        <pt x="543" y="710" on="1"/>
        <pt x="545" y="710" on="1"/>
        <pt x="544" y="725" on="0"/>
        <pt x="537" y="756" on="0"/>
        <pt x="522" y="781" on="0"/>
        <pt x="498" y="797" on="0"/>
        <pt x="480" y="797" on="1"/>
        <pt x="456" y="797" on="0"/>
        <pt x="405" y="780" on="0"/>
        <pt x="360" y="759" on="0"/>
        <pt x="328" y="742" on="0"/>
        <pt x="324" y="742" on="1"/>
        <pt x="318" y="742" on="0"/>
        <pt x="309" y="752" on="0"/>
        <pt x="309" y="758" on="1"/>
        <pt x="309" y="764" on="0"/>
        <pt x="316" y="769" on="1"/>
        <pt x="323" y="774" on="0"/>
        <pt x="338" y="782" on="0"/>
        <pt x="346" y="787" on="1"/>
        <pt x="378" y="805" on="0"/>
        <pt x="451" y="835" on="0"/>
        <pt x="489" y="835" on="1"/>
        <pt x="505" y="835" on="0"/>
        <pt x="519" y="828" on="1"/>
        <pt x="540" y="820" on="0"/>
        <pt x="568" y="787" on="0"/>
        <pt x="584" y="745" on="0"/>
        <pt x="590" y="700" on="0"/>
        <pt x="590" y="680" on="1"/>
        <pt x="590" y="669" on="1"/>
        <pt x="621" y="690" on="0"/>
        <pt x="693" y="717" on="0"/>
        <pt x="769" y="734" on="0"/>
        <pt x="847" y="741" on="0"/>
        <pt x="884" y="743" on="1"/>
        <pt x="974" y="747" on="0"/>
        <pt x="1136" y="774" on="0"/>
        <pt x="1219" y="811" on="1"/>
        <pt x="1220" y="812" on="0"/>
        <pt x="1224" y="812" on="1"/>
        <pt x="1230" y="812" on="0"/>
        <pt x="1240" y="801" on="0"/>
      </contour>
      <contour>
        <pt x="545" y="663" on="1"/>
        <pt x="534" y="644" on="0"/>
        <pt x="500" y="589" on="0"/>
        <pt x="461" y="528" on="0"/>
        <pt x="420" y="466" on="0"/>
        <pt x="385" y="413" on="0"/>
        <pt x="360" y="374" on="0"/>
        <pt x="355" y="367" on="1"/>
        <pt x="391" y="366" on="0"/>
        <pt x="463" y="357" on="0"/>
        <pt x="499" y="354" on="1"/>
        <pt x="509" y="407" on="0"/>
        <pt x="528" y="511" on="0"/>
        <pt x="536" y="565" on="1"/>
        <pt x="533" y="560" on="0"/>
        <pt x="525" y="548" on="0"/>
        <pt x="518" y="548" on="1"/>
        <pt x="513" y="548" on="0"/>
        <pt x="501" y="556" on="0"/>
        <pt x="501" y="563" on="1"/>
        <pt x="501" y="567" on="0"/>
        <pt x="511" y="586" on="0"/>
        <pt x="525" y="606" on="0"/>
        <pt x="539" y="624" on="0"/>
        <pt x="543" y="628" on="1"/>
        <pt x="544" y="637" on="0"/>
        <pt x="545" y="654" on="0"/>
      </contour>
    </TTGlyph>
    <TTGlyph name="Aacute" xMin="-148" yMin="-184" xMax="793" yMax="926">
      <component glyphName="A" x="0" y="0" flags="0x204"/>
      <component glyphName="acute" x="92" y="215" flags="0x4"/>
    </TTGlyph>
    <TTGlyph name="Acircumflex" xMin="-148" yMin="-184" xMax="793" yMax="986">
      <component glyphName="A" x="0" y="0" flags="0x204"/>
      <component glyphName="circumflex" x="-9" y="276" flags="0x4"/>
    </TTGlyph>
    <TTGlyph name="Adieresis" xMin="-148" yMin="-184" xMax="793" yMax="910">
      <component glyphName="A" x="0" y="0" flags="0x204"/>
      <component glyphName="dieresis" x="41" y="225" flags="0x4"/>
    </TTGlyph>
    <TTGlyph name="Agrave" xMin="-148" yMin="-184" xMax="793" yMax="981">
      <component glyphName="A" x="0" y="0" flags="0x204"/>
      <component glyphName="grave" x="-40" y="266" flags="0x4"/>
    </TTGlyph>
    <TTGlyph name="Aring" xMin="-148" yMin="-184" xMax="793" yMax="858">
      <contour>
        <pt x="793" y="505" on="1"/>
        <pt x="793" y="501" on="0"/>
        <pt x="790" y="498" on="1"/>
        <pt x="769" y="475" on="0"/>
        <pt x="715" y="442" on="0"/>
        <pt x="653" y="421" on="0"/>
        <pt x="589" y="410" on="0"/>
        <pt x="559" y="409" on="1"/>
        <pt x="542" y="311" on="0"/>
        <pt x="506" y="111" on="0"/>
        <pt x="506" y="11" on="1"/>
        <pt x="506" y="-18" on="0"/>
        <pt x="513" y="-75" on="0"/>
        <pt x="536" y="-120" on="0"/>
        <pt x="579" y="-147" on="0"/>
        <pt x="615" y="-147" on="1"/>
        <pt x="621" y="-147" on="0"/>
        <pt x="632" y="-145" on="0"/>
        <pt x="638" y="-145" on="1"/>
        <pt x="645" y="-145" on="0"/>
        <pt x="653" y="-155" on="0"/>
        <pt x="653" y="-162" on="1"/>
        <pt x="653" y="-169" on="0"/>
        <pt x="638" y="-178" on="0"/>
        <pt x="619" y="-182" on="0"/>
        <pt x="599" y="-184" on="0"/>
        <pt x="594" y="-184" on="1"/>
        <pt x="551" y="-184" on="0"/>
        <pt x="496" y="-149" on="0"/>
        <pt x="464" y="-92" on="0"/>
        <pt x="451" y="-21" on="0"/>
        <pt x="451" y="14" on="1"/>
        <pt x="451" y="62" on="0"/>
        <pt x="462" y="162" on="0"/>
        <pt x="479" y="263" on="0"/>
        <pt x="499" y="363" on="0"/>
        <pt x="508" y="410" on="1"/>
        <pt x="487" y="411" on="0"/>
        <pt x="445" y="413" on="0"/>
        <pt x="424" y="413" on="1"/>
        <pt x="413" y="413" on="0"/>
        <pt x="393" y="413" on="0"/>
        <pt x="382" y="412" on="1"/>
        <pt x="365" y="385" on="0"/>
        <pt x="328" y="333" on="0"/>
        <pt x="309" y="307" on="1"/>
        <pt x="274" y="259" on="0"/>
        <pt x="194" y="164" on="0"/>
        <pt x="103" y="82" on="0"/>
        <pt x="-1" y="18" on="0"/>
        <pt x="-61" y="2" on="1"/>
        <pt x="-78" y="-3" on="0"/>
        <pt x="-117" y="-10" on="0"/>
        <pt x="-135" y="-10" on="1"/>
        <pt x="-141" y="-10" on="0"/>
        <pt x="-148" y="0" on="0"/>
        <pt x="-148" y="5" on="1"/>
        <pt x="-148" y="17" on="0"/>
        <pt x="-138" y="19" on="1"/>
        <pt x="-116" y="24" on="0"/>
        <pt x="-76" y="33" on="0"/>
        <pt x="-55" y="41" on="1"/>
        <pt x="-3" y="61" on="0"/>
        <pt x="87" y="126" on="0"/>
        <pt x="166" y="205" on="0"/>
        <pt x="236" y="293" on="0"/>
        <pt x="268" y="337" on="1"/>
        <pt x="280" y="354" on="0"/>
        <pt x="302" y="386" on="0"/>
        <pt x="313" y="403" on="1"/>
        <pt x="274" y="395" on="0"/>
        <pt x="216" y="366" on="0"/>
        <pt x="184" y="343" on="1"/>
        <pt x="182" y="341" on="0"/>
        <pt x="177" y="341" on="1"/>
        <pt x="172" y="341" on="0"/>
        <pt x="161" y="352" on="0"/>
        <pt x="161" y="357" on="1"/>
        <pt x="161" y="362" on="0"/>
        <pt x="164" y="365" on="1"/>
        <pt x="198" y="403" on="0"/>
        <pt x="297" y="446" on="0"/>
        <pt x="346" y="454" on="1"/>
        <pt x="364" y="483" on="0"/>
        <pt x="405" y="547" on="0"/>
        <pt x="448" y="611" on="0"/>
        <pt x="495" y="671" on="0"/>
        <pt x="520" y="697" on="1"/>
        <pt x="506" y="705" on="0"/>
        <pt x="490" y="732" on="0"/>
        <pt x="491" y="749" on="1"/>
        <pt x="491" y="754" on="1"/>
        <pt x="492" y="783" on="0"/>
        <pt x="522" y="828" on="0"/>
        <pt x="546" y="842" on="1"/>
        <pt x="548" y="844" on="0"/>
        <pt x="562" y="850" on="0"/>
        <pt x="564" y="851" on="1"/>
        <pt x="569" y="855" on="0"/>
        <pt x="585" y="858" on="0"/>
        <pt x="590" y="858" on="1"/>
        <pt x="603" y="858" on="0"/>
        <pt x="628" y="846" on="0"/>
        <pt x="646" y="827" on="0"/>
        <pt x="657" y="802" on="0"/>
        <pt x="657" y="789" on="1"/>
        <pt x="657" y="757" on="0"/>
        <pt x="630" y="706" on="0"/>
        <pt x="601" y="692" on="1"/>
        <pt x="598" y="690" on="0"/>
        <pt x="593" y="688" on="0"/>
        <pt x="590" y="687" on="1"/>
        <pt x="590" y="683" on="1"/>
        <pt x="591" y="627" on="0"/>
        <pt x="578" y="518" on="0"/>
        <pt x="569" y="463" on="1"/>
        <pt x="611" y="468" on="0"/>
        <pt x="692" y="489" on="0"/>
        <pt x="731" y="505" on="1"/>
        <pt x="742" y="509" on="0"/>
        <pt x="762" y="518" on="0"/>
        <pt x="773" y="523" on="1"/>
        <pt x="776" y="523" on="1"/>
        <pt x="782" y="523" on="0"/>
        <pt x="793" y="512" on="0"/>
      </contour>
      <contour>
        <pt x="602" y="783" on="1"/>
        <pt x="602" y="800" on="0"/>
        <pt x="587" y="816" on="0"/>
        <pt x="573" y="821" on="1"/>
        <pt x="558" y="810" on="0"/>
        <pt x="535" y="780" on="0"/>
        <pt x="535" y="760" on="1"/>
        <pt x="535" y="734" on="0"/>
        <pt x="561" y="734" on="1"/>
        <pt x="581" y="734" on="0"/>
        <pt x="602" y="766" on="0"/>
      </contour>
      <contour>
        <pt x="545" y="669" on="1"/>
        <pt x="532" y="647" on="0"/>
        <pt x="492" y="582" on="0"/>
        <pt x="453" y="519" on="0"/>
        <pt x="421" y="469" on="0"/>
        <pt x="416" y="462" on="1"/>
        <pt x="424" y="462" on="0"/>
        <pt x="441" y="463" on="0"/>
        <pt x="450" y="463" on="1"/>
        <pt x="465" y="463" on="0"/>
        <pt x="496" y="461" on="0"/>
        <pt x="511" y="461" on="1"/>
        <pt x="518" y="461" on="1"/>
        <pt x="528" y="513" on="0"/>
        <pt x="543" y="616" on="0"/>
      </contour>
    </TTGlyph>
    <TTGlyph name="Atilde" xMin="-148" yMin="-184" xMax="793" yMax="961">
      <component glyphName="A" x="0" y="0" flags="0x204"/>
      <component glyphName="tilde" x="51" y="256" flags="0x4"/>
    </TTGlyph>
    <TTGlyph name="B" xMin="-10" yMin="-32" xMax="816" yMax="765">
      <contour>
        <pt x="816" y="673" on="1"/>
        <pt x="816" y="637" on="0"/>
        <pt x="799" y="606" on="1"/>
        <pt x="761" y="538" on="0"/>
        <pt x="644" y="437" on="0"/>
        <pt x="575" y="403" on="1"/>
        <pt x="640" y="392" on="0"/>
        <pt x="716" y="302" on="0"/>
        <pt x="716" y="236" on="1"/>
        <pt x="716" y="182" on="0"/>
        <pt x="672" y="85" on="0"/>
        <pt x="597" y="11" on="0"/>
        <pt x="499" y="-32" on="0"/>
        <pt x="445" y="-32" on="1"/>
        <pt x="391" y="-32" on="0"/>
        <pt x="293" y="3" on="0"/>
        <pt x="248" y="32" on="1"/>
        <pt x="240" y="37" on="0"/>
        <pt x="224" y="48" on="0"/>
        <pt x="216" y="54" on="1"/>
        <pt x="211" y="57" on="0"/>
        <pt x="211" y="63" on="1"/>
        <pt x="211" y="65" on="0"/>
        <pt x="213" y="69" on="1"/>
        <pt x="171" y="25" on="0"/>
        <pt x="63" y="-30" on="0"/>
        <pt x="3" y="-30" on="1"/>
        <pt x="-3" y="-30" on="0"/>
        <pt x="-10" y="-20" on="0"/>
        <pt x="-10" y="-15" on="1"/>
        <pt x="-10" y="-3" on="0"/>
        <pt x="1" y="-1" on="1"/>
        <pt x="21" y="4" on="0"/>
        <pt x="58" y="11" on="0"/>
        <pt x="78" y="20" on="1"/>
        <pt x="125" y="41" on="0"/>
        <pt x="197" y="115" on="0"/>
        <pt x="253" y="205" on="0"/>
        <pt x="294" y="304" on="0"/>
        <pt x="311" y="349" on="1"/>
        <pt x="326" y="389" on="0"/>
        <pt x="352" y="470" on="0"/>
        <pt x="379" y="551" on="0"/>
        <pt x="410" y="630" on="0"/>
        <pt x="430" y="668" on="1"/>
        <pt x="402" y="651" on="0"/>
        <pt x="344" y="625" on="0"/>
        <pt x="317" y="608" on="1"/>
        <pt x="275" y="582" on="0"/>
        <pt x="193" y="513" on="0"/>
        <pt x="175" y="466" on="1"/>
        <pt x="171" y="456" on="0"/>
        <pt x="167" y="438" on="0"/>
        <pt x="165" y="429" on="1"/>
        <pt x="162" y="420" on="0"/>
        <pt x="152" y="420" on="1"/>
        <pt x="148" y="420" on="0"/>
        <pt x="135" y="427" on="0"/>
        <pt x="135" y="431" on="1"/>
        <pt x="135" y="472" on="0"/>
        <pt x="169" y="544" on="0"/>
        <pt x="225" y="606" on="0"/>
        <pt x="298" y="658" on="0"/>
        <pt x="376" y="702" on="0"/>
        <pt x="454" y="737" on="0"/>
        <pt x="486" y="751" on="1"/>
        <pt x="488" y="752" on="0"/>
        <pt x="491" y="754" on="0"/>
        <pt x="493" y="754" on="1"/>
        <pt x="499" y="754" on="0"/>
        <pt x="511" y="745" on="0"/>
        <pt x="511" y="738" on="1"/>
        <pt x="511" y="737" on="0"/>
        <pt x="501" y="711" on="0"/>
        <pt x="487" y="680" on="0"/>
        <pt x="475" y="652" on="0"/>
        <pt x="474" y="648" on="1"/>
        <pt x="496" y="668" on="0"/>
        <pt x="553" y="709" on="0"/>
        <pt x="616" y="743" on="0"/>
        <pt x="681" y="765" on="0"/>
        <pt x="712" y="765" on="1"/>
        <pt x="756" y="765" on="0"/>
        <pt x="816" y="718" on="0"/>
      </contour>
      <contour>
        <pt x="766" y="673" on="1"/>
        <pt x="766" y="699" on="0"/>
        <pt x="731" y="717" on="0"/>
        <pt x="708" y="717" on="1"/>
        <pt x="675" y="717" on="0"/>
        <pt x="604" y="691" on="0"/>
        <pt x="536" y="651" on="0"/>
        <pt x="474" y="604" on="0"/>
        <pt x="450" y="583" on="1"/>
        <pt x="427" y="520" on="0"/>
        <pt x="383" y="394" on="0"/>
        <pt x="359" y="331" on="1"/>
        <pt x="335" y="269" on="0"/>
        <pt x="277" y="150" on="0"/>
        <pt x="236" y="97" on="1"/>
        <pt x="230" y="88" on="0"/>
        <pt x="221" y="79" on="1"/>
        <pt x="223" y="80" on="0"/>
        <pt x="227" y="80" on="1"/>
        <pt x="229" y="80" on="0"/>
        <pt x="233" y="78" on="1"/>
        <pt x="280" y="51" on="0"/>
        <pt x="377" y="11" on="0"/>
        <pt x="432" y="11" on="1"/>
        <pt x="476" y="11" on="0"/>
        <pt x="559" y="45" on="0"/>
        <pt x="623" y="105" on="0"/>
        <pt x="662" y="184" on="0"/>
        <pt x="662" y="229" on="1"/>
        <pt x="662" y="270" on="0"/>
        <pt x="631" y="321" on="0"/>
        <pt x="580" y="351" on="0"/>
        <pt x="515" y="363" on="0"/>
        <pt x="481" y="364" on="1"/>
        <pt x="479" y="363" on="0"/>
        <pt x="471" y="360" on="0"/>
        <pt x="461" y="357" on="0"/>
        <pt x="453" y="355" on="0"/>
        <pt x="452" y="355" on="1"/>
        <pt x="444" y="355" on="0"/>
        <pt x="436" y="366" on="0"/>
        <pt x="436" y="373" on="1"/>
        <pt x="436" y="382" on="0"/>
        <pt x="446" y="386" on="1"/>
        <pt x="449" y="394" on="0"/>
        <pt x="459" y="395" on="0"/>
        <pt x="464" y="397" on="1"/>
        <pt x="474" y="401" on="0"/>
        <pt x="501" y="419" on="0"/>
        <pt x="511" y="424" on="1"/>
        <pt x="540" y="441" on="0"/>
        <pt x="599" y="478" on="0"/>
        <pt x="628" y="498" on="1"/>
        <pt x="646" y="511" on="0"/>
        <pt x="693" y="551" on="0"/>
        <pt x="736" y="599" on="0"/>
        <pt x="766" y="650" on="0"/>
      </contour>
    </TTGlyph>
    <TTGlyph name="C" xMin="88" yMin="-26" xMax="664" yMax="754">
      <contour>
        <pt x="663" y="728" on="1"/>
        <pt x="662" y="722" on="0"/>
        <pt x="653" y="712" on="0"/>
        <pt x="646" y="712" on="1"/>
        <pt x="637" y="712" on="0"/>
        <pt x="619" y="714" on="0"/>
        <pt x="609" y="714" on="1"/>
        <pt x="535" y="714" on="0"/>
        <pt x="393" y="658" on="0"/>
        <pt x="274" y="562" on="0"/>
        <pt x="186" y="434" on="0"/>
        <pt x="165" y="362" on="1"/>
        <pt x="158" y="339" on="0"/>
        <pt x="149" y="291" on="0"/>
        <pt x="146" y="268" on="1"/>
        <pt x="142" y="241" on="0"/>
        <pt x="140" y="185" on="0"/>
        <pt x="148" y="131" on="0"/>
        <pt x="165" y="81" on="0"/>
        <pt x="181" y="60" on="1"/>
        <pt x="187" y="52" on="0"/>
        <pt x="201" y="37" on="0"/>
        <pt x="209" y="32" on="1"/>
        <pt x="224" y="23" on="0"/>
        <pt x="270" y="15" on="0"/>
        <pt x="289" y="15" on="1"/>
        <pt x="343" y="15" on="0"/>
        <pt x="451" y="61" on="0"/>
        <pt x="491" y="102" on="1"/>
        <pt x="502" y="113" on="0"/>
        <pt x="518" y="134" on="0"/>
        <pt x="527" y="146" on="1"/>
        <pt x="532" y="153" on="0"/>
        <pt x="540" y="153" on="1"/>
        <pt x="546" y="153" on="0"/>
        <pt x="555" y="145" on="0"/>
        <pt x="554" y="138" on="1"/>
        <pt x="554" y="137" on="0"/>
        <pt x="552" y="133" on="1"/>
        <pt x="531" y="97" on="0"/>
        <pt x="469" y="38" on="0"/>
        <pt x="397" y="-3" on="0"/>
        <pt x="318" y="-26" on="0"/>
        <pt x="278" y="-26" on="1"/>
        <pt x="267" y="-26" on="0"/>
        <pt x="241" y="-24" on="0"/>
        <pt x="215" y="-19" on="0"/>
        <pt x="191" y="-12" on="0"/>
        <pt x="182" y="-7" on="1"/>
        <pt x="174" y="-2" on="0"/>
        <pt x="158" y="14" on="0"/>
        <pt x="151" y="21" on="1"/>
        <pt x="106" y="71" on="0"/>
        <pt x="88" y="204" on="0"/>
        <pt x="97" y="273" on="1"/>
        <pt x="100" y="297" on="0"/>
        <pt x="110" y="345" on="0"/>
        <pt x="116" y="369" on="1"/>
        <pt x="135" y="443" on="0"/>
        <pt x="223" y="582" on="0"/>
        <pt x="346" y="689" on="0"/>
        <pt x="493" y="754" on="0"/>
        <pt x="570" y="754" on="1"/>
        <pt x="588" y="754" on="0"/>
        <pt x="638" y="749" on="0"/>
        <pt x="654" y="743" on="1"/>
        <pt x="664" y="739" on="0"/>
      </contour>
    </TTGlyph>
    <TTGlyph name="Ccedilla" xMin="88" yMin="-289" xMax="664" yMax="754">
      <contour>
        <pt x="663" y="728" on="1"/>
        <pt x="662" y="722" on="0"/>
        <pt x="653" y="712" on="0"/>
        <pt x="646" y="712" on="1"/>
        <pt x="637" y="712" on="0"/>
        <pt x="619" y="714" on="0"/>
        <pt x="609" y="714" on="1"/>
        <pt x="535" y="714" on="0"/>
        <pt x="393" y="658" on="0"/>
        <pt x="274" y="562" on="0"/>
        <pt x="186" y="434" on="0"/>
        <pt x="165" y="362" on="1"/>
        <pt x="158" y="339" on="0"/>
        <pt x="149" y="291" on="0"/>
        <pt x="146" y="268" on="1"/>
        <pt x="142" y="241" on="0"/>
        <pt x="140" y="185" on="0"/>
        <pt x="148" y="131" on="0"/>
        <pt x="165" y="81" on="0"/>
        <pt x="181" y="60" on="1"/>
        <pt x="187" y="52" on="0"/>
        <pt x="201" y="37" on="0"/>
        <pt x="209" y="32" on="1"/>
        <pt x="224" y="23" on="0"/>
        <pt x="270" y="15" on="0"/>
        <pt x="289" y="15" on="1"/>
        <pt x="343" y="15" on="0"/>
        <pt x="451" y="61" on="0"/>
        <pt x="491" y="102" on="1"/>
        <pt x="502" y="113" on="0"/>
        <pt x="518" y="134" on="0"/>
        <pt x="527" y="146" on="1"/>
        <pt x="532" y="153" on="0"/>
        <pt x="540" y="153" on="1"/>
        <pt x="546" y="153" on="0"/>
        <pt x="555" y="145" on="0"/>
        <pt x="554" y="138" on="1"/>
        <pt x="554" y="137" on="0"/>
        <pt x="552" y="133" on="1"/>
        <pt x="531" y="98" on="0"/>
        <pt x="472" y="41" on="0"/>
        <pt x="403" y="-1" on="0"/>
        <pt x="327" y="-25" on="0"/>
        <pt x="288" y="-26" on="1"/>
        <pt x="287" y="-38" on="0"/>
        <pt x="284" y="-62" on="0"/>
        <pt x="282" y="-73" on="1"/>
        <pt x="303" y="-75" on="0"/>
        <pt x="346" y="-93" on="0"/>
        <pt x="379" y="-123" on="0"/>
        <pt x="396" y="-164" on="0"/>
        <pt x="390" y="-188" on="1"/>
        <pt x="386" y="-206" on="0"/>
        <pt x="363" y="-236" on="0"/>
        <pt x="332" y="-259" on="0"/>
        <pt x="297" y="-276" on="0"/>
        <pt x="280" y="-281" on="1"/>
        <pt x="279" y="-281" on="0"/>
        <pt x="269" y="-284" on="0"/>
        <pt x="259" y="-287" on="0"/>
        <pt x="255" y="-288" on="1"/>
        <pt x="250" y="-289" on="1"/>
        <pt x="245" y="-289" on="0"/>
        <pt x="238" y="-276" on="0"/>
        <pt x="239" y="-271" on="1"/>
        <pt x="241" y="-264" on="0"/>
        <pt x="248" y="-261" on="1"/>
        <pt x="258" y="-257" on="0"/>
        <pt x="287" y="-243" on="0"/>
        <pt x="316" y="-226" on="0"/>
        <pt x="339" y="-204" on="0"/>
        <pt x="342" y="-192" on="1"/>
        <pt x="346" y="-177" on="0"/>
        <pt x="327" y="-151" on="0"/>
        <pt x="316" y="-143" on="1"/>
        <pt x="302" y="-133" on="0"/>
        <pt x="266" y="-127" on="0"/>
        <pt x="247" y="-129" on="1"/>
        <pt x="242" y="-127" on="0"/>
        <pt x="225" y="-111" on="0"/>
        <pt x="220" y="-107" on="1"/>
        <pt x="221" y="-101" on="1"/>
        <pt x="225" y="-86" on="0"/>
        <pt x="239" y="-43" on="0"/>
        <pt x="249" y="-25" on="1"/>
        <pt x="231" y="-23" on="0"/>
        <pt x="194" y="-14" on="0"/>
        <pt x="182" y="-7" on="1"/>
        <pt x="174" y="-2" on="0"/>
        <pt x="158" y="14" on="0"/>
        <pt x="151" y="21" on="1"/>
        <pt x="106" y="71" on="0"/>
        <pt x="88" y="204" on="0"/>
        <pt x="97" y="273" on="1"/>
        <pt x="100" y="297" on="0"/>
        <pt x="110" y="345" on="0"/>
        <pt x="116" y="369" on="1"/>
        <pt x="135" y="443" on="0"/>
        <pt x="223" y="582" on="0"/>
        <pt x="346" y="689" on="0"/>
        <pt x="493" y="754" on="0"/>
        <pt x="570" y="754" on="1"/>
        <pt x="588" y="754" on="0"/>
        <pt x="638" y="749" on="0"/>
        <pt x="654" y="743" on="1"/>
        <pt x="664" y="739" on="0"/>
      </contour>
    </TTGlyph>
    <TTGlyph name="D" xMin="-10" yMin="-24" xMax="889" yMax="763">
      <contour>
        <pt x="889" y="511" on="1"/>
        <pt x="889" y="453" on="0"/>
        <pt x="854" y="330" on="0"/>
        <pt x="791" y="212" on="0"/>
        <pt x="705" y="106" on="0"/>
        <pt x="601" y="26" on="0"/>
        <pt x="483" y="-21" on="0"/>
        <pt x="421" y="-21" on="1"/>
        <pt x="360" y="-21" on="0"/>
        <pt x="252" y="30" on="0"/>
        <pt x="208" y="71" on="1"/>
        <pt x="168" y="29" on="0"/>
        <pt x="61" y="-24" on="0"/>
        <pt x="3" y="-24" on="1"/>
        <pt x="-3" y="-24" on="0"/>
        <pt x="-10" y="-14" on="0"/>
        <pt x="-10" y="-9" on="1"/>
        <pt x="-10" y="3" on="0"/>
        <pt x="1" y="6" on="1"/>
        <pt x="21" y="10" on="0"/>
        <pt x="58" y="17" on="0"/>
        <pt x="78" y="26" on="1"/>
        <pt x="124" y="47" on="0"/>
        <pt x="195" y="121" on="0"/>
        <pt x="250" y="211" on="0"/>
        <pt x="290" y="310" on="0"/>
        <pt x="307" y="355" on="1"/>
        <pt x="322" y="395" on="0"/>
        <pt x="346" y="476" on="0"/>
        <pt x="372" y="557" on="0"/>
        <pt x="402" y="636" on="0"/>
        <pt x="422" y="674" on="1"/>
        <pt x="394" y="658" on="0"/>
        <pt x="336" y="631" on="0"/>
        <pt x="309" y="614" on="1"/>
        <pt x="269" y="589" on="0"/>
        <pt x="191" y="524" on="0"/>
        <pt x="171" y="479" on="1"/>
        <pt x="166" y="468" on="0"/>
        <pt x="162" y="446" on="0"/>
        <pt x="159" y="435" on="1"/>
        <pt x="158" y="431" on="0"/>
        <pt x="150" y="426" on="0"/>
        <pt x="146" y="426" on="1"/>
        <pt x="137" y="426" on="0"/>
        <pt x="130" y="436" on="0"/>
        <pt x="130" y="444" on="1"/>
        <pt x="130" y="484" on="0"/>
        <pt x="164" y="554" on="0"/>
        <pt x="221" y="614" on="0"/>
        <pt x="293" y="666" on="0"/>
        <pt x="370" y="709" on="0"/>
        <pt x="445" y="744" on="0"/>
        <pt x="476" y="757" on="1"/>
        <pt x="478" y="758" on="0"/>
        <pt x="481" y="760" on="0"/>
        <pt x="484" y="760" on="1"/>
        <pt x="490" y="760" on="0"/>
        <pt x="501" y="751" on="0"/>
        <pt x="501" y="744" on="1"/>
        <pt x="501" y="743" on="0"/>
        <pt x="492" y="721" on="0"/>
        <pt x="482" y="694" on="0"/>
        <pt x="471" y="669" on="0"/>
        <pt x="470" y="665" on="1"/>
        <pt x="511" y="709" on="0"/>
        <pt x="611" y="763" on="0"/>
        <pt x="672" y="763" on="1"/>
        <pt x="692" y="763" on="1"/>
        <pt x="718" y="759" on="0"/>
        <pt x="768" y="737" on="0"/>
        <pt x="812" y="704" on="0"/>
        <pt x="848" y="663" on="0"/>
        <pt x="860" y="640" on="1"/>
        <pt x="875" y="610" on="0"/>
        <pt x="889" y="544" on="0"/>
      </contour>
      <contour>
        <pt x="837" y="501" on="1"/>
        <pt x="837" y="539" on="0"/>
        <pt x="814" y="614" on="0"/>
        <pt x="770" y="673" on="0"/>
        <pt x="706" y="709" on="0"/>
        <pt x="664" y="709" on="1"/>
        <pt x="634" y="709" on="0"/>
        <pt x="578" y="688" on="0"/>
        <pt x="528" y="655" on="0"/>
        <pt x="484" y="614" on="0"/>
        <pt x="466" y="593" on="1"/>
        <pt x="458" y="583" on="0"/>
        <pt x="433" y="557" on="0"/>
        <pt x="427" y="546" on="1"/>
        <pt x="425" y="541" on="0"/>
        <pt x="419" y="524" on="0"/>
        <pt x="413" y="505" on="0"/>
        <pt x="407" y="487" on="0"/>
        <pt x="405" y="481" on="1"/>
        <pt x="393" y="445" on="0"/>
        <pt x="368" y="373" on="0"/>
        <pt x="355" y="337" on="1"/>
        <pt x="330" y="271" on="0"/>
        <pt x="271" y="149" on="0"/>
        <pt x="228" y="94" on="1"/>
        <pt x="266" y="61" on="0"/>
        <pt x="360" y="18" on="0"/>
        <pt x="411" y="18" on="1"/>
        <pt x="464" y="18" on="0"/>
        <pt x="562" y="55" on="0"/>
        <pt x="650" y="119" on="0"/>
        <pt x="724" y="204" on="0"/>
        <pt x="782" y="300" on="0"/>
        <pt x="822" y="400" on="0"/>
        <pt x="832" y="448" on="1"/>
        <pt x="834" y="462" on="0"/>
        <pt x="837" y="487" on="0"/>
      </contour>
    </TTGlyph>
    <TTGlyph name="E" xMin="-5" yMin="-47" xMax="926" yMax="841">
      <contour>
        <pt x="926" y="824" on="1"/>
        <pt x="926" y="818" on="0"/>
        <pt x="923" y="815" on="1"/>
        <pt x="891" y="783" on="0"/>
        <pt x="798" y="744" on="0"/>
        <pt x="754" y="736" on="1"/>
        <pt x="711" y="728" on="0"/>
        <pt x="625" y="722" on="0"/>
        <pt x="539" y="719" on="0"/>
        <pt x="453" y="714" on="0"/>
        <pt x="411" y="705" on="1"/>
        <pt x="406" y="624" on="0"/>
        <pt x="365" y="468" on="0"/>
        <pt x="339" y="392" on="1"/>
        <pt x="367" y="392" on="0"/>
        <pt x="422" y="384" on="0"/>
        <pt x="450" y="384" on="1"/>
        <pt x="475" y="384" on="0"/>
        <pt x="524" y="389" on="0"/>
        <pt x="548" y="395" on="1"/>
        <pt x="551" y="396" on="0"/>
        <pt x="564" y="400" on="0"/>
        <pt x="577" y="404" on="0"/>
        <pt x="588" y="408" on="0"/>
        <pt x="589" y="408" on="1"/>
        <pt x="594" y="408" on="0"/>
        <pt x="606" y="394" on="0"/>
        <pt x="606" y="390" on="1"/>
        <pt x="606" y="384" on="0"/>
        <pt x="601" y="381" on="1"/>
        <pt x="563" y="357" on="0"/>
        <pt x="467" y="335" on="0"/>
        <pt x="423" y="335" on="1"/>
        <pt x="406" y="335" on="0"/>
        <pt x="374" y="339" on="0"/>
        <pt x="357" y="339" on="1"/>
        <pt x="336" y="339" on="0"/>
        <pt x="319" y="335" on="1"/>
        <pt x="293" y="261" on="0"/>
        <pt x="229" y="119" on="0"/>
        <pt x="193" y="49" on="1"/>
        <pt x="226" y="49" on="0"/>
        <pt x="291" y="39" on="0"/>
        <pt x="355" y="28" on="0"/>
        <pt x="420" y="18" on="0"/>
        <pt x="453" y="18" on="1"/>
        <pt x="468" y="18" on="0"/>
        <pt x="498" y="20" on="0"/>
        <pt x="513" y="23" on="1"/>
        <pt x="562" y="33" on="0"/>
        <pt x="631" y="83" on="0"/>
        <pt x="666" y="116" on="1"/>
        <pt x="670" y="120" on="0"/>
        <pt x="674" y="120" on="1"/>
        <pt x="680" y="120" on="0"/>
        <pt x="691" y="109" on="0"/>
        <pt x="691" y="104" on="1"/>
        <pt x="691" y="101" on="0"/>
        <pt x="689" y="97" on="1"/>
        <pt x="644" y="34" on="0"/>
        <pt x="516" y="-30" on="0"/>
        <pt x="439" y="-30" on="1"/>
        <pt x="408" y="-30" on="0"/>
        <pt x="348" y="-23" on="0"/>
        <pt x="288" y="-14" on="0"/>
        <pt x="228" y="-6" on="0"/>
        <pt x="197" y="-6" on="1"/>
        <pt x="189" y="-6" on="0"/>
        <pt x="171" y="-6" on="0"/>
        <pt x="163" y="-7" on="1"/>
        <pt x="160" y="-13" on="0"/>
        <pt x="151" y="-31" on="0"/>
        <pt x="143" y="-31" on="1"/>
        <pt x="136" y="-31" on="0"/>
        <pt x="125" y="-23" on="0"/>
        <pt x="125" y="-16" on="1"/>
        <pt x="125" y="-13" on="0"/>
        <pt x="127" y="-11" on="1"/>
        <pt x="110" y="-14" on="0"/>
        <pt x="82" y="-21" on="0"/>
        <pt x="57" y="-30" on="0"/>
        <pt x="31" y="-41" on="0"/>
        <pt x="15" y="-47" on="1"/>
        <pt x="12" y="-47" on="1"/>
        <pt x="5" y="-47" on="0"/>
        <pt x="-5" y="-36" on="0"/>
        <pt x="-5" y="-29" on="1"/>
        <pt x="-5" y="-24" on="0"/>
        <pt x="-2" y="-21" on="1"/>
        <pt x="27" y="11" on="0"/>
        <pt x="110" y="42" on="0"/>
        <pt x="152" y="47" on="1"/>
        <pt x="181" y="114" on="0"/>
        <pt x="235" y="249" on="0"/>
        <pt x="260" y="318" on="1"/>
        <pt x="258" y="317" on="0"/>
        <pt x="244" y="311" on="0"/>
        <pt x="230" y="304" on="0"/>
        <pt x="218" y="299" on="0"/>
        <pt x="217" y="299" on="1"/>
        <pt x="210" y="299" on="0"/>
        <pt x="198" y="312" on="0"/>
        <pt x="198" y="318" on="1"/>
        <pt x="198" y="320" on="1"/>
        <pt x="198" y="321" on="0"/>
        <pt x="199" y="321" on="1"/>
        <pt x="211" y="344" on="0"/>
        <pt x="258" y="375" on="0"/>
        <pt x="282" y="383" on="1"/>
        <pt x="308" y="461" on="0"/>
        <pt x="346" y="619" on="0"/>
        <pt x="373" y="696" on="1"/>
        <pt x="335" y="685" on="0"/>
        <pt x="266" y="646" on="0"/>
        <pt x="240" y="616" on="1"/>
        <pt x="232" y="608" on="0"/>
        <pt x="222" y="590" on="0"/>
        <pt x="215" y="582" on="1"/>
        <pt x="212" y="577" on="0"/>
        <pt x="205" y="577" on="1"/>
        <pt x="200" y="577" on="0"/>
        <pt x="188" y="585" on="0"/>
        <pt x="188" y="592" on="1"/>
        <pt x="188" y="595" on="0"/>
        <pt x="189" y="596" on="1"/>
        <pt x="216" y="650" on="0"/>
        <pt x="301" y="717" on="0"/>
        <pt x="403" y="754" on="0"/>
        <pt x="516" y="769" on="0"/>
        <pt x="570" y="772" on="1"/>
        <pt x="660" y="776" on="0"/>
        <pt x="822" y="803" on="0"/>
        <pt x="905" y="840" on="1"/>
        <pt x="907" y="841" on="0"/>
        <pt x="910" y="841" on="1"/>
        <pt x="917" y="841" on="0"/>
        <pt x="926" y="830" on="0"/>
      </contour>
    </TTGlyph>
    <TTGlyph name="Eacute" xMin="-5" yMin="-47" xMax="926" yMax="947">
      <component glyphName="E" x="0" y="0" flags="0x204"/>
      <component glyphName="acute" x="0" y="236" flags="0x4"/>
    </TTGlyph>
    <TTGlyph name="Ecircumflex" xMin="-5" yMin="-47" xMax="926" yMax="966">
      <component glyphName="E" x="0" y="0" flags="0x204"/>
      <component glyphName="circumflex" x="-19" y="256" flags="0x4"/>
    </TTGlyph>
    <TTGlyph name="Edieresis" xMin="-5" yMin="-47" xMax="926" yMax="910">
      <component glyphName="E" x="0" y="0" flags="0x204"/>
      <component glyphName="dieresis" x="10" y="225" flags="0x4"/>
    </TTGlyph>
    <TTGlyph name="Egrave" xMin="-5" yMin="-47" xMax="926" yMax="951">
      <component glyphName="E" x="0" y="0" flags="0x204"/>
      <component glyphName="grave" x="-60" y="236" flags="0x4"/>
    </TTGlyph>
    <TTGlyph name="Eth" xMin="-10" yMin="-24" xMax="889" yMax="763">
      <contour>
        <pt x="889" y="511" on="1"/>
        <pt x="889" y="453" on="0"/>
        <pt x="854" y="330" on="0"/>
        <pt x="791" y="212" on="0"/>
        <pt x="705" y="106" on="0"/>
        <pt x="601" y="26" on="0"/>
        <pt x="483" y="-21" on="0"/>
        <pt x="421" y="-21" on="1"/>
        <pt x="360" y="-21" on="0"/>
        <pt x="252" y="30" on="0"/>
        <pt x="208" y="71" on="1"/>
        <pt x="168" y="29" on="0"/>
        <pt x="61" y="-24" on="0"/>
        <pt x="3" y="-24" on="1"/>
        <pt x="-3" y="-24" on="0"/>
        <pt x="-10" y="-14" on="0"/>
        <pt x="-10" y="-9" on="1"/>
        <pt x="-10" y="3" on="0"/>
        <pt x="1" y="6" on="1"/>
        <pt x="21" y="10" on="0"/>
        <pt x="58" y="17" on="0"/>
        <pt x="78" y="26" on="1"/>
        <pt x="123" y="46" on="0"/>
        <pt x="192" y="117" on="0"/>
        <pt x="246" y="204" on="0"/>
        <pt x="286" y="299" on="0"/>
        <pt x="302" y="343" on="1"/>
        <pt x="294" y="342" on="0"/>
        <pt x="277" y="342" on="0"/>
        <pt x="269" y="342" on="1"/>
        <pt x="260" y="342" on="0"/>
        <pt x="237" y="344" on="0"/>
        <pt x="212" y="347" on="0"/>
        <pt x="189" y="353" on="0"/>
        <pt x="182" y="358" on="1"/>
        <pt x="179" y="360" on="0"/>
        <pt x="175" y="369" on="0"/>
        <pt x="175" y="373" on="1"/>
        <pt x="175" y="376" on="0"/>
        <pt x="180" y="386" on="0"/>
        <pt x="183" y="388" on="1"/>
        <pt x="198" y="394" on="0"/>
        <pt x="243" y="397" on="0"/>
        <pt x="260" y="397" on="1"/>
        <pt x="275" y="397" on="0"/>
        <pt x="306" y="396" on="0"/>
        <pt x="321" y="395" on="1"/>
        <pt x="344" y="465" on="0"/>
        <pt x="387" y="608" on="0"/>
        <pt x="422" y="674" on="1"/>
        <pt x="394" y="658" on="0"/>
        <pt x="336" y="631" on="0"/>
        <pt x="309" y="614" on="1"/>
        <pt x="269" y="589" on="0"/>
        <pt x="191" y="524" on="0"/>
        <pt x="171" y="479" on="1"/>
        <pt x="166" y="468" on="0"/>
        <pt x="162" y="446" on="0"/>
        <pt x="159" y="435" on="1"/>
        <pt x="158" y="431" on="0"/>
        <pt x="150" y="426" on="0"/>
        <pt x="146" y="426" on="1"/>
        <pt x="137" y="426" on="0"/>
        <pt x="130" y="436" on="0"/>
        <pt x="130" y="444" on="1"/>
        <pt x="130" y="484" on="0"/>
        <pt x="164" y="554" on="0"/>
        <pt x="221" y="614" on="0"/>
        <pt x="293" y="666" on="0"/>
        <pt x="370" y="709" on="0"/>
        <pt x="445" y="744" on="0"/>
        <pt x="476" y="757" on="1"/>
        <pt x="478" y="758" on="0"/>
        <pt x="481" y="760" on="0"/>
        <pt x="484" y="760" on="1"/>
        <pt x="490" y="760" on="0"/>
        <pt x="501" y="751" on="0"/>
        <pt x="501" y="744" on="1"/>
        <pt x="501" y="743" on="0"/>
        <pt x="492" y="721" on="0"/>
        <pt x="482" y="694" on="0"/>
        <pt x="471" y="669" on="0"/>
        <pt x="470" y="665" on="1"/>
        <pt x="511" y="709" on="0"/>
        <pt x="611" y="763" on="0"/>
        <pt x="672" y="763" on="1"/>
        <pt x="692" y="763" on="1"/>
        <pt x="718" y="759" on="0"/>
        <pt x="768" y="737" on="0"/>
        <pt x="812" y="704" on="0"/>
        <pt x="848" y="663" on="0"/>
        <pt x="860" y="640" on="1"/>
        <pt x="875" y="610" on="0"/>
        <pt x="889" y="544" on="0"/>
      </contour>
      <contour>
        <pt x="837" y="501" on="1"/>
        <pt x="837" y="539" on="0"/>
        <pt x="814" y="614" on="0"/>
        <pt x="770" y="673" on="0"/>
        <pt x="706" y="709" on="0"/>
        <pt x="664" y="709" on="1"/>
        <pt x="634" y="709" on="0"/>
        <pt x="578" y="688" on="0"/>
        <pt x="528" y="655" on="0"/>
        <pt x="484" y="614" on="0"/>
        <pt x="466" y="593" on="1"/>
        <pt x="458" y="583" on="0"/>
        <pt x="433" y="557" on="0"/>
        <pt x="427" y="546" on="1"/>
        <pt x="425" y="541" on="0"/>
        <pt x="419" y="524" on="0"/>
        <pt x="413" y="505" on="0"/>
        <pt x="407" y="487" on="0"/>
        <pt x="405" y="481" on="1"/>
        <pt x="391" y="437" on="0"/>
        <pt x="375" y="394" on="1"/>
        <pt x="398" y="393" on="0"/>
        <pt x="442" y="392" on="0"/>
        <pt x="464" y="390" on="1"/>
        <pt x="477" y="389" on="0"/>
        <pt x="504" y="389" on="0"/>
        <pt x="516" y="386" on="1"/>
        <pt x="521" y="385" on="0"/>
        <pt x="527" y="376" on="0"/>
        <pt x="527" y="372" on="1"/>
        <pt x="527" y="368" on="0"/>
        <pt x="521" y="358" on="0"/>
        <pt x="517" y="357" on="1"/>
        <pt x="505" y="354" on="0"/>
        <pt x="477" y="353" on="0"/>
        <pt x="464" y="351" on="1"/>
        <pt x="412" y="347" on="0"/>
        <pt x="357" y="345" on="1"/>
        <pt x="355" y="337" on="1"/>
        <pt x="330" y="271" on="0"/>
        <pt x="271" y="149" on="0"/>
        <pt x="228" y="94" on="1"/>
        <pt x="266" y="61" on="0"/>
        <pt x="360" y="18" on="0"/>
        <pt x="411" y="18" on="1"/>
        <pt x="464" y="18" on="0"/>
        <pt x="562" y="55" on="0"/>
        <pt x="650" y="119" on="0"/>
        <pt x="724" y="204" on="0"/>
        <pt x="782" y="300" on="0"/>
        <pt x="822" y="400" on="0"/>
        <pt x="832" y="448" on="1"/>
        <pt x="834" y="462" on="0"/>
        <pt x="837" y="487" on="0"/>
      </contour>
    </TTGlyph>
    <TTGlyph name="Euro" xMin="31" yMin="-2" xMax="546" yMax="603">
      <contour>
        <pt x="546" y="578" on="1"/>
        <pt x="546" y="570" on="0"/>
        <pt x="539" y="563" on="0"/>
        <pt x="528" y="561" on="0"/>
        <pt x="515" y="562" on="0"/>
        <pt x="510" y="562" on="1"/>
        <pt x="461" y="562" on="0"/>
        <pt x="370" y="530" on="0"/>
        <pt x="293" y="473" on="0"/>
        <pt x="234" y="395" on="0"/>
        <pt x="219" y="349" on="1"/>
        <pt x="226" y="348" on="0"/>
        <pt x="238" y="348" on="0"/>
        <pt x="244" y="347" on="1"/>
        <pt x="248" y="344" on="0"/>
        <pt x="254" y="335" on="0"/>
        <pt x="254" y="330" on="1"/>
        <pt x="254" y="324" on="0"/>
        <pt x="243" y="316" on="0"/>
        <pt x="229" y="312" on="0"/>
        <pt x="213" y="310" on="0"/>
        <pt x="209" y="309" on="1"/>
        <pt x="207" y="300" on="1"/>
        <pt x="217" y="300" on="0"/>
        <pt x="235" y="299" on="0"/>
        <pt x="244" y="298" on="1"/>
        <pt x="248" y="295" on="0"/>
        <pt x="254" y="286" on="0"/>
        <pt x="254" y="281" on="1"/>
        <pt x="254" y="278" on="0"/>
        <pt x="250" y="270" on="0"/>
        <pt x="247" y="269" on="1"/>
        <pt x="237" y="265" on="0"/>
        <pt x="214" y="261" on="0"/>
        <pt x="203" y="259" on="1"/>
        <pt x="202" y="251" on="0"/>
        <pt x="202" y="235" on="0"/>
        <pt x="202" y="227" on="1"/>
        <pt x="202" y="205" on="0"/>
        <pt x="208" y="155" on="0"/>
        <pt x="224" y="107" on="0"/>
        <pt x="250" y="65" on="0"/>
        <pt x="271" y="53" on="1"/>
        <pt x="282" y="46" on="0"/>
        <pt x="317" y="40" on="0"/>
        <pt x="331" y="40" on="1"/>
        <pt x="371" y="40" on="0"/>
        <pt x="447" y="75" on="0"/>
        <pt x="473" y="105" on="1"/>
        <pt x="480" y="113" on="0"/>
        <pt x="489" y="128" on="0"/>
        <pt x="495" y="136" on="1"/>
        <pt x="500" y="143" on="0"/>
        <pt x="506" y="143" on="1"/>
        <pt x="512" y="143" on="0"/>
        <pt x="523" y="135" on="0"/>
        <pt x="523" y="128" on="1"/>
        <pt x="523" y="127" on="0"/>
        <pt x="522" y="125" on="0"/>
        <pt x="522" y="123" on="1"/>
        <pt x="509" y="95" on="0"/>
        <pt x="468" y="49" on="0"/>
        <pt x="415" y="16" on="0"/>
        <pt x="356" y="-2" on="0"/>
        <pt x="325" y="-2" on="1"/>
        <pt x="310" y="-2" on="0"/>
        <pt x="263" y="6" on="0"/>
        <pt x="249" y="14" on="1"/>
        <pt x="219" y="32" on="0"/>
        <pt x="180" y="86" on="0"/>
        <pt x="158" y="151" on="0"/>
        <pt x="151" y="220" on="0"/>
        <pt x="152" y="252" on="1"/>
        <pt x="136" y="250" on="0"/>
        <pt x="103" y="246" on="0"/>
        <pt x="86" y="246" on="1"/>
        <pt x="79" y="246" on="0"/>
        <pt x="60" y="248" on="0"/>
        <pt x="43" y="255" on="0"/>
        <pt x="31" y="267" on="0"/>
        <pt x="31" y="276" on="1"/>
        <pt x="31" y="285" on="0"/>
        <pt x="48" y="295" on="0"/>
        <pt x="61" y="297" on="1"/>
        <pt x="49" y="300" on="0"/>
        <pt x="31" y="313" on="0"/>
        <pt x="31" y="325" on="1"/>
        <pt x="31" y="335" on="0"/>
        <pt x="55" y="346" on="0"/>
        <pt x="86" y="350" on="0"/>
        <pt x="117" y="350" on="0"/>
        <pt x="124" y="350" on="1"/>
        <pt x="165" y="350" on="1"/>
        <pt x="178" y="399" on="0"/>
        <pt x="235" y="491" on="0"/>
        <pt x="315" y="561" on="0"/>
        <pt x="412" y="603" on="0"/>
        <pt x="465" y="603" on="1"/>
        <pt x="479" y="603" on="0"/>
        <pt x="524" y="597" on="0"/>
        <pt x="537" y="592" on="1"/>
        <pt x="546" y="587" on="0"/>
      </contour>
    </TTGlyph>
    <TTGlyph name="F" xMin="82" yMin="-31" xMax="883" yMax="841">
      <contour>
        <pt x="883" y="824" on="1"/>
        <pt x="883" y="818" on="0"/>
        <pt x="879" y="815" on="1"/>
        <pt x="847" y="783" on="0"/>
        <pt x="755" y="744" on="0"/>
        <pt x="710" y="736" on="1"/>
        <pt x="668" y="728" on="0"/>
        <pt x="582" y="722" on="0"/>
        <pt x="495" y="719" on="0"/>
        <pt x="409" y="714" on="0"/>
        <pt x="367" y="705" on="1"/>
        <pt x="362" y="624" on="0"/>
        <pt x="322" y="468" on="0"/>
        <pt x="296" y="392" on="1"/>
        <pt x="324" y="392" on="0"/>
        <pt x="379" y="384" on="0"/>
        <pt x="407" y="384" on="1"/>
        <pt x="432" y="384" on="0"/>
        <pt x="481" y="389" on="0"/>
        <pt x="505" y="395" on="1"/>
        <pt x="508" y="396" on="0"/>
        <pt x="521" y="400" on="0"/>
        <pt x="534" y="404" on="0"/>
        <pt x="545" y="408" on="0"/>
        <pt x="546" y="408" on="1"/>
        <pt x="551" y="408" on="0"/>
        <pt x="563" y="394" on="0"/>
        <pt x="563" y="390" on="1"/>
        <pt x="563" y="384" on="0"/>
        <pt x="558" y="381" on="1"/>
        <pt x="520" y="357" on="0"/>
        <pt x="424" y="335" on="0"/>
        <pt x="380" y="335" on="1"/>
        <pt x="363" y="335" on="0"/>
        <pt x="330" y="339" on="0"/>
        <pt x="313" y="339" on="1"/>
        <pt x="304" y="339" on="0"/>
        <pt x="285" y="337" on="0"/>
        <pt x="276" y="335" on="1"/>
        <pt x="252" y="269" on="0"/>
        <pt x="196" y="139" on="0"/>
        <pt x="164" y="76" on="1"/>
        <pt x="151" y="52" on="0"/>
        <pt x="124" y="-3" on="0"/>
        <pt x="110" y="-26" on="1"/>
        <pt x="105" y="-31" on="0"/>
        <pt x="99" y="-31" on="1"/>
        <pt x="93" y="-31" on="0"/>
        <pt x="82" y="-23" on="0"/>
        <pt x="82" y="-16" on="1"/>
        <pt x="82" y="-13" on="1"/>
        <pt x="93" y="13" on="0"/>
        <pt x="118" y="67" on="0"/>
        <pt x="129" y="93" on="1"/>
        <pt x="175" y="204" on="0"/>
        <pt x="216" y="318" on="1"/>
        <pt x="214" y="317" on="0"/>
        <pt x="201" y="311" on="0"/>
        <pt x="186" y="304" on="0"/>
        <pt x="174" y="299" on="0"/>
        <pt x="173" y="299" on="1"/>
        <pt x="167" y="299" on="0"/>
        <pt x="155" y="312" on="0"/>
        <pt x="155" y="318" on="1"/>
        <pt x="156" y="321" on="1"/>
        <pt x="168" y="344" on="0"/>
        <pt x="214" y="375" on="0"/>
        <pt x="239" y="383" on="1"/>
        <pt x="265" y="461" on="0"/>
        <pt x="302" y="619" on="0"/>
        <pt x="329" y="696" on="1"/>
        <pt x="291" y="685" on="0"/>
        <pt x="222" y="646" on="0"/>
        <pt x="196" y="615" on="1"/>
        <pt x="188" y="607" on="0"/>
        <pt x="178" y="590" on="0"/>
        <pt x="171" y="582" on="1"/>
        <pt x="168" y="577" on="0"/>
        <pt x="162" y="577" on="1"/>
        <pt x="156" y="577" on="0"/>
        <pt x="145" y="585" on="0"/>
        <pt x="145" y="592" on="1"/>
        <pt x="145" y="595" on="0"/>
        <pt x="146" y="596" on="1"/>
        <pt x="173" y="650" on="0"/>
        <pt x="258" y="717" on="0"/>
        <pt x="360" y="754" on="0"/>
        <pt x="473" y="769" on="0"/>
        <pt x="527" y="772" on="1"/>
        <pt x="617" y="776" on="0"/>
        <pt x="779" y="803" on="0"/>
        <pt x="862" y="840" on="1"/>
        <pt x="864" y="841" on="0"/>
        <pt x="867" y="841" on="1"/>
        <pt x="873" y="841" on="0"/>
        <pt x="883" y="830" on="0"/>
      </contour>
    </TTGlyph>
    <TTGlyph name="G" xMin="-169" yMin="-607" xMax="727" yMax="778">
      <contour>
        <pt x="727" y="559" on="1"/>
        <pt x="727" y="557" on="0"/>
        <pt x="725" y="552" on="0"/>
        <pt x="724" y="550" on="1"/>
        <pt x="688" y="498" on="0"/>
        <pt x="625" y="397" on="0"/>
        <pt x="569" y="293" on="0"/>
        <pt x="521" y="184" on="0"/>
        <pt x="501" y="124" on="1"/>
        <pt x="481" y="66" on="0"/>
        <pt x="454" y="-53" on="0"/>
        <pt x="428" y="-173" on="0"/>
        <pt x="398" y="-292" on="0"/>
        <pt x="376" y="-350" on="1"/>
        <pt x="356" y="-401" on="0"/>
        <pt x="304" y="-495" on="0"/>
        <pt x="233" y="-565" on="0"/>
        <pt x="139" y="-607" on="0"/>
        <pt x="78" y="-607" on="1"/>
        <pt x="26" y="-607" on="0"/>
        <pt x="-64" y="-574" on="0"/>
        <pt x="-131" y="-513" on="0"/>
        <pt x="-169" y="-427" on="0"/>
        <pt x="-169" y="-374" on="1"/>
        <pt x="-169" y="-320" on="0"/>
        <pt x="-136" y="-210" on="0"/>
        <pt x="-78" y="-109" on="0"/>
        <pt x="1" y="-26" on="0"/>
        <pt x="48" y="0" on="1"/>
        <pt x="54" y="2" on="0"/>
        <pt x="56" y="2" on="1"/>
        <pt x="62" y="2" on="0"/>
        <pt x="71" y="-7" on="0"/>
        <pt x="71" y="-13" on="1"/>
        <pt x="71" y="-21" on="0"/>
        <pt x="63" y="-26" on="1"/>
        <pt x="52" y="-34" on="0"/>
        <pt x="32" y="-48" on="0"/>
        <pt x="21" y="-56" on="1"/>
        <pt x="-23" y="-93" on="0"/>
        <pt x="-86" y="-190" on="0"/>
        <pt x="-105" y="-244" on="1"/>
        <pt x="-115" y="-273" on="0"/>
        <pt x="-127" y="-334" on="0"/>
        <pt x="-127" y="-366" on="1"/>
        <pt x="-127" y="-412" on="0"/>
        <pt x="-97" y="-484" on="0"/>
        <pt x="-43" y="-533" on="0"/>
        <pt x="32" y="-559" on="0"/>
        <pt x="77" y="-559" on="1"/>
        <pt x="100" y="-559" on="0"/>
        <pt x="145" y="-551" on="0"/>
        <pt x="166" y="-541" on="1"/>
        <pt x="211" y="-522" on="0"/>
        <pt x="279" y="-439" on="0"/>
        <pt x="331" y="-331" on="0"/>
        <pt x="369" y="-205" on="0"/>
        <pt x="398" y="-81" on="0"/>
        <pt x="420" y="33" on="0"/>
        <pt x="431" y="76" on="1"/>
        <pt x="416" y="58" on="0"/>
        <pt x="381" y="21" on="0"/>
        <pt x="340" y="-8" on="0"/>
        <pt x="295" y="-27" on="0"/>
        <pt x="270" y="-27" on="1"/>
        <pt x="264" y="-27" on="0"/>
        <pt x="252" y="-26" on="0"/>
        <pt x="247" y="-25" on="1"/>
        <pt x="206" y="-16" on="0"/>
        <pt x="146" y="29" on="0"/>
        <pt x="106" y="91" on="0"/>
        <pt x="87" y="166" on="0"/>
        <pt x="87" y="205" on="1"/>
        <pt x="87" y="210" on="0"/>
        <pt x="87" y="217" on="0"/>
        <pt x="88" y="222" on="1"/>
        <pt x="93" y="322" on="0"/>
        <pt x="155" y="506" on="0"/>
        <pt x="212" y="589" on="1"/>
        <pt x="223" y="604" on="0"/>
        <pt x="246" y="635" on="0"/>
        <pt x="259" y="649" on="1"/>
        <pt x="279" y="670" on="0"/>
        <pt x="330" y="702" on="0"/>
        <pt x="386" y="725" on="0"/>
        <pt x="444" y="740" on="0"/>
        <pt x="472" y="745" on="1"/>
        <pt x="529" y="754" on="0"/>
        <pt x="639" y="765" on="0"/>
        <pt x="695" y="778" on="1"/>
        <pt x="697" y="778" on="1"/>
        <pt x="712" y="778" on="0"/>
        <pt x="712" y="762" on="1"/>
        <pt x="712" y="752" on="0"/>
        <pt x="702" y="749" on="1"/>
        <pt x="688" y="743" on="0"/>
        <pt x="654" y="737" on="0"/>
        <pt x="639" y="734" on="1"/>
        <pt x="599" y="726" on="0"/>
        <pt x="518" y="717" on="0"/>
        <pt x="478" y="709" on="1"/>
        <pt x="424" y="698" on="0"/>
        <pt x="328" y="660" on="0"/>
        <pt x="291" y="618" on="1"/>
        <pt x="256" y="579" on="0"/>
        <pt x="199" y="481" on="0"/>
        <pt x="159" y="373" on="0"/>
        <pt x="138" y="261" on="0"/>
        <pt x="138" y="208" on="1"/>
        <pt x="138" y="170" on="0"/>
        <pt x="160" y="93" on="0"/>
        <pt x="189" y="66" on="1"/>
        <pt x="206" y="50" on="0"/>
        <pt x="248" y="29" on="0"/>
        <pt x="271" y="29" on="1"/>
        <pt x="295" y="29" on="0"/>
        <pt x="347" y="63" on="0"/>
        <pt x="398" y="118" on="0"/>
        <pt x="447" y="186" on="0"/>
        <pt x="489" y="253" on="0"/>
        <pt x="523" y="313" on="0"/>
        <pt x="534" y="332" on="1"/>
        <pt x="551" y="361" on="0"/>
        <pt x="589" y="425" on="0"/>
        <pt x="631" y="487" on="0"/>
        <pt x="676" y="545" on="0"/>
        <pt x="699" y="569" on="1"/>
        <pt x="706" y="574" on="0"/>
        <pt x="711" y="574" on="1"/>
        <pt x="727" y="574" on="0"/>
      </contour>
    </TTGlyph>
    <TTGlyph name="H" xMin="41" yMin="-88" xMax="976" yMax="758">
      <contour>
        <pt x="976" y="0" on="1"/>
        <pt x="976" y="-4" on="0"/>
        <pt x="971" y="-9" on="1"/>
        <pt x="958" y="-21" on="0"/>
        <pt x="921" y="-49" on="0"/>
        <pt x="879" y="-72" on="0"/>
        <pt x="837" y="-88" on="0"/>
        <pt x="819" y="-88" on="1"/>
        <pt x="787" y="-88" on="0"/>
        <pt x="751" y="-56" on="0"/>
        <pt x="732" y="-8" on="0"/>
        <pt x="727" y="48" on="0"/>
        <pt x="727" y="71" on="1"/>
        <pt x="727" y="113" on="0"/>
        <pt x="740" y="209" on="0"/>
        <pt x="761" y="306" on="0"/>
        <pt x="787" y="400" on="0"/>
        <pt x="799" y="441" on="1"/>
        <pt x="767" y="433" on="0"/>
        <pt x="702" y="426" on="0"/>
        <pt x="637" y="423" on="0"/>
        <pt x="572" y="423" on="0"/>
        <pt x="539" y="422" on="1"/>
        <pt x="470" y="419" on="0"/>
        <pt x="404" y="395" on="1"/>
        <pt x="381" y="317" on="0"/>
        <pt x="325" y="162" on="0"/>
        <pt x="279" y="93" on="1"/>
        <pt x="261" y="66" on="0"/>
        <pt x="212" y="16" on="0"/>
        <pt x="153" y="-21" on="0"/>
        <pt x="88" y="-43" on="0"/>
        <pt x="54" y="-43" on="1"/>
        <pt x="48" y="-43" on="0"/>
        <pt x="41" y="-32" on="0"/>
        <pt x="41" y="-27" on="1"/>
        <pt x="41" y="-15" on="0"/>
        <pt x="52" y="-13" on="1"/>
        <pt x="72" y="-8" on="0"/>
        <pt x="108" y="0" on="0"/>
        <pt x="128" y="9" on="1"/>
        <pt x="173" y="31" on="0"/>
        <pt x="240" y="108" on="0"/>
        <pt x="289" y="201" on="0"/>
        <pt x="323" y="301" on="0"/>
        <pt x="336" y="346" on="1"/>
        <pt x="343" y="369" on="1"/>
        <pt x="341" y="368" on="0"/>
        <pt x="325" y="360" on="0"/>
        <pt x="309" y="352" on="0"/>
        <pt x="295" y="345" on="0"/>
        <pt x="294" y="345" on="1"/>
        <pt x="287" y="345" on="0"/>
        <pt x="276" y="356" on="0"/>
        <pt x="276" y="362" on="1"/>
        <pt x="276" y="369" on="0"/>
        <pt x="297" y="392" on="0"/>
        <pt x="326" y="414" on="0"/>
        <pt x="354" y="432" on="0"/>
        <pt x="361" y="435" on="1"/>
        <pt x="376" y="495" on="0"/>
        <pt x="408" y="614" on="0"/>
        <pt x="434" y="671" on="1"/>
        <pt x="407" y="654" on="0"/>
        <pt x="350" y="625" on="0"/>
        <pt x="323" y="607" on="1"/>
        <pt x="304" y="594" on="0"/>
        <pt x="265" y="564" on="0"/>
        <pt x="231" y="530" on="0"/>
        <pt x="203" y="490" on="0"/>
        <pt x="195" y="468" on="1"/>
        <pt x="190" y="454" on="0"/>
        <pt x="189" y="436" on="0"/>
        <pt x="186" y="424" on="1"/>
        <pt x="184" y="419" on="0"/>
        <pt x="176" y="414" on="0"/>
        <pt x="171" y="414" on="1"/>
        <pt x="166" y="414" on="0"/>
        <pt x="157" y="420" on="0"/>
        <pt x="156" y="425" on="1"/>
        <pt x="156" y="424" on="1"/>
        <pt x="156" y="428" on="0"/>
        <pt x="155" y="435" on="0"/>
        <pt x="155" y="439" on="1"/>
        <pt x="155" y="497" on="0"/>
        <pt x="223" y="594" on="0"/>
        <pt x="323" y="672" on="0"/>
        <pt x="437" y="733" on="0"/>
        <pt x="482" y="755" on="1"/>
        <pt x="484" y="756" on="0"/>
        <pt x="488" y="758" on="0"/>
        <pt x="490" y="758" on="1"/>
        <pt x="497" y="758" on="0"/>
        <pt x="508" y="748" on="0"/>
        <pt x="508" y="741" on="1"/>
        <pt x="508" y="739" on="1"/>
        <pt x="500" y="716" on="0"/>
        <pt x="485" y="673" on="0"/>
        <pt x="477" y="650" on="1"/>
        <pt x="462" y="602" on="0"/>
        <pt x="436" y="506" on="0"/>
        <pt x="422" y="458" on="1"/>
        <pt x="455" y="467" on="0"/>
        <pt x="522" y="473" on="0"/>
        <pt x="556" y="473" on="1"/>
        <pt x="589" y="473" on="0"/>
        <pt x="655" y="470" on="0"/>
        <pt x="688" y="470" on="1"/>
        <pt x="719" y="470" on="0"/>
        <pt x="780" y="474" on="0"/>
        <pt x="810" y="481" on="1"/>
        <pt x="826" y="531" on="0"/>
        <pt x="862" y="628" on="0"/>
        <pt x="885" y="676" on="1"/>
        <pt x="893" y="692" on="0"/>
        <pt x="909" y="726" on="0"/>
        <pt x="919" y="740" on="1"/>
        <pt x="923" y="746" on="0"/>
        <pt x="931" y="746" on="1"/>
        <pt x="937" y="746" on="0"/>
        <pt x="948" y="738" on="0"/>
        <pt x="948" y="730" on="1"/>
        <pt x="948" y="728" on="0"/>
        <pt x="937" y="693" on="0"/>
        <pt x="921" y="642" on="0"/>
        <pt x="901" y="581" on="0"/>
        <pt x="883" y="527" on="0"/>
        <pt x="869" y="485" on="0"/>
        <pt x="867" y="478" on="1"/>
        <pt x="867" y="477" on="0"/>
        <pt x="868" y="475" on="0"/>
        <pt x="868" y="474" on="1"/>
        <pt x="868" y="468" on="0"/>
        <pt x="863" y="465" on="1"/>
        <pt x="848" y="418" on="0"/>
        <pt x="816" y="313" on="0"/>
        <pt x="790" y="205" on="0"/>
        <pt x="774" y="98" on="0"/>
        <pt x="774" y="49" on="1"/>
        <pt x="774" y="37" on="0"/>
        <pt x="776" y="3" on="0"/>
        <pt x="786" y="-28" on="0"/>
        <pt x="805" y="-49" on="0"/>
        <pt x="823" y="-49" on="1"/>
        <pt x="840" y="-49" on="0"/>
        <pt x="884" y="-28" on="0"/>
        <pt x="926" y="-4" on="0"/>
        <pt x="957" y="17" on="0"/>
        <pt x="960" y="17" on="1"/>
        <pt x="966" y="17" on="0"/>
        <pt x="976" y="6" on="0"/>
      </contour>
    </TTGlyph>
    <TTGlyph name="I" xMin="-102" yMin="-81" xMax="753" yMax="774">
      <contour>
        <pt x="753" y="757" on="1"/>
        <pt x="753" y="749" on="0"/>
        <pt x="747" y="746" on="1"/>
        <pt x="716" y="731" on="0"/>
        <pt x="643" y="716" on="0"/>
        <pt x="567" y="710" on="0"/>
        <pt x="492" y="711" on="0"/>
        <pt x="458" y="711" on="1"/>
        <pt x="452" y="633" on="0"/>
        <pt x="406" y="455" on="0"/>
        <pt x="340" y="277" on="0"/>
        <pt x="263" y="108" on="0"/>
        <pt x="226" y="39" on="1"/>
        <pt x="256" y="37" on="0"/>
        <pt x="315" y="35" on="0"/>
        <pt x="344" y="35" on="1"/>
        <pt x="369" y="35" on="0"/>
        <pt x="418" y="38" on="0"/>
        <pt x="442" y="42" on="1"/>
        <pt x="449" y="44" on="0"/>
        <pt x="461" y="46" on="0"/>
        <pt x="468" y="48" on="1"/>
        <pt x="473" y="49" on="0"/>
        <pt x="480" y="53" on="0"/>
        <pt x="485" y="53" on="1"/>
        <pt x="490" y="53" on="0"/>
        <pt x="501" y="40" on="0"/>
        <pt x="501" y="35" on="1"/>
        <pt x="501" y="27" on="0"/>
        <pt x="495" y="24" on="1"/>
        <pt x="463" y="9" on="0"/>
        <pt x="388" y="-6" on="0"/>
        <pt x="310" y="-11" on="0"/>
        <pt x="233" y="-10" on="0"/>
        <pt x="198" y="-10" on="1"/>
        <pt x="195" y="-13" on="0"/>
        <pt x="191" y="-13" on="1"/>
        <pt x="187" y="-13" on="0"/>
        <pt x="183" y="-10" on="1"/>
        <pt x="167" y="-10" on="1"/>
        <pt x="114" y="-11" on="0"/>
        <pt x="15" y="-38" on="0"/>
        <pt x="-33" y="-58" on="1"/>
        <pt x="-45" y="-63" on="0"/>
        <pt x="-69" y="-76" on="0"/>
        <pt x="-82" y="-81" on="1"/>
        <pt x="-85" y="-81" on="1"/>
        <pt x="-91" y="-81" on="0"/>
        <pt x="-102" y="-70" on="0"/>
        <pt x="-102" y="-64" on="1"/>
        <pt x="-102" y="-60" on="0"/>
        <pt x="-100" y="-56" on="1"/>
        <pt x="-78" y="-29" on="0"/>
        <pt x="-18" y="8" on="0"/>
        <pt x="50" y="31" on="0"/>
        <pt x="121" y="41" on="0"/>
        <pt x="154" y="41" on="1"/>
        <pt x="163" y="41" on="0"/>
        <pt x="181" y="40" on="0"/>
        <pt x="190" y="40" on="1"/>
        <pt x="228" y="128" on="0"/>
        <pt x="299" y="306" on="0"/>
        <pt x="330" y="398" on="1"/>
        <pt x="356" y="476" on="0"/>
        <pt x="394" y="633" on="0"/>
        <pt x="420" y="711" on="1"/>
        <pt x="419" y="711" on="1"/>
        <pt x="366" y="711" on="0"/>
        <pt x="267" y="684" on="0"/>
        <pt x="219" y="663" on="1"/>
        <pt x="207" y="658" on="0"/>
        <pt x="182" y="646" on="0"/>
        <pt x="170" y="641" on="1"/>
        <pt x="167" y="640" on="1"/>
        <pt x="161" y="640" on="0"/>
        <pt x="149" y="652" on="0"/>
        <pt x="149" y="658" on="1"/>
        <pt x="149" y="662" on="0"/>
        <pt x="152" y="665" on="1"/>
        <pt x="175" y="692" on="0"/>
        <pt x="236" y="730" on="0"/>
        <pt x="305" y="752" on="0"/>
        <pt x="377" y="762" on="0"/>
        <pt x="411" y="762" on="1"/>
        <pt x="457" y="762" on="0"/>
        <pt x="547" y="756" on="0"/>
        <pt x="593" y="756" on="1"/>
        <pt x="618" y="756" on="0"/>
        <pt x="668" y="759" on="0"/>
        <pt x="693" y="763" on="1"/>
        <pt x="700" y="765" on="0"/>
        <pt x="713" y="767" on="0"/>
        <pt x="719" y="769" on="1"/>
        <pt x="724" y="771" on="0"/>
        <pt x="732" y="774" on="0"/>
        <pt x="737" y="774" on="1"/>
        <pt x="742" y="774" on="0"/>
        <pt x="753" y="762" on="0"/>
      </contour>
    </TTGlyph>
    <TTGlyph name="Iacute" xMin="-102" yMin="-81" xMax="753" yMax="947">
      <component glyphName="I" x="0" y="0" flags="0x204"/>
      <component glyphName="acute" x="-81" y="236" flags="0x4"/>
    </TTGlyph>
    <TTGlyph name="Icircumflex" xMin="-102" yMin="-81" xMax="753" yMax="956">
      <component glyphName="I" x="0" y="0" flags="0x204"/>
      <component glyphName="circumflex" x="-122" y="246" flags="0x4"/>
    </TTGlyph>
    <TTGlyph name="Idieresis" xMin="-102" yMin="-81" xMax="753" yMax="900">
      <component glyphName="I" x="0" y="0" flags="0x204"/>
      <component glyphName="dieresis" x="-122" y="215" flags="0x4"/>
    </TTGlyph>
    <TTGlyph name="Igrave" xMin="-102" yMin="-81" xMax="753" yMax="961">
      <component glyphName="I" x="0" y="0" flags="0x204"/>
      <component glyphName="grave" x="-132" y="246" flags="0x4"/>
    </TTGlyph>
    <TTGlyph name="J" xMin="-420" yMin="-448" xMax="531" yMax="769">
      <contour>
        <pt x="531" y="751" on="1"/>
        <pt x="531" y="744" on="0"/>
        <pt x="513" y="729" on="0"/>
        <pt x="508" y="724" on="1"/>
        <pt x="498" y="713" on="0"/>
        <pt x="480" y="688" on="0"/>
        <pt x="471" y="675" on="1"/>
        <pt x="411" y="590" on="0"/>
        <pt x="324" y="403" on="0"/>
        <pt x="289" y="306" on="1"/>
        <pt x="268" y="247" on="0"/>
        <pt x="237" y="125" on="0"/>
        <pt x="208" y="2" on="0"/>
        <pt x="176" y="-120" on="0"/>
        <pt x="154" y="-179" on="1"/>
        <pt x="133" y="-236" on="0"/>
        <pt x="75" y="-335" on="0"/>
        <pt x="-3" y="-407" on="0"/>
        <pt x="-106" y="-448" on="0"/>
        <pt x="-172" y="-448" on="1"/>
        <pt x="-220" y="-448" on="0"/>
        <pt x="-313" y="-419" on="0"/>
        <pt x="-351" y="-389" on="1"/>
        <pt x="-388" y="-360" on="0"/>
        <pt x="-420" y="-282" on="0"/>
        <pt x="-420" y="-237" on="1"/>
        <pt x="-420" y="-181" on="0"/>
        <pt x="-379" y="-69" on="0"/>
        <pt x="-310" y="32" on="0"/>
        <pt x="-221" y="113" on="0"/>
        <pt x="-172" y="137" on="1"/>
        <pt x="-166" y="139" on="0"/>
        <pt x="-164" y="139" on="1"/>
        <pt x="-158" y="139" on="0"/>
        <pt x="-150" y="130" on="0"/>
        <pt x="-150" y="124" on="1"/>
        <pt x="-150" y="115" on="0"/>
        <pt x="-158" y="110" on="1"/>
        <pt x="-169" y="104" on="0"/>
        <pt x="-189" y="92" on="0"/>
        <pt x="-199" y="85" on="1"/>
        <pt x="-249" y="50" on="0"/>
        <pt x="-323" y="-46" on="0"/>
        <pt x="-348" y="-101" on="1"/>
        <pt x="-362" y="-132" on="0"/>
        <pt x="-378" y="-197" on="0"/>
        <pt x="-378" y="-230" on="1"/>
        <pt x="-378" y="-267" on="0"/>
        <pt x="-353" y="-331" on="0"/>
        <pt x="-324" y="-354" on="1"/>
        <pt x="-292" y="-378" on="0"/>
        <pt x="-212" y="-400" on="0"/>
        <pt x="-174" y="-400" on="1"/>
        <pt x="-116" y="-400" on="0"/>
        <pt x="-27" y="-363" on="0"/>
        <pt x="39" y="-298" on="0"/>
        <pt x="88" y="-211" on="0"/>
        <pt x="106" y="-161" on="1"/>
        <pt x="128" y="-102" on="0"/>
        <pt x="159" y="20" on="0"/>
        <pt x="186" y="143" on="0"/>
        <pt x="216" y="265" on="0"/>
        <pt x="237" y="325" on="1"/>
        <pt x="269" y="415" on="0"/>
        <pt x="354" y="586" on="0"/>
        <pt x="411" y="662" on="1"/>
        <pt x="393" y="653" on="0"/>
        <pt x="356" y="635" on="0"/>
        <pt x="339" y="624" on="1"/>
        <pt x="296" y="598" on="0"/>
        <pt x="214" y="528" on="0"/>
        <pt x="196" y="480" on="1"/>
        <pt x="192" y="471" on="0"/>
        <pt x="189" y="454" on="0"/>
        <pt x="187" y="445" on="1"/>
        <pt x="186" y="441" on="0"/>
        <pt x="178" y="436" on="0"/>
        <pt x="174" y="436" on="1"/>
        <pt x="170" y="436" on="0"/>
        <pt x="157" y="443" on="0"/>
        <pt x="157" y="448" on="1"/>
        <pt x="157" y="485" on="0"/>
        <pt x="184" y="549" on="0"/>
        <pt x="227" y="604" on="0"/>
        <pt x="283" y="649" on="0"/>
        <pt x="312" y="667" on="1"/>
        <pt x="359" y="696" on="0"/>
        <pt x="458" y="750" on="0"/>
        <pt x="510" y="769" on="1"/>
        <pt x="513" y="769" on="1"/>
        <pt x="518" y="769" on="0"/>
        <pt x="531" y="757" on="0"/>
      </contour>
    </TTGlyph>
    <TTGlyph name="K" xMin="10" yMin="-49" xMax="820" yMax="764">
      <contour>
        <pt x="820" y="748" on="1"/>
        <pt x="820" y="745" on="0"/>
        <pt x="810" y="719" on="0"/>
        <pt x="809" y="715" on="1"/>
        <pt x="787" y="661" on="0"/>
        <pt x="702" y="583" on="0"/>
        <pt x="653" y="555" on="1"/>
        <pt x="594" y="522" on="0"/>
        <pt x="469" y="474" on="0"/>
        <pt x="409" y="445" on="1"/>
        <pt x="442" y="419" on="0"/>
        <pt x="484" y="350" on="0"/>
        <pt x="498" y="310" on="1"/>
        <pt x="512" y="270" on="0"/>
        <pt x="527" y="187" on="0"/>
        <pt x="538" y="146" on="1"/>
        <pt x="544" y="123" on="0"/>
        <pt x="556" y="76" on="0"/>
        <pt x="567" y="53" on="1"/>
        <pt x="579" y="26" on="0"/>
        <pt x="616" y="-7" on="0"/>
        <pt x="648" y="-7" on="1"/>
        <pt x="670" y="-7" on="0"/>
        <pt x="719" y="10" on="0"/>
        <pt x="762" y="31" on="0"/>
        <pt x="792" y="49" on="0"/>
        <pt x="795" y="49" on="1"/>
        <pt x="801" y="49" on="0"/>
        <pt x="811" y="39" on="0"/>
        <pt x="811" y="32" on="1"/>
        <pt x="811" y="25" on="0"/>
        <pt x="806" y="23" on="1"/>
        <pt x="789" y="9" on="0"/>
        <pt x="750" y="-14" on="0"/>
        <pt x="731" y="-24" on="1"/>
        <pt x="710" y="-35" on="0"/>
        <pt x="664" y="-49" on="0"/>
        <pt x="640" y="-49" on="1"/>
        <pt x="602" y="-49" on="0"/>
        <pt x="551" y="-14" on="0"/>
        <pt x="518" y="39" on="0"/>
        <pt x="497" y="103" on="0"/>
        <pt x="489" y="133" on="1"/>
        <pt x="478" y="172" on="0"/>
        <pt x="459" y="251" on="0"/>
        <pt x="446" y="290" on="1"/>
        <pt x="436" y="322" on="0"/>
        <pt x="409" y="383" on="0"/>
        <pt x="389" y="411" on="1"/>
        <pt x="363" y="330" on="0"/>
        <pt x="302" y="168" on="0"/>
        <pt x="252" y="99" on="1"/>
        <pt x="232" y="72" on="0"/>
        <pt x="181" y="25" on="0"/>
        <pt x="123" y="-10" on="0"/>
        <pt x="57" y="-29" on="0"/>
        <pt x="23" y="-29" on="1"/>
        <pt x="18" y="-29" on="0"/>
        <pt x="10" y="-19" on="0"/>
        <pt x="10" y="-14" on="1"/>
        <pt x="10" y="-2" on="0"/>
        <pt x="21" y="0" on="1"/>
        <pt x="42" y="5" on="0"/>
        <pt x="78" y="12" on="0"/>
        <pt x="98" y="20" on="1"/>
        <pt x="144" y="41" on="0"/>
        <pt x="212" y="115" on="0"/>
        <pt x="263" y="206" on="0"/>
        <pt x="301" y="305" on="0"/>
        <pt x="316" y="349" on="1"/>
        <pt x="329" y="389" on="0"/>
        <pt x="351" y="471" on="0"/>
        <pt x="375" y="552" on="0"/>
        <pt x="402" y="632" on="0"/>
        <pt x="421" y="670" on="1"/>
        <pt x="393" y="653" on="0"/>
        <pt x="336" y="626" on="0"/>
        <pt x="308" y="609" on="1"/>
        <pt x="268" y="583" on="0"/>
        <pt x="191" y="516" on="0"/>
        <pt x="174" y="469" on="1"/>
        <pt x="170" y="459" on="0"/>
        <pt x="168" y="441" on="0"/>
        <pt x="165" y="430" on="1"/>
        <pt x="164" y="426" on="0"/>
        <pt x="156" y="421" on="0"/>
        <pt x="151" y="421" on="1"/>
        <pt x="140" y="421" on="0"/>
        <pt x="135" y="434" on="0"/>
        <pt x="135" y="442" on="1"/>
        <pt x="135" y="481" on="0"/>
        <pt x="168" y="550" on="0"/>
        <pt x="223" y="610" on="0"/>
        <pt x="293" y="661" on="0"/>
        <pt x="368" y="704" on="0"/>
        <pt x="442" y="738" on="0"/>
        <pt x="472" y="752" on="1"/>
        <pt x="474" y="753" on="0"/>
        <pt x="477" y="754" on="0"/>
        <pt x="479" y="754" on="1"/>
        <pt x="486" y="754" on="0"/>
        <pt x="497" y="745" on="0"/>
        <pt x="497" y="738" on="1"/>
        <pt x="497" y="735" on="1"/>
        <pt x="489" y="715" on="0"/>
        <pt x="474" y="676" on="0"/>
        <pt x="467" y="656" on="1"/>
        <pt x="452" y="614" on="0"/>
        <pt x="426" y="529" on="0"/>
        <pt x="413" y="486" on="1"/>
        <pt x="465" y="517" on="0"/>
        <pt x="575" y="567" on="0"/>
        <pt x="627" y="599" on="1"/>
        <pt x="664" y="621" on="0"/>
        <pt x="722" y="677" on="0"/>
        <pt x="750" y="709" on="1"/>
        <pt x="761" y="721" on="0"/>
        <pt x="781" y="749" on="0"/>
        <pt x="792" y="760" on="1"/>
        <pt x="795" y="764" on="0"/>
        <pt x="801" y="764" on="1"/>
        <pt x="805" y="764" on="0"/>
        <pt x="820" y="753" on="0"/>
      </contour>
    </TTGlyph>
    <TTGlyph name="L" xMin="72" yMin="-45" xMax="830" yMax="773">
      <contour>
        <pt x="830" y="58" on="1"/>
        <pt x="830" y="54" on="0"/>
        <pt x="826" y="50" on="1"/>
        <pt x="800" y="22" on="0"/>
        <pt x="735" y="-14" on="0"/>
        <pt x="664" y="-36" on="0"/>
        <pt x="588" y="-45" on="0"/>
        <pt x="552" y="-45" on="1"/>
        <pt x="520" y="-45" on="0"/>
        <pt x="456" y="-40" on="0"/>
        <pt x="424" y="-36" on="1"/>
        <pt x="367" y="-28" on="0"/>
        <pt x="254" y="-18" on="0"/>
        <pt x="196" y="-18" on="1"/>
        <pt x="173" y="-18" on="0"/>
        <pt x="127" y="-20" on="0"/>
        <pt x="104" y="-22" on="1"/>
        <pt x="101" y="-25" on="0"/>
        <pt x="93" y="-31" on="0"/>
        <pt x="88" y="-31" on="1"/>
        <pt x="82" y="-31" on="0"/>
        <pt x="72" y="-21" on="0"/>
        <pt x="72" y="-14" on="1"/>
        <pt x="72" y="-11" on="0"/>
        <pt x="73" y="-9" on="1"/>
        <pt x="73" y="-8" on="0"/>
        <pt x="72" y="-7" on="0"/>
        <pt x="72" y="-5" on="1"/>
        <pt x="72" y="2" on="0"/>
        <pt x="82" y="7" on="0"/>
        <pt x="87" y="9" on="1"/>
        <pt x="118" y="50" on="0"/>
        <pt x="171" y="140" on="0"/>
        <pt x="216" y="233" on="0"/>
        <pt x="257" y="328" on="0"/>
        <pt x="277" y="376" on="1"/>
        <pt x="304" y="438" on="0"/>
        <pt x="367" y="561" on="0"/>
        <pt x="449" y="669" on="0"/>
        <pt x="555" y="752" on="0"/>
        <pt x="624" y="773" on="1"/>
        <pt x="626" y="773" on="1"/>
        <pt x="631" y="773" on="0"/>
        <pt x="640" y="761" on="0"/>
        <pt x="640" y="756" on="1"/>
        <pt x="640" y="748" on="0"/>
        <pt x="633" y="744" on="1"/>
        <pt x="613" y="734" on="0"/>
        <pt x="579" y="720" on="0"/>
        <pt x="559" y="706" on="1"/>
        <pt x="515" y="676" on="0"/>
        <pt x="445" y="595" on="0"/>
        <pt x="389" y="503" on="0"/>
        <pt x="344" y="404" on="0"/>
        <pt x="324" y="356" on="1"/>
        <pt x="306" y="314" on="0"/>
        <pt x="273" y="228" on="0"/>
        <pt x="235" y="144" on="0"/>
        <pt x="188" y="65" on="0"/>
        <pt x="158" y="30" on="1"/>
        <pt x="195" y="36" on="0"/>
        <pt x="234" y="36" on="1"/>
        <pt x="277" y="36" on="0"/>
        <pt x="364" y="25" on="0"/>
        <pt x="450" y="13" on="0"/>
        <pt x="536" y="2" on="0"/>
        <pt x="580" y="2" on="1"/>
        <pt x="630" y="2" on="0"/>
        <pt x="726" y="20" on="0"/>
        <pt x="770" y="46" on="1"/>
        <pt x="780" y="52" on="0"/>
        <pt x="797" y="65" on="0"/>
        <pt x="807" y="72" on="1"/>
        <pt x="810" y="75" on="0"/>
        <pt x="814" y="75" on="1"/>
        <pt x="819" y="75" on="0"/>
        <pt x="830" y="63" on="0"/>
      </contour>
    </TTGlyph>
    <TTGlyph name="Lslash" xMin="72" yMin="-45" xMax="830" yMax="773">
      <contour>
        <pt x="830" y="58" on="1"/>
        <pt x="830" y="54" on="0"/>
        <pt x="826" y="50" on="1"/>
        <pt x="800" y="22" on="0"/>
        <pt x="735" y="-14" on="0"/>
        <pt x="664" y="-36" on="0"/>
        <pt x="588" y="-45" on="0"/>
        <pt x="552" y="-45" on="1"/>
        <pt x="520" y="-45" on="0"/>
        <pt x="456" y="-40" on="0"/>
        <pt x="424" y="-36" on="1"/>
        <pt x="367" y="-28" on="0"/>
        <pt x="254" y="-18" on="0"/>
        <pt x="196" y="-18" on="1"/>
        <pt x="173" y="-18" on="0"/>
        <pt x="127" y="-20" on="0"/>
        <pt x="104" y="-22" on="1"/>
        <pt x="101" y="-25" on="0"/>
        <pt x="93" y="-31" on="0"/>
        <pt x="88" y="-31" on="1"/>
        <pt x="82" y="-31" on="0"/>
        <pt x="72" y="-21" on="0"/>
        <pt x="72" y="-14" on="1"/>
        <pt x="72" y="-11" on="0"/>
        <pt x="73" y="-9" on="1"/>
        <pt x="73" y="-8" on="0"/>
        <pt x="72" y="-7" on="0"/>
        <pt x="72" y="-5" on="1"/>
        <pt x="72" y="2" on="0"/>
        <pt x="82" y="7" on="0"/>
        <pt x="87" y="9" on="1"/>
        <pt x="118" y="50" on="0"/>
        <pt x="170" y="139" on="0"/>
        <pt x="215" y="232" on="0"/>
        <pt x="256" y="327" on="0"/>
        <pt x="276" y="374" on="1"/>
        <pt x="264" y="368" on="1"/>
        <pt x="245" y="358" on="0"/>
        <pt x="201" y="344" on="0"/>
        <pt x="179" y="344" on="1"/>
        <pt x="174" y="344" on="0"/>
        <pt x="165" y="356" on="0"/>
        <pt x="165" y="362" on="1"/>
        <pt x="165" y="363" on="0"/>
        <pt x="166" y="369" on="0"/>
        <pt x="167" y="371" on="1"/>
        <pt x="178" y="383" on="0"/>
        <pt x="217" y="406" on="0"/>
        <pt x="232" y="413" on="1"/>
        <pt x="240" y="418" on="0"/>
        <pt x="283" y="437" on="0"/>
        <pt x="310" y="450" on="1"/>
        <pt x="335" y="503" on="0"/>
        <pt x="395" y="604" on="0"/>
        <pt x="471" y="689" on="0"/>
        <pt x="565" y="755" on="0"/>
        <pt x="624" y="773" on="1"/>
        <pt x="626" y="773" on="1"/>
        <pt x="631" y="773" on="0"/>
        <pt x="640" y="761" on="0"/>
        <pt x="640" y="756" on="1"/>
        <pt x="640" y="748" on="0"/>
        <pt x="633" y="744" on="1"/>
        <pt x="613" y="734" on="0"/>
        <pt x="579" y="720" on="0"/>
        <pt x="559" y="706" on="1"/>
        <pt x="499" y="666" on="0"/>
        <pt x="413" y="547" on="0"/>
        <pt x="380" y="481" on="1"/>
        <pt x="414" y="496" on="0"/>
        <pt x="464" y="517" on="0"/>
        <pt x="469" y="517" on="1"/>
        <pt x="475" y="517" on="0"/>
        <pt x="484" y="507" on="0"/>
        <pt x="484" y="502" on="1"/>
        <pt x="484" y="495" on="0"/>
        <pt x="480" y="491" on="1"/>
        <pt x="473" y="486" on="0"/>
        <pt x="458" y="477" on="0"/>
        <pt x="450" y="472" on="1"/>
        <pt x="400" y="440" on="0"/>
        <pt x="348" y="412" on="1"/>
        <pt x="342" y="398" on="0"/>
        <pt x="330" y="370" on="0"/>
        <pt x="324" y="356" on="1"/>
        <pt x="306" y="314" on="0"/>
        <pt x="273" y="228" on="0"/>
        <pt x="235" y="144" on="0"/>
        <pt x="188" y="65" on="0"/>
        <pt x="158" y="30" on="1"/>
        <pt x="195" y="36" on="0"/>
        <pt x="234" y="36" on="1"/>
        <pt x="277" y="36" on="0"/>
        <pt x="364" y="25" on="0"/>
        <pt x="450" y="13" on="0"/>
        <pt x="536" y="2" on="0"/>
        <pt x="580" y="2" on="1"/>
        <pt x="630" y="2" on="0"/>
        <pt x="726" y="20" on="0"/>
        <pt x="770" y="46" on="1"/>
        <pt x="780" y="52" on="0"/>
        <pt x="797" y="65" on="0"/>
        <pt x="807" y="72" on="1"/>
        <pt x="810" y="75" on="0"/>
        <pt x="814" y="75" on="1"/>
        <pt x="819" y="75" on="0"/>
        <pt x="830" y="63" on="0"/>
      </contour>
    </TTGlyph>
    <TTGlyph name="M" xMin="10" yMin="-73" xMax="1018" yMax="756">
      <contour>
        <pt x="1018" y="13" on="1"/>
        <pt x="1018" y="8" on="0"/>
        <pt x="1013" y="3" on="1"/>
        <pt x="1001" y="-8" on="0"/>
        <pt x="963" y="-34" on="0"/>
        <pt x="921" y="-57" on="0"/>
        <pt x="879" y="-73" on="0"/>
        <pt x="863" y="-73" on="1"/>
        <pt x="843" y="-73" on="0"/>
        <pt x="812" y="-57" on="0"/>
        <pt x="788" y="-30" on="0"/>
        <pt x="774" y="4" on="0"/>
        <pt x="772" y="22" on="1"/>
        <pt x="770" y="41" on="0"/>
        <pt x="766" y="78" on="0"/>
        <pt x="766" y="97" on="1"/>
        <pt x="766" y="145" on="0"/>
        <pt x="786" y="272" on="0"/>
        <pt x="816" y="405" on="0"/>
        <pt x="852" y="530" on="0"/>
        <pt x="869" y="576" on="1"/>
        <pt x="846" y="539" on="0"/>
        <pt x="799" y="467" on="0"/>
        <pt x="775" y="432" on="1"/>
        <pt x="754" y="400" on="0"/>
        <pt x="710" y="336" on="0"/>
        <pt x="661" y="274" on="0"/>
        <pt x="606" y="220" on="0"/>
        <pt x="574" y="199" on="1"/>
        <pt x="572" y="198" on="0"/>
        <pt x="568" y="198" on="1"/>
        <pt x="563" y="198" on="0"/>
        <pt x="553" y="206" on="0"/>
        <pt x="551" y="211" on="1"/>
        <pt x="550" y="210" on="1"/>
        <pt x="549" y="210" on="0"/>
        <pt x="549" y="211" on="1"/>
        <pt x="549" y="212" on="0"/>
        <pt x="548" y="213" on="1"/>
        <pt x="538" y="242" on="0"/>
        <pt x="529" y="304" on="0"/>
        <pt x="527" y="335" on="1"/>
        <pt x="525" y="365" on="0"/>
        <pt x="522" y="425" on="0"/>
        <pt x="520" y="455" on="1"/>
        <pt x="516" y="509" on="0"/>
        <pt x="509" y="618" on="0"/>
        <pt x="504" y="673" on="1"/>
        <pt x="470" y="588" on="0"/>
        <pt x="412" y="416" on="0"/>
        <pt x="379" y="330" on="1"/>
        <pt x="355" y="268" on="0"/>
        <pt x="297" y="150" on="0"/>
        <pt x="257" y="97" on="1"/>
        <pt x="236" y="70" on="0"/>
        <pt x="184" y="24" on="0"/>
        <pt x="124" y="-10" on="0"/>
        <pt x="57" y="-29" on="0"/>
        <pt x="23" y="-29" on="1"/>
        <pt x="18" y="-29" on="0"/>
        <pt x="10" y="-19" on="0"/>
        <pt x="10" y="-14" on="1"/>
        <pt x="10" y="-2" on="0"/>
        <pt x="21" y="0" on="1"/>
        <pt x="42" y="5" on="0"/>
        <pt x="79" y="12" on="0"/>
        <pt x="99" y="20" on="1"/>
        <pt x="146" y="41" on="0"/>
        <pt x="217" y="115" on="0"/>
        <pt x="273" y="205" on="0"/>
        <pt x="314" y="303" on="0"/>
        <pt x="331" y="348" on="1"/>
        <pt x="346" y="388" on="0"/>
        <pt x="372" y="470" on="0"/>
        <pt x="399" y="551" on="0"/>
        <pt x="430" y="631" on="0"/>
        <pt x="451" y="669" on="1"/>
        <pt x="423" y="652" on="0"/>
        <pt x="365" y="625" on="0"/>
        <pt x="337" y="608" on="1"/>
        <pt x="316" y="596" on="0"/>
        <pt x="274" y="567" on="0"/>
        <pt x="236" y="532" on="0"/>
        <pt x="205" y="492" on="0"/>
        <pt x="196" y="469" on="1"/>
        <pt x="192" y="459" on="0"/>
        <pt x="188" y="440" on="0"/>
        <pt x="185" y="430" on="1"/>
        <pt x="184" y="425" on="0"/>
        <pt x="176" y="420" on="0"/>
        <pt x="172" y="420" on="1"/>
        <pt x="168" y="420" on="0"/>
        <pt x="156" y="428" on="0"/>
        <pt x="156" y="432" on="1"/>
        <pt x="156" y="469" on="0"/>
        <pt x="182" y="533" on="0"/>
        <pt x="226" y="588" on="0"/>
        <pt x="281" y="634" on="0"/>
        <pt x="310" y="652" on="1"/>
        <pt x="356" y="681" on="0"/>
        <pt x="458" y="736" on="0"/>
        <pt x="509" y="753" on="1"/>
        <pt x="511" y="753" on="1"/>
        <pt x="521" y="753" on="0"/>
        <pt x="526" y="745" on="1"/>
        <pt x="529" y="743" on="0"/>
        <pt x="531" y="735" on="0"/>
        <pt x="529" y="732" on="1"/>
        <pt x="546" y="665" on="0"/>
        <pt x="564" y="528" on="0"/>
        <pt x="571" y="459" on="1"/>
        <pt x="576" y="409" on="0"/>
        <pt x="585" y="312" on="0"/>
        <pt x="582" y="262" on="1"/>
        <pt x="620" y="312" on="0"/>
        <pt x="698" y="409" on="0"/>
        <pt x="733" y="460" on="1"/>
        <pt x="772" y="516" on="0"/>
        <pt x="848" y="625" on="0"/>
        <pt x="888" y="679" on="1"/>
        <pt x="902" y="697" on="0"/>
        <pt x="931" y="735" on="0"/>
        <pt x="946" y="752" on="1"/>
        <pt x="950" y="756" on="0"/>
        <pt x="955" y="756" on="1"/>
        <pt x="961" y="756" on="0"/>
        <pt x="975" y="743" on="0"/>
        <pt x="975" y="737" on="1"/>
        <pt x="975" y="735" on="1"/>
        <pt x="944" y="623" on="0"/>
        <pt x="870" y="407" on="0"/>
        <pt x="844" y="293" on="1"/>
        <pt x="832" y="239" on="0"/>
        <pt x="813" y="132" on="0"/>
        <pt x="813" y="78" on="1"/>
        <pt x="813" y="64" on="0"/>
        <pt x="815" y="26" on="0"/>
        <pt x="825" y="-9" on="0"/>
        <pt x="846" y="-33" on="0"/>
        <pt x="866" y="-33" on="1"/>
        <pt x="884" y="-33" on="0"/>
        <pt x="928" y="-14" on="0"/>
        <pt x="969" y="10" on="0"/>
        <pt x="999" y="29" on="0"/>
        <pt x="1002" y="29" on="1"/>
        <pt x="1008" y="29" on="0"/>
        <pt x="1018" y="19" on="0"/>
      </contour>
    </TTGlyph>
    <TTGlyph name="N" xMin="-61" yMin="-29" xMax="1077" yMax="815">
      <contour>
        <pt x="1077" y="800" on="1"/>
        <pt x="1077" y="788" on="0"/>
        <pt x="1065" y="785" on="1"/>
        <pt x="1043" y="780" on="0"/>
        <pt x="1005" y="773" on="0"/>
        <pt x="983" y="764" on="1"/>
        <pt x="933" y="742" on="0"/>
        <pt x="858" y="663" on="0"/>
        <pt x="799" y="567" on="0"/>
        <pt x="756" y="463" on="0"/>
        <pt x="738" y="415" on="1"/>
        <pt x="720" y="367" on="0"/>
        <pt x="684" y="252" on="0"/>
        <pt x="643" y="137" on="0"/>
        <pt x="592" y="31" on="0"/>
        <pt x="558" y="-8" on="1"/>
        <pt x="555" y="-11" on="0"/>
        <pt x="546" y="-13" on="0"/>
        <pt x="541" y="-13" on="1"/>
        <pt x="532" y="-13" on="0"/>
        <pt x="529" y="-5" on="1"/>
        <pt x="514" y="33" on="0"/>
        <pt x="499" y="124" on="0"/>
        <pt x="494" y="165" on="1"/>
        <pt x="479" y="295" on="0"/>
        <pt x="460" y="554" on="0"/>
        <pt x="436" y="682" on="1"/>
        <pt x="401" y="594" on="0"/>
        <pt x="341" y="418" on="0"/>
        <pt x="307" y="330" on="1"/>
        <pt x="283" y="268" on="0"/>
        <pt x="226" y="150" on="0"/>
        <pt x="185" y="97" on="1"/>
        <pt x="164" y="70" on="0"/>
        <pt x="112" y="24" on="0"/>
        <pt x="52" y="-10" on="0"/>
        <pt x="-14" y="-29" on="0"/>
        <pt x="-49" y="-29" on="1"/>
        <pt x="-54" y="-29" on="0"/>
        <pt x="-61" y="-19" on="0"/>
        <pt x="-61" y="-14" on="1"/>
        <pt x="-61" y="-2" on="0"/>
        <pt x="-50" y="0" on="1"/>
        <pt x="-30" y="5" on="0"/>
        <pt x="7" y="12" on="0"/>
        <pt x="27" y="20" on="1"/>
        <pt x="74" y="41" on="0"/>
        <pt x="145" y="115" on="0"/>
        <pt x="201" y="205" on="0"/>
        <pt x="242" y="303" on="0"/>
        <pt x="259" y="348" on="1"/>
        <pt x="274" y="388" on="0"/>
        <pt x="301" y="470" on="0"/>
        <pt x="328" y="551" on="0"/>
        <pt x="359" y="631" on="0"/>
        <pt x="379" y="669" on="1"/>
        <pt x="351" y="652" on="0"/>
        <pt x="293" y="625" on="0"/>
        <pt x="265" y="608" on="1"/>
        <pt x="225" y="584" on="0"/>
        <pt x="146" y="518" on="0"/>
        <pt x="126" y="473" on="1"/>
        <pt x="121" y="462" on="0"/>
        <pt x="117" y="441" on="0"/>
        <pt x="114" y="430" on="1"/>
        <pt x="111" y="420" on="0"/>
        <pt x="100" y="420" on="1"/>
        <pt x="97" y="420" on="0"/>
        <pt x="84" y="428" on="0"/>
        <pt x="84" y="432" on="1"/>
        <pt x="84" y="469" on="0"/>
        <pt x="110" y="533" on="0"/>
        <pt x="154" y="588" on="0"/>
        <pt x="210" y="634" on="0"/>
        <pt x="239" y="652" on="1"/>
        <pt x="286" y="681" on="0"/>
        <pt x="385" y="735" on="0"/>
        <pt x="437" y="753" on="1"/>
        <pt x="439" y="753" on="1"/>
        <pt x="447" y="753" on="0"/>
        <pt x="460" y="741" on="0"/>
        <pt x="458" y="733" on="1"/>
        <pt x="487" y="636" on="0"/>
        <pt x="517" y="440" on="0"/>
        <pt x="529" y="340" on="1"/>
        <pt x="537" y="272" on="0"/>
        <pt x="553" y="137" on="0"/>
        <pt x="557" y="68" on="1"/>
        <pt x="594" y="159" on="0"/>
        <pt x="655" y="342" on="0"/>
        <pt x="690" y="433" on="1"/>
        <pt x="716" y="499" on="0"/>
        <pt x="776" y="624" on="0"/>
        <pt x="818" y="680" on="1"/>
        <pt x="840" y="708" on="0"/>
        <pt x="895" y="757" on="0"/>
        <pt x="958" y="794" on="0"/>
        <pt x="1028" y="815" on="0"/>
        <pt x="1064" y="815" on="1"/>
        <pt x="1069" y="815" on="0"/>
        <pt x="1077" y="805" on="0"/>
      </contour>
    </TTGlyph>
    <TTGlyph name="Ntilde" xMin="-61" yMin="-29" xMax="1077" yMax="879">
      <component glyphName="N" x="0" y="0" flags="0x204"/>
      <component glyphName="tilde" x="72" y="174" flags="0x4"/>
    </TTGlyph>
    <TTGlyph name="O" xMin="92" yMin="-30" xMax="742" yMax="778">
      <contour>
        <pt x="742" y="566" on="1"/>
        <pt x="742" y="506" on="0"/>
        <pt x="712" y="394" on="0"/>
        <pt x="662" y="290" on="0"/>
        <pt x="595" y="192" on="0"/>
        <pt x="559" y="147" on="1"/>
        <pt x="535" y="117" on="0"/>
        <pt x="470" y="55" on="0"/>
        <pt x="396" y="3" on="0"/>
        <pt x="315" y="-30" on="0"/>
        <pt x="275" y="-30" on="1"/>
        <pt x="242" y="-30" on="0"/>
        <pt x="180" y="-9" on="0"/>
        <pt x="130" y="29" on="0"/>
        <pt x="97" y="84" on="0"/>
        <pt x="94" y="119" on="1"/>
        <pt x="93" y="128" on="0"/>
        <pt x="92" y="147" on="0"/>
        <pt x="92" y="156" on="1"/>
        <pt x="92" y="207" on="0"/>
        <pt x="114" y="303" on="0"/>
        <pt x="151" y="395" on="0"/>
        <pt x="200" y="481" on="0"/>
        <pt x="227" y="523" on="1"/>
        <pt x="245" y="549" on="0"/>
        <pt x="280" y="603" on="0"/>
        <pt x="300" y="629" on="1"/>
        <pt x="306" y="635" on="0"/>
        <pt x="312" y="635" on="1"/>
        <pt x="318" y="635" on="0"/>
        <pt x="327" y="626" on="0"/>
        <pt x="327" y="620" on="1"/>
        <pt x="327" y="617" on="0"/>
        <pt x="325" y="611" on="1"/>
        <pt x="293" y="561" on="0"/>
        <pt x="226" y="456" on="0"/>
        <pt x="171" y="345" on="0"/>
        <pt x="136" y="228" on="0"/>
        <pt x="136" y="165" on="1"/>
        <pt x="136" y="155" on="0"/>
        <pt x="136" y="136" on="0"/>
        <pt x="138" y="125" on="1"/>
        <pt x="141" y="99" on="0"/>
        <pt x="165" y="60" on="0"/>
        <pt x="201" y="32" on="0"/>
        <pt x="247" y="18" on="0"/>
        <pt x="271" y="18" on="1"/>
        <pt x="306" y="18" on="0"/>
        <pt x="377" y="49" on="0"/>
        <pt x="442" y="96" on="0"/>
        <pt x="499" y="153" on="0"/>
        <pt x="520" y="179" on="1"/>
        <pt x="552" y="219" on="0"/>
        <pt x="612" y="310" on="0"/>
        <pt x="659" y="408" on="0"/>
        <pt x="687" y="512" on="0"/>
        <pt x="687" y="565" on="1"/>
        <pt x="687" y="599" on="0"/>
        <pt x="669" y="660" on="0"/>
        <pt x="632" y="705" on="0"/>
        <pt x="577" y="731" on="0"/>
        <pt x="540" y="731" on="1"/>
        <pt x="496" y="731" on="0"/>
        <pt x="419" y="701" on="0"/>
        <pt x="382" y="679" on="1"/>
        <pt x="378" y="677" on="0"/>
        <pt x="374" y="677" on="1"/>
        <pt x="367" y="677" on="0"/>
        <pt x="358" y="686" on="0"/>
        <pt x="358" y="692" on="1"/>
        <pt x="358" y="698" on="0"/>
        <pt x="364" y="704" on="1"/>
        <pt x="402" y="736" on="0"/>
        <pt x="503" y="778" on="0"/>
        <pt x="552" y="778" on="1"/>
        <pt x="598" y="778" on="0"/>
        <pt x="669" y="744" on="0"/>
        <pt x="717" y="686" on="0"/>
        <pt x="742" y="609" on="0"/>
      </contour>
    </TTGlyph>
    <TTGlyph name="OE" xMin="92" yMin="-31" xMax="1200" yMax="848">
      <contour>
        <pt x="1200" y="830" on="1"/>
        <pt x="1200" y="827" on="0"/>
        <pt x="1196" y="821" on="1"/>
        <pt x="1164" y="789" on="0"/>
        <pt x="1071" y="750" on="0"/>
        <pt x="1027" y="742" on="1"/>
        <pt x="986" y="734" on="0"/>
        <pt x="902" y="729" on="0"/>
        <pt x="818" y="726" on="0"/>
        <pt x="734" y="721" on="0"/>
        <pt x="693" y="714" on="1"/>
        <pt x="719" y="682" on="0"/>
        <pt x="742" y="608" on="0"/>
        <pt x="742" y="567" on="1"/>
        <pt x="742" y="488" on="0"/>
        <pt x="714" y="409" on="1"/>
        <pt x="734" y="409" on="1"/>
        <pt x="759" y="409" on="0"/>
        <pt x="808" y="414" on="0"/>
        <pt x="831" y="420" on="1"/>
        <pt x="834" y="421" on="0"/>
        <pt x="847" y="425" on="0"/>
        <pt x="861" y="429" on="0"/>
        <pt x="872" y="433" on="0"/>
        <pt x="873" y="433" on="1"/>
        <pt x="878" y="433" on="0"/>
        <pt x="890" y="419" on="0"/>
        <pt x="890" y="415" on="1"/>
        <pt x="890" y="410" on="0"/>
        <pt x="885" y="405" on="1"/>
        <pt x="845" y="380" on="0"/>
        <pt x="741" y="358" on="0"/>
        <pt x="694" y="360" on="1"/>
        <pt x="677" y="324" on="0"/>
        <pt x="632" y="245" on="0"/>
        <pt x="578" y="170" on="0"/>
        <pt x="520" y="101" on="0"/>
        <pt x="490" y="74" on="1"/>
        <pt x="521" y="73" on="0"/>
        <pt x="582" y="63" on="0"/>
        <pt x="644" y="52" on="0"/>
        <pt x="705" y="43" on="0"/>
        <pt x="736" y="43" on="1"/>
        <pt x="752" y="43" on="0"/>
        <pt x="782" y="45" on="0"/>
        <pt x="797" y="48" on="1"/>
        <pt x="846" y="58" on="0"/>
        <pt x="914" y="107" on="0"/>
        <pt x="949" y="141" on="1"/>
        <pt x="951" y="143" on="0"/>
        <pt x="955" y="145" on="0"/>
        <pt x="958" y="145" on="1"/>
        <pt x="963" y="145" on="0"/>
        <pt x="974" y="134" on="0"/>
        <pt x="974" y="128" on="1"/>
        <pt x="974" y="124" on="0"/>
        <pt x="972" y="122" on="1"/>
        <pt x="927" y="59" on="0"/>
        <pt x="799" y="-5" on="0"/>
        <pt x="722" y="-5" on="1"/>
        <pt x="692" y="-5" on="0"/>
        <pt x="631" y="2" on="0"/>
        <pt x="571" y="11" on="0"/>
        <pt x="511" y="19" on="0"/>
        <pt x="480" y="19" on="1"/>
        <pt x="463" y="19" on="0"/>
        <pt x="429" y="17" on="0"/>
        <pt x="412" y="14" on="1"/>
        <pt x="383" y="-3" on="0"/>
        <pt x="309" y="-31" on="0"/>
        <pt x="275" y="-31" on="1"/>
        <pt x="242" y="-31" on="0"/>
        <pt x="179" y="-10" on="0"/>
        <pt x="130" y="29" on="0"/>
        <pt x="97" y="85" on="0"/>
        <pt x="94" y="119" on="1"/>
        <pt x="93" y="128" on="0"/>
        <pt x="92" y="147" on="0"/>
        <pt x="92" y="156" on="1"/>
        <pt x="92" y="207" on="0"/>
        <pt x="114" y="303" on="0"/>
        <pt x="151" y="395" on="0"/>
        <pt x="200" y="481" on="0"/>
        <pt x="227" y="523" on="1"/>
        <pt x="243" y="546" on="0"/>
        <pt x="283" y="607" on="0"/>
        <pt x="300" y="629" on="1"/>
        <pt x="306" y="635" on="0"/>
        <pt x="312" y="635" on="1"/>
        <pt x="318" y="635" on="0"/>
        <pt x="327" y="626" on="0"/>
        <pt x="327" y="620" on="1"/>
        <pt x="327" y="617" on="0"/>
        <pt x="325" y="611" on="1"/>
        <pt x="293" y="561" on="0"/>
        <pt x="226" y="456" on="0"/>
        <pt x="171" y="345" on="0"/>
        <pt x="136" y="228" on="0"/>
        <pt x="136" y="166" on="1"/>
        <pt x="136" y="155" on="0"/>
        <pt x="136" y="136" on="0"/>
        <pt x="138" y="125" on="1"/>
        <pt x="141" y="100" on="0"/>
        <pt x="165" y="60" on="0"/>
        <pt x="201" y="33" on="0"/>
        <pt x="247" y="18" on="0"/>
        <pt x="271" y="18" on="1"/>
        <pt x="286" y="18" on="0"/>
        <pt x="301" y="21" on="1"/>
        <pt x="323" y="38" on="0"/>
        <pt x="374" y="61" on="0"/>
        <pt x="401" y="67" on="1"/>
        <pt x="437" y="92" on="0"/>
        <pt x="506" y="161" on="0"/>
        <pt x="567" y="240" on="0"/>
        <pt x="618" y="324" on="0"/>
        <pt x="636" y="363" on="1"/>
        <pt x="597" y="363" on="0"/>
        <pt x="537" y="339" on="0"/>
        <pt x="502" y="325" on="1"/>
        <pt x="502" y="324" on="0"/>
        <pt x="500" y="324" on="1"/>
        <pt x="493" y="324" on="0"/>
        <pt x="482" y="337" on="0"/>
        <pt x="482" y="343" on="1"/>
        <pt x="482" y="346" on="0"/>
        <pt x="483" y="346" on="1"/>
        <pt x="492" y="365" on="0"/>
        <pt x="525" y="392" on="0"/>
        <pt x="565" y="409" on="0"/>
        <pt x="607" y="417" on="0"/>
        <pt x="627" y="417" on="1"/>
        <pt x="635" y="417" on="0"/>
        <pt x="650" y="416" on="0"/>
        <pt x="658" y="415" on="1"/>
        <pt x="672" y="451" on="0"/>
        <pt x="687" y="526" on="0"/>
        <pt x="687" y="565" on="1"/>
        <pt x="687" y="602" on="0"/>
        <pt x="663" y="673" on="0"/>
        <pt x="634" y="699" on="1"/>
        <pt x="599" y="688" on="0"/>
        <pt x="537" y="650" on="0"/>
        <pt x="512" y="622" on="1"/>
        <pt x="505" y="614" on="0"/>
        <pt x="495" y="596" on="0"/>
        <pt x="488" y="588" on="1"/>
        <pt x="485" y="583" on="0"/>
        <pt x="478" y="583" on="1"/>
        <pt x="473" y="583" on="0"/>
        <pt x="461" y="592" on="0"/>
        <pt x="461" y="598" on="1"/>
        <pt x="461" y="601" on="0"/>
        <pt x="462" y="603" on="1"/>
        <pt x="482" y="645" on="0"/>
        <pt x="545" y="705" on="0"/>
        <pt x="585" y="725" on="1"/>
        <pt x="562" y="731" on="0"/>
        <pt x="539" y="731" on="1"/>
        <pt x="496" y="731" on="0"/>
        <pt x="419" y="700" on="0"/>
        <pt x="382" y="679" on="1"/>
        <pt x="378" y="677" on="0"/>
        <pt x="374" y="677" on="1"/>
        <pt x="367" y="677" on="0"/>
        <pt x="358" y="686" on="0"/>
        <pt x="358" y="692" on="1"/>
        <pt x="358" y="698" on="0"/>
        <pt x="364" y="704" on="1"/>
        <pt x="382" y="720" on="0"/>
        <pt x="427" y="747" on="0"/>
        <pt x="477" y="767" on="0"/>
        <pt x="528" y="778" on="0"/>
        <pt x="552" y="778" on="1"/>
        <pt x="578" y="778" on="0"/>
        <pt x="629" y="765" on="0"/>
        <pt x="652" y="751" on="1"/>
        <pt x="699" y="765" on="0"/>
        <pt x="795" y="776" on="0"/>
        <pt x="843" y="778" on="1"/>
        <pt x="888" y="780" on="0"/>
        <pt x="973" y="788" on="0"/>
        <pt x="1056" y="804" on="0"/>
        <pt x="1138" y="828" on="0"/>
        <pt x="1179" y="847" on="1"/>
        <pt x="1180" y="847" on="0"/>
        <pt x="1182" y="848" on="0"/>
        <pt x="1183" y="848" on="1"/>
        <pt x="1190" y="848" on="0"/>
        <pt x="1200" y="836" on="0"/>
      </contour>
    </TTGlyph>
    <TTGlyph name="Oacute" xMin="92" yMin="-30" xMax="742" yMax="947">
      <component glyphName="O" x="0" y="0" flags="0x204"/>
      <component glyphName="acute" x="72" y="236" flags="0x4"/>
    </TTGlyph>
    <TTGlyph name="Ocircumflex" xMin="92" yMin="-30" xMax="781" yMax="966">
      <component glyphName="O" x="0" y="0" flags="0x204"/>
      <component glyphName="circumflex" x="51" y="256" flags="0x4"/>
    </TTGlyph>
    <TTGlyph name="Odieresis" xMin="92" yMin="-30" xMax="742" yMax="910">
      <component glyphName="O" x="0" y="0" flags="0x204"/>
      <component glyphName="dieresis" x="41" y="225" flags="0x4"/>
    </TTGlyph>
    <TTGlyph name="Ograve" xMin="92" yMin="-30" xMax="742" yMax="961">
      <component glyphName="O" x="0" y="0" flags="0x204"/>
      <component glyphName="grave" x="31" y="246" flags="0x4"/>
    </TTGlyph>
    <TTGlyph name="Oslash" xMin="-15" yMin="-85" xMax="792" yMax="829">
      <contour>
        <pt x="792" y="814" on="1"/>
        <pt x="792" y="810" on="0"/>
        <pt x="774" y="776" on="0"/>
        <pt x="752" y="737" on="0"/>
        <pt x="730" y="702" on="0"/>
        <pt x="727" y="696" on="1"/>
        <pt x="747" y="665" on="0"/>
        <pt x="763" y="601" on="0"/>
        <pt x="763" y="566" on="1"/>
        <pt x="763" y="506" on="0"/>
        <pt x="733" y="394" on="0"/>
        <pt x="682" y="289" on="0"/>
        <pt x="615" y="192" on="0"/>
        <pt x="579" y="147" on="1"/>
        <pt x="555" y="117" on="0"/>
        <pt x="491" y="54" on="0"/>
        <pt x="416" y="3" on="0"/>
        <pt x="335" y="-30" on="0"/>
        <pt x="295" y="-30" on="1"/>
        <pt x="253" y="-30" on="0"/>
        <pt x="173" y="4" on="0"/>
        <pt x="147" y="37" on="1"/>
        <pt x="113" y="7" on="0"/>
        <pt x="44" y="-54" on="0"/>
        <pt x="8" y="-82" on="1"/>
        <pt x="5" y="-85" on="0"/>
        <pt x="0" y="-85" on="1"/>
        <pt x="-6" y="-85" on="0"/>
        <pt x="-15" y="-75" on="0"/>
        <pt x="-15" y="-69" on="1"/>
        <pt x="-15" y="-63" on="0"/>
        <pt x="-11" y="-60" on="1"/>
        <pt x="0" y="-49" on="0"/>
        <pt x="22" y="-29" on="0"/>
        <pt x="33" y="-18" on="1"/>
        <pt x="56" y="4" on="0"/>
        <pt x="103" y="48" on="0"/>
        <pt x="126" y="71" on="1"/>
        <pt x="117" y="91" on="0"/>
        <pt x="113" y="135" on="0"/>
        <pt x="113" y="157" on="1"/>
        <pt x="113" y="208" on="0"/>
        <pt x="135" y="304" on="0"/>
        <pt x="172" y="395" on="0"/>
        <pt x="221" y="481" on="0"/>
        <pt x="248" y="523" on="1"/>
        <pt x="265" y="548" on="0"/>
        <pt x="303" y="606" on="0"/>
        <pt x="321" y="629" on="1"/>
        <pt x="327" y="635" on="0"/>
        <pt x="333" y="635" on="1"/>
        <pt x="339" y="635" on="0"/>
        <pt x="348" y="626" on="0"/>
        <pt x="348" y="620" on="1"/>
        <pt x="348" y="615" on="0"/>
        <pt x="345" y="611" on="1"/>
        <pt x="312" y="558" on="0"/>
        <pt x="245" y="455" on="0"/>
        <pt x="217" y="398" on="1"/>
        <pt x="191" y="344" on="0"/>
        <pt x="156" y="228" on="0"/>
        <pt x="156" y="167" on="1"/>
        <pt x="156" y="152" on="0"/>
        <pt x="158" y="121" on="0"/>
        <pt x="162" y="106" on="1"/>
        <pt x="234" y="177" on="0"/>
        <pt x="370" y="322" on="0"/>
        <pt x="435" y="399" on="1"/>
        <pt x="496" y="470" on="0"/>
        <pt x="606" y="617" on="0"/>
        <pt x="662" y="692" on="1"/>
        <pt x="642" y="713" on="0"/>
        <pt x="589" y="731" on="0"/>
        <pt x="560" y="731" on="1"/>
        <pt x="517" y="731" on="0"/>
        <pt x="440" y="700" on="0"/>
        <pt x="403" y="679" on="1"/>
        <pt x="397" y="677" on="0"/>
        <pt x="394" y="677" on="1"/>
        <pt x="388" y="677" on="0"/>
        <pt x="379" y="686" on="0"/>
        <pt x="379" y="692" on="1"/>
        <pt x="379" y="699" on="0"/>
        <pt x="385" y="704" on="1"/>
        <pt x="403" y="720" on="0"/>
        <pt x="448" y="747" on="0"/>
        <pt x="497" y="767" on="0"/>
        <pt x="548" y="778" on="0"/>
        <pt x="572" y="778" on="1"/>
        <pt x="607" y="778" on="0"/>
        <pt x="668" y="758" on="0"/>
        <pt x="694" y="734" on="1"/>
        <pt x="711" y="757" on="0"/>
        <pt x="746" y="804" on="0"/>
        <pt x="765" y="824" on="1"/>
        <pt x="770" y="829" on="0"/>
        <pt x="775" y="829" on="1"/>
        <pt x="782" y="829" on="0"/>
        <pt x="792" y="820" on="0"/>
      </contour>
      <contour>
        <pt x="708" y="565" on="1"/>
        <pt x="708" y="586" on="0"/>
        <pt x="701" y="625" on="0"/>
        <pt x="693" y="644" on="1"/>
        <pt x="641" y="567" on="0"/>
        <pt x="519" y="415" on="0"/>
        <pt x="387" y="268" on="0"/>
        <pt x="249" y="130" on="0"/>
        <pt x="181" y="68" on="1"/>
        <pt x="201" y="43" on="0"/>
        <pt x="260" y="18" on="0"/>
        <pt x="292" y="18" on="1"/>
        <pt x="327" y="18" on="0"/>
        <pt x="398" y="49" on="0"/>
        <pt x="463" y="96" on="0"/>
        <pt x="519" y="153" on="0"/>
        <pt x="540" y="179" on="1"/>
        <pt x="572" y="219" on="0"/>
        <pt x="633" y="310" on="0"/>
        <pt x="680" y="408" on="0"/>
        <pt x="708" y="512" on="0"/>
      </contour>
    </TTGlyph>
    <TTGlyph name="Otilde" xMin="92" yMin="-30" xMax="790" yMax="951">
      <component glyphName="O" x="0" y="0" flags="0x204"/>
      <component glyphName="tilde" x="51" y="246" flags="0x4"/>
    </TTGlyph>
    <TTGlyph name="P" xMin="-20" yMin="-9" xMax="777" yMax="768">
      <contour>
        <pt x="777" y="577" on="1"/>
        <pt x="777" y="523" on="0"/>
        <pt x="738" y="427" on="0"/>
        <pt x="672" y="344" on="0"/>
        <pt x="585" y="278" on="0"/>
        <pt x="486" y="232" on="0"/>
        <pt x="382" y="207" on="0"/>
        <pt x="333" y="207" on="1"/>
        <pt x="328" y="207" on="0"/>
        <pt x="314" y="206" on="0"/>
        <pt x="298" y="208" on="0"/>
        <pt x="284" y="211" on="0"/>
        <pt x="281" y="216" on="1"/>
        <pt x="268" y="190" on="0"/>
        <pt x="239" y="139" on="0"/>
        <pt x="221" y="116" on="1"/>
        <pt x="181" y="62" on="0"/>
        <pt x="61" y="-9" on="0"/>
        <pt x="-8" y="-9" on="1"/>
        <pt x="-13" y="-9" on="0"/>
        <pt x="-20" y="1" on="0"/>
        <pt x="-20" y="6" on="1"/>
        <pt x="-20" y="18" on="0"/>
        <pt x="-9" y="20" on="1"/>
        <pt x="11" y="25" on="0"/>
        <pt x="47" y="32" on="0"/>
        <pt x="67" y="40" on="1"/>
        <pt x="113" y="60" on="0"/>
        <pt x="182" y="133" on="0"/>
        <pt x="234" y="223" on="0"/>
        <pt x="272" y="320" on="0"/>
        <pt x="287" y="364" on="1"/>
        <pt x="300" y="404" on="0"/>
        <pt x="323" y="486" on="0"/>
        <pt x="347" y="567" on="0"/>
        <pt x="375" y="647" on="0"/>
        <pt x="394" y="685" on="1"/>
        <pt x="366" y="668" on="0"/>
        <pt x="308" y="641" on="0"/>
        <pt x="280" y="624" on="1"/>
        <pt x="260" y="612" on="0"/>
        <pt x="219" y="583" on="0"/>
        <pt x="183" y="549" on="0"/>
        <pt x="154" y="510" on="0"/>
        <pt x="145" y="487" on="1"/>
        <pt x="141" y="477" on="0"/>
        <pt x="138" y="458" on="0"/>
        <pt x="136" y="447" on="1"/>
        <pt x="134" y="442" on="0"/>
        <pt x="126" y="437" on="0"/>
        <pt x="122" y="437" on="1"/>
        <pt x="111" y="437" on="0"/>
        <pt x="106" y="450" on="0"/>
        <pt x="106" y="458" on="1"/>
        <pt x="106" y="492" on="0"/>
        <pt x="132" y="553" on="0"/>
        <pt x="173" y="606" on="0"/>
        <pt x="226" y="650" on="0"/>
        <pt x="253" y="667" on="1"/>
        <pt x="298" y="696" on="0"/>
        <pt x="398" y="751" on="0"/>
        <pt x="448" y="768" on="1"/>
        <pt x="450" y="768" on="1"/>
        <pt x="456" y="768" on="0"/>
        <pt x="469" y="758" on="0"/>
        <pt x="469" y="751" on="1"/>
        <pt x="469" y="750" on="0"/>
        <pt x="462" y="730" on="0"/>
        <pt x="453" y="706" on="0"/>
        <pt x="444" y="684" on="0"/>
        <pt x="443" y="681" on="1"/>
        <pt x="461" y="698" on="0"/>
        <pt x="505" y="729" on="0"/>
        <pt x="553" y="753" on="0"/>
        <pt x="604" y="767" on="0"/>
        <pt x="630" y="767" on="1"/>
        <pt x="670" y="767" on="0"/>
        <pt x="726" y="733" on="0"/>
        <pt x="761" y="679" on="0"/>
        <pt x="777" y="611" on="0"/>
      </contour>
      <contour>
        <pt x="726" y="576" on="1"/>
        <pt x="726" y="598" on="0"/>
        <pt x="717" y="647" on="0"/>
        <pt x="695" y="686" on="0"/>
        <pt x="658" y="712" on="0"/>
        <pt x="631" y="712" on="1"/>
        <pt x="615" y="712" on="0"/>
        <pt x="583" y="704" on="0"/>
        <pt x="568" y="698" on="1"/>
        <pt x="525" y="681" on="0"/>
        <pt x="451" y="622" on="0"/>
        <pt x="422" y="586" on="1"/>
        <pt x="417" y="580" on="0"/>
        <pt x="406" y="565" on="0"/>
        <pt x="402" y="558" on="1"/>
        <pt x="397" y="547" on="0"/>
        <pt x="386" y="506" on="0"/>
        <pt x="382" y="493" on="1"/>
        <pt x="371" y="457" on="0"/>
        <pt x="347" y="384" on="0"/>
        <pt x="335" y="348" on="1"/>
        <pt x="325" y="320" on="0"/>
        <pt x="304" y="265" on="0"/>
        <pt x="292" y="238" on="1"/>
        <pt x="297" y="240" on="0"/>
        <pt x="307" y="239" on="0"/>
        <pt x="312" y="239" on="1"/>
        <pt x="378" y="239" on="0"/>
        <pt x="523" y="290" on="0"/>
        <pt x="646" y="380" on="0"/>
        <pt x="726" y="503" on="0"/>
      </contour>
    </TTGlyph>
    <TTGlyph name="Q" xMin="87" yMin="-70" xMax="737" yMax="778">
      <contour>
        <pt x="737" y="566" on="1"/>
        <pt x="737" y="506" on="0"/>
        <pt x="707" y="394" on="0"/>
        <pt x="656" y="289" on="0"/>
        <pt x="590" y="192" on="0"/>
        <pt x="554" y="147" on="1"/>
        <pt x="522" y="106" on="0"/>
        <pt x="445" y="36" on="0"/>
        <pt x="400" y="10" on="1"/>
        <pt x="418" y="-12" on="0"/>
        <pt x="460" y="-30" on="0"/>
        <pt x="488" y="-30" on="1"/>
        <pt x="515" y="-30" on="0"/>
        <pt x="547" y="-22" on="1"/>
        <pt x="549" y="-21" on="0"/>
        <pt x="568" y="-15" on="0"/>
        <pt x="569" y="-15" on="1"/>
        <pt x="574" y="-15" on="0"/>
        <pt x="585" y="-28" on="0"/>
        <pt x="585" y="-33" on="1"/>
        <pt x="585" y="-41" on="0"/>
        <pt x="555" y="-55" on="0"/>
        <pt x="517" y="-65" on="0"/>
        <pt x="480" y="-70" on="0"/>
        <pt x="473" y="-70" on="1"/>
        <pt x="436" y="-70" on="0"/>
        <pt x="378" y="-40" on="0"/>
        <pt x="355" y="-11" on="1"/>
        <pt x="334" y="-19" on="0"/>
        <pt x="292" y="-31" on="0"/>
        <pt x="269" y="-31" on="1"/>
        <pt x="236" y="-31" on="0"/>
        <pt x="174" y="-10" on="0"/>
        <pt x="125" y="29" on="0"/>
        <pt x="92" y="85" on="0"/>
        <pt x="89" y="119" on="1"/>
        <pt x="87" y="128" on="0"/>
        <pt x="87" y="146" on="0"/>
        <pt x="87" y="156" on="1"/>
        <pt x="87" y="207" on="0"/>
        <pt x="109" y="303" on="0"/>
        <pt x="146" y="395" on="0"/>
        <pt x="195" y="481" on="0"/>
        <pt x="222" y="523" on="1"/>
        <pt x="239" y="548" on="0"/>
        <pt x="277" y="606" on="0"/>
        <pt x="295" y="629" on="1"/>
        <pt x="301" y="635" on="0"/>
        <pt x="307" y="635" on="1"/>
        <pt x="313" y="635" on="0"/>
        <pt x="322" y="626" on="0"/>
        <pt x="322" y="620" on="1"/>
        <pt x="322" y="617" on="0"/>
        <pt x="320" y="611" on="1"/>
        <pt x="295" y="572" on="0"/>
        <pt x="247" y="498" on="0"/>
        <pt x="203" y="423" on="0"/>
        <pt x="165" y="343" on="0"/>
        <pt x="151" y="298" on="1"/>
        <pt x="202" y="294" on="0"/>
        <pt x="269" y="244" on="0"/>
        <pt x="316" y="171" on="0"/>
        <pt x="352" y="88" on="0"/>
        <pt x="372" y="51" on="1"/>
        <pt x="414" y="75" on="0"/>
        <pt x="485" y="141" on="0"/>
        <pt x="514" y="179" on="1"/>
        <pt x="546" y="219" on="0"/>
        <pt x="607" y="310" on="0"/>
        <pt x="654" y="408" on="0"/>
        <pt x="682" y="512" on="0"/>
        <pt x="682" y="565" on="1"/>
        <pt x="682" y="599" on="0"/>
        <pt x="664" y="660" on="0"/>
        <pt x="627" y="705" on="0"/>
        <pt x="572" y="731" on="0"/>
        <pt x="535" y="731" on="1"/>
        <pt x="491" y="731" on="0"/>
        <pt x="414" y="700" on="0"/>
        <pt x="377" y="679" on="1"/>
        <pt x="373" y="677" on="0"/>
        <pt x="369" y="677" on="1"/>
        <pt x="362" y="677" on="0"/>
        <pt x="353" y="686" on="0"/>
        <pt x="353" y="692" on="1"/>
        <pt x="353" y="698" on="0"/>
        <pt x="359" y="704" on="1"/>
        <pt x="377" y="720" on="0"/>
        <pt x="422" y="747" on="0"/>
        <pt x="472" y="767" on="0"/>
        <pt x="523" y="778" on="0"/>
        <pt x="547" y="778" on="1"/>
        <pt x="593" y="778" on="0"/>
        <pt x="664" y="744" on="0"/>
        <pt x="712" y="686" on="0"/>
        <pt x="737" y="609" on="0"/>
      </contour>
      <contour>
        <pt x="327" y="30" on="1"/>
        <pt x="307" y="63" on="0"/>
        <pt x="275" y="133" on="0"/>
        <pt x="236" y="195" on="0"/>
        <pt x="182" y="246" on="0"/>
        <pt x="141" y="261" on="1"/>
        <pt x="136" y="238" on="0"/>
        <pt x="131" y="190" on="0"/>
        <pt x="131" y="167" on="1"/>
        <pt x="131" y="156" on="0"/>
        <pt x="131" y="136" on="0"/>
        <pt x="133" y="125" on="1"/>
        <pt x="136" y="99" on="0"/>
        <pt x="160" y="60" on="0"/>
        <pt x="196" y="32" on="0"/>
        <pt x="242" y="18" on="0"/>
        <pt x="266" y="18" on="1"/>
        <pt x="283" y="18" on="0"/>
        <pt x="311" y="25" on="0"/>
      </contour>
    </TTGlyph>
    <TTGlyph name="R" xMin="0" yMin="-28" xMax="826" yMax="771">
      <contour>
        <pt x="826" y="50" on="1"/>
        <pt x="826" y="43" on="0"/>
        <pt x="821" y="41" on="1"/>
        <pt x="806" y="29" on="0"/>
        <pt x="765" y="4" on="0"/>
        <pt x="747" y="-4" on="1"/>
        <pt x="727" y="-15" on="0"/>
        <pt x="682" y="-28" on="0"/>
        <pt x="658" y="-28" on="1"/>
        <pt x="613" y="-28" on="0"/>
        <pt x="560" y="22" on="0"/>
        <pt x="527" y="101" on="0"/>
        <pt x="505" y="198" on="0"/>
        <pt x="474" y="292" on="0"/>
        <pt x="427" y="372" on="0"/>
        <pt x="386" y="394" on="1"/>
        <pt x="358" y="320" on="0"/>
        <pt x="294" y="178" on="0"/>
        <pt x="246" y="115" on="1"/>
        <pt x="226" y="88" on="0"/>
        <pt x="174" y="42" on="0"/>
        <pt x="114" y="7" on="0"/>
        <pt x="47" y="-12" on="0"/>
        <pt x="13" y="-12" on="1"/>
        <pt x="7" y="-12" on="0"/>
        <pt x="0" y="-2" on="0"/>
        <pt x="0" y="3" on="1"/>
        <pt x="0" y="16" on="0"/>
        <pt x="11" y="18" on="1"/>
        <pt x="32" y="22" on="0"/>
        <pt x="69" y="29" on="0"/>
        <pt x="89" y="38" on="1"/>
        <pt x="135" y="59" on="0"/>
        <pt x="207" y="133" on="0"/>
        <pt x="262" y="223" on="0"/>
        <pt x="304" y="321" on="0"/>
        <pt x="321" y="366" on="1"/>
        <pt x="344" y="425" on="0"/>
        <pt x="380" y="544" on="0"/>
        <pt x="403" y="603" on="1"/>
        <pt x="403" y="609" on="0"/>
        <pt x="406" y="612" on="1"/>
        <pt x="414" y="632" on="0"/>
        <pt x="431" y="668" on="0"/>
        <pt x="441" y="686" on="1"/>
        <pt x="413" y="670" on="0"/>
        <pt x="355" y="643" on="0"/>
        <pt x="327" y="626" on="1"/>
        <pt x="285" y="600" on="0"/>
        <pt x="204" y="532" on="0"/>
        <pt x="185" y="484" on="1"/>
        <pt x="181" y="475" on="0"/>
        <pt x="178" y="457" on="0"/>
        <pt x="175" y="447" on="1"/>
        <pt x="174" y="443" on="0"/>
        <pt x="166" y="438" on="0"/>
        <pt x="162" y="438" on="1"/>
        <pt x="158" y="438" on="0"/>
        <pt x="145" y="445" on="0"/>
        <pt x="145" y="450" on="1"/>
        <pt x="145" y="487" on="0"/>
        <pt x="172" y="551" on="0"/>
        <pt x="215" y="606" on="0"/>
        <pt x="271" y="651" on="0"/>
        <pt x="300" y="669" on="1"/>
        <pt x="344" y="697" on="0"/>
        <pt x="449" y="754" on="0"/>
        <pt x="498" y="771" on="1"/>
        <pt x="501" y="771" on="1"/>
        <pt x="507" y="771" on="0"/>
        <pt x="520" y="760" on="0"/>
        <pt x="520" y="754" on="1"/>
        <pt x="520" y="752" on="0"/>
        <pt x="512" y="734" on="0"/>
        <pt x="503" y="711" on="0"/>
        <pt x="494" y="690" on="0"/>
        <pt x="493" y="687" on="1"/>
        <pt x="530" y="714" on="0"/>
        <pt x="624" y="757" on="0"/>
        <pt x="672" y="757" on="1"/>
        <pt x="693" y="757" on="0"/>
        <pt x="734" y="744" on="0"/>
        <pt x="765" y="720" on="0"/>
        <pt x="784" y="684" on="0"/>
        <pt x="784" y="660" on="1"/>
        <pt x="784" y="638" on="0"/>
        <pt x="769" y="595" on="0"/>
        <pt x="757" y="577" on="1"/>
        <pt x="707" y="502" on="0"/>
        <pt x="551" y="407" on="0"/>
        <pt x="461" y="398" on="1"/>
        <pt x="488" y="377" on="0"/>
        <pt x="521" y="321" on="0"/>
        <pt x="544" y="259" on="0"/>
        <pt x="558" y="193" on="0"/>
        <pt x="566" y="162" on="1"/>
        <pt x="572" y="139" on="0"/>
        <pt x="583" y="94" on="0"/>
        <pt x="592" y="72" on="1"/>
        <pt x="603" y="46" on="0"/>
        <pt x="637" y="14" on="0"/>
        <pt x="667" y="14" on="1"/>
        <pt x="688" y="14" on="0"/>
        <pt x="736" y="31" on="0"/>
        <pt x="778" y="51" on="0"/>
        <pt x="807" y="68" on="0"/>
        <pt x="810" y="68" on="1"/>
        <pt x="817" y="68" on="0"/>
        <pt x="826" y="57" on="0"/>
      </contour>
      <contour>
        <pt x="734" y="660" on="1"/>
        <pt x="734" y="674" on="0"/>
        <pt x="721" y="693" on="0"/>
        <pt x="700" y="705" on="0"/>
        <pt x="676" y="710" on="0"/>
        <pt x="664" y="710" on="1"/>
        <pt x="639" y="710" on="0"/>
        <pt x="586" y="694" on="0"/>
        <pt x="535" y="670" on="0"/>
        <pt x="488" y="640" on="0"/>
        <pt x="469" y="625" on="1"/>
        <pt x="451" y="577" on="0"/>
        <pt x="418" y="483" on="0"/>
        <pt x="401" y="435" on="1"/>
        <pt x="446" y="442" on="0"/>
        <pt x="535" y="467" on="0"/>
        <pt x="617" y="508" on="0"/>
        <pt x="688" y="566" on="0"/>
        <pt x="714" y="605" on="1"/>
        <pt x="722" y="617" on="0"/>
        <pt x="734" y="645" on="0"/>
      </contour>
    </TTGlyph>
    <TTGlyph name="S" xMin="0" yMin="-14" xMax="725" yMax="785">
      <contour>
        <pt x="725" y="769" on="1"/>
        <pt x="725" y="760" on="0"/>
        <pt x="717" y="755" on="1"/>
        <pt x="696" y="742" on="0"/>
        <pt x="639" y="727" on="0"/>
        <pt x="579" y="718" on="0"/>
        <pt x="520" y="713" on="0"/>
        <pt x="495" y="711" on="1"/>
        <pt x="453" y="708" on="0"/>
        <pt x="363" y="694" on="0"/>
        <pt x="327" y="671" on="1"/>
        <pt x="324" y="669" on="0"/>
        <pt x="312" y="661" on="0"/>
        <pt x="310" y="659" on="1"/>
        <pt x="300" y="648" on="0"/>
        <pt x="290" y="616" on="0"/>
        <pt x="290" y="602" on="1"/>
        <pt x="290" y="571" on="0"/>
        <pt x="322" y="525" on="0"/>
        <pt x="345" y="506" on="1"/>
        <pt x="366" y="489" on="0"/>
        <pt x="407" y="455" on="0"/>
        <pt x="429" y="438" on="1"/>
        <pt x="452" y="420" on="0"/>
        <pt x="500" y="378" on="0"/>
        <pt x="540" y="330" on="0"/>
        <pt x="565" y="274" on="0"/>
        <pt x="565" y="242" on="1"/>
        <pt x="565" y="200" on="0"/>
        <pt x="525" y="127" on="0"/>
        <pt x="499" y="97" on="1"/>
        <pt x="454" y="46" on="0"/>
        <pt x="331" y="-14" on="0"/>
        <pt x="262" y="-14" on="1"/>
        <pt x="214" y="-14" on="0"/>
        <pt x="120" y="17" on="0"/>
        <pt x="46" y="75" on="0"/>
        <pt x="0" y="158" on="0"/>
        <pt x="0" y="211" on="1"/>
        <pt x="0" y="256" on="0"/>
        <pt x="37" y="355" on="0"/>
        <pt x="66" y="390" on="1"/>
        <pt x="72" y="396" on="0"/>
        <pt x="78" y="396" on="1"/>
        <pt x="84" y="396" on="0"/>
        <pt x="93" y="387" on="0"/>
        <pt x="93" y="381" on="1"/>
        <pt x="93" y="376" on="0"/>
        <pt x="90" y="372" on="1"/>
        <pt x="67" y="337" on="0"/>
        <pt x="36" y="261" on="0"/>
        <pt x="36" y="217" on="1"/>
        <pt x="36" y="172" on="0"/>
        <pt x="75" y="103" on="0"/>
        <pt x="138" y="55" on="0"/>
        <pt x="218" y="31" on="0"/>
        <pt x="259" y="31" on="1"/>
        <pt x="322" y="31" on="0"/>
        <pt x="420" y="84" on="0"/>
        <pt x="462" y="129" on="1"/>
        <pt x="484" y="154" on="0"/>
        <pt x="514" y="208" on="0"/>
        <pt x="514" y="243" on="1"/>
        <pt x="514" y="269" on="0"/>
        <pt x="494" y="309" on="0"/>
        <pt x="476" y="328" on="1"/>
        <pt x="457" y="347" on="0"/>
        <pt x="418" y="380" on="0"/>
        <pt x="397" y="397" on="1"/>
        <pt x="377" y="412" on="0"/>
        <pt x="326" y="450" on="0"/>
        <pt x="280" y="493" on="0"/>
        <pt x="244" y="542" on="0"/>
        <pt x="239" y="568" on="1"/>
        <pt x="237" y="576" on="0"/>
        <pt x="236" y="592" on="0"/>
        <pt x="236" y="600" on="1"/>
        <pt x="236" y="633" on="0"/>
        <pt x="258" y="685" on="0"/>
        <pt x="297" y="722" on="0"/>
        <pt x="350" y="746" on="0"/>
        <pt x="381" y="752" on="1"/>
        <pt x="409" y="757" on="0"/>
        <pt x="465" y="758" on="0"/>
        <pt x="493" y="760" on="1"/>
        <pt x="547" y="763" on="0"/>
        <pt x="653" y="767" on="0"/>
        <pt x="705" y="784" on="1"/>
        <pt x="706" y="784" on="0"/>
        <pt x="708" y="785" on="0"/>
        <pt x="710" y="785" on="1"/>
        <pt x="716" y="785" on="0"/>
        <pt x="725" y="775" on="0"/>
      </contour>
    </TTGlyph>
    <TTGlyph name="Scaron" xMin="0" yMin="-14" xMax="725" yMax="966">
      <component glyphName="S" x="0" y="0" flags="0x204"/>
      <component glyphName="caron" x="-60" y="256" flags="0x4"/>
    </TTGlyph>
    <TTGlyph name="T" xMin="77" yMin="-58" xMax="925" yMax="859">
      <contour>
        <pt x="925" y="842" on="1"/>
        <pt x="925" y="836" on="0"/>
        <pt x="922" y="833" on="1"/>
        <pt x="883" y="796" on="0"/>
        <pt x="784" y="755" on="0"/>
        <pt x="677" y="734" on="0"/>
        <pt x="568" y="728" on="0"/>
        <pt x="517" y="726" on="1"/>
        <pt x="511" y="632" on="0"/>
        <pt x="461" y="450" on="0"/>
        <pt x="430" y="361" on="1"/>
        <pt x="404" y="284" on="0"/>
        <pt x="340" y="137" on="0"/>
        <pt x="304" y="65" on="1"/>
        <pt x="290" y="37" on="0"/>
        <pt x="259" y="-26" on="0"/>
        <pt x="243" y="-52" on="1"/>
        <pt x="240" y="-58" on="0"/>
        <pt x="233" y="-58" on="1"/>
        <pt x="227" y="-58" on="0"/>
        <pt x="216" y="-49" on="0"/>
        <pt x="216" y="-42" on="1"/>
        <pt x="216" y="-39" on="1"/>
        <pt x="230" y="-6" on="0"/>
        <pt x="260" y="60" on="0"/>
        <pt x="274" y="94" on="1"/>
        <pt x="303" y="164" on="0"/>
        <pt x="358" y="305" on="0"/>
        <pt x="382" y="377" on="1"/>
        <pt x="411" y="467" on="0"/>
        <pt x="454" y="651" on="0"/>
        <pt x="487" y="739" on="1"/>
        <pt x="488" y="740" on="0"/>
        <pt x="489" y="742" on="0"/>
        <pt x="490" y="743" on="1"/>
        <pt x="446" y="736" on="0"/>
        <pt x="353" y="721" on="0"/>
        <pt x="263" y="694" on="0"/>
        <pt x="181" y="653" on="0"/>
        <pt x="148" y="621" on="1"/>
        <pt x="134" y="607" on="0"/>
        <pt x="115" y="579" on="0"/>
        <pt x="104" y="564" on="1"/>
        <pt x="101" y="558" on="0"/>
        <pt x="94" y="558" on="1"/>
        <pt x="88" y="558" on="0"/>
        <pt x="77" y="566" on="0"/>
        <pt x="77" y="573" on="1"/>
        <pt x="77" y="577" on="0"/>
        <pt x="78" y="578" on="1"/>
        <pt x="111" y="642" on="0"/>
        <pt x="208" y="718" on="0"/>
        <pt x="324" y="758" on="0"/>
        <pt x="452" y="773" on="0"/>
        <pt x="516" y="777" on="1"/>
        <pt x="568" y="780" on="0"/>
        <pt x="666" y="789" on="0"/>
        <pt x="762" y="806" on="0"/>
        <pt x="857" y="835" on="0"/>
        <pt x="904" y="858" on="1"/>
        <pt x="906" y="859" on="0"/>
        <pt x="909" y="859" on="1"/>
        <pt x="916" y="859" on="0"/>
        <pt x="925" y="848" on="0"/>
      </contour>
    </TTGlyph>
    <TTGlyph name="Thorn" xMin="-420" yMin="-451" xMax="377" yMax="792">
      <contour>
        <pt x="377" y="332" on="1"/>
        <pt x="377" y="268" on="0"/>
        <pt x="332" y="149" on="0"/>
        <pt x="297" y="96" on="1"/>
        <pt x="280" y="71" on="0"/>
        <pt x="241" y="24" on="0"/>
        <pt x="195" y="-12" on="0"/>
        <pt x="140" y="-34" on="0"/>
        <pt x="108" y="-34" on="1"/>
        <pt x="104" y="-34" on="0"/>
        <pt x="86" y="-33" on="0"/>
        <pt x="83" y="-32" on="1"/>
        <pt x="68" y="-27" on="0"/>
        <pt x="43" y="-4" on="0"/>
        <pt x="36" y="10" on="1"/>
        <pt x="7" y="-71" on="0"/>
        <pt x="-59" y="-227" on="0"/>
        <pt x="-104" y="-300" on="1"/>
        <pt x="-118" y="-323" on="0"/>
        <pt x="-148" y="-369" on="0"/>
        <pt x="-166" y="-389" on="1"/>
        <pt x="-183" y="-408" on="0"/>
        <pt x="-223" y="-437" on="0"/>
        <pt x="-247" y="-445" on="1"/>
        <pt x="-249" y="-446" on="0"/>
        <pt x="-264" y="-451" on="0"/>
        <pt x="-266" y="-451" on="1"/>
        <pt x="-292" y="-451" on="0"/>
        <pt x="-333" y="-434" on="0"/>
        <pt x="-364" y="-405" on="0"/>
        <pt x="-388" y="-366" on="0"/>
        <pt x="-398" y="-344" on="1"/>
        <pt x="-400" y="-341" on="0"/>
        <pt x="-407" y="-326" on="0"/>
        <pt x="-414" y="-308" on="0"/>
        <pt x="-420" y="-292" on="0"/>
        <pt x="-420" y="-290" on="1"/>
        <pt x="-420" y="-284" on="0"/>
        <pt x="-410" y="-276" on="0"/>
        <pt x="-404" y="-276" on="1"/>
        <pt x="-396" y="-276" on="0"/>
        <pt x="-391" y="-284" on="1"/>
        <pt x="-387" y="-292" on="0"/>
        <pt x="-380" y="-310" on="0"/>
        <pt x="-376" y="-318" on="1"/>
        <pt x="-369" y="-333" on="0"/>
        <pt x="-350" y="-366" on="0"/>
        <pt x="-326" y="-395" on="0"/>
        <pt x="-295" y="-413" on="0"/>
        <pt x="-276" y="-413" on="1"/>
        <pt x="-275" y="-413" on="0"/>
        <pt x="-273" y="-414" on="0"/>
        <pt x="-271" y="-413" on="1"/>
        <pt x="-248" y="-407" on="0"/>
        <pt x="-210" y="-378" on="0"/>
        <pt x="-179" y="-339" on="0"/>
        <pt x="-153" y="-296" on="0"/>
        <pt x="-142" y="-277" on="1"/>
        <pt x="-91" y="-186" on="0"/>
        <pt x="-17" y="6" on="0"/>
        <pt x="16" y="104" on="1"/>
        <pt x="54" y="217" on="0"/>
        <pt x="112" y="445" on="0"/>
        <pt x="139" y="561" on="1"/>
        <pt x="148" y="600" on="0"/>
        <pt x="166" y="677" on="0"/>
        <pt x="176" y="715" on="1"/>
        <pt x="180" y="732" on="0"/>
        <pt x="187" y="765" on="0"/>
        <pt x="192" y="781" on="1"/>
        <pt x="195" y="792" on="0"/>
        <pt x="206" y="792" on="1"/>
        <pt x="222" y="792" on="0"/>
        <pt x="222" y="777" on="1"/>
        <pt x="222" y="757" on="0"/>
        <pt x="213" y="697" on="0"/>
        <pt x="210" y="676" on="1"/>
        <pt x="202" y="614" on="0"/>
        <pt x="178" y="492" on="0"/>
        <pt x="164" y="431" on="1"/>
        <pt x="189" y="444" on="0"/>
        <pt x="245" y="464" on="0"/>
        <pt x="274" y="464" on="1"/>
        <pt x="293" y="464" on="0"/>
        <pt x="327" y="449" on="0"/>
        <pt x="354" y="424" on="0"/>
        <pt x="372" y="390" on="0"/>
        <pt x="375" y="372" on="1"/>
        <pt x="377" y="362" on="0"/>
        <pt x="377" y="342" on="0"/>
      </contour>
      <contour>
        <pt x="332" y="340" on="1"/>
        <pt x="332" y="374" on="0"/>
        <pt x="305" y="424" on="0"/>
        <pt x="266" y="424" on="1"/>
        <pt x="239" y="424" on="0"/>
        <pt x="178" y="402" on="0"/>
        <pt x="154" y="390" on="1"/>
        <pt x="132" y="302" on="0"/>
        <pt x="106" y="220" on="1"/>
        <pt x="102" y="206" on="0"/>
        <pt x="94" y="178" on="0"/>
        <pt x="89" y="164" on="1"/>
        <pt x="87" y="158" on="0"/>
        <pt x="82" y="145" on="0"/>
        <pt x="81" y="140" on="1"/>
        <pt x="78" y="126" on="0"/>
        <pt x="78" y="96" on="0"/>
        <pt x="78" y="82" on="1"/>
        <pt x="78" y="76" on="0"/>
        <pt x="78" y="56" on="0"/>
        <pt x="81" y="38" on="0"/>
        <pt x="89" y="23" on="0"/>
        <pt x="97" y="21" on="1"/>
        <pt x="101" y="20" on="0"/>
        <pt x="109" y="20" on="1"/>
        <pt x="131" y="20" on="0"/>
        <pt x="174" y="40" on="0"/>
        <pt x="212" y="70" on="0"/>
        <pt x="244" y="107" on="0"/>
        <pt x="255" y="124" on="1"/>
        <pt x="286" y="172" on="0"/>
        <pt x="332" y="283" on="0"/>
      </contour>
    </TTGlyph>
    <TTGlyph name="U" xMin="113" yMin="-27" xMax="815" yMax="766">
      <contour>
        <pt x="815" y="748" on="1"/>
        <pt x="798" y="701" on="0"/>
        <pt x="753" y="593" on="0"/>
        <pt x="706" y="477" on="0"/>
        <pt x="661" y="355" on="0"/>
        <pt x="626" y="237" on="0"/>
        <pt x="604" y="124" on="0"/>
        <pt x="604" y="75" on="1"/>
        <pt x="604" y="55" on="0"/>
        <pt x="622" y="17" on="0"/>
        <pt x="645" y="17" on="1"/>
        <pt x="661" y="17" on="0"/>
        <pt x="705" y="35" on="0"/>
        <pt x="746" y="58" on="0"/>
        <pt x="777" y="76" on="0"/>
        <pt x="780" y="76" on="1"/>
        <pt x="786" y="76" on="0"/>
        <pt x="795" y="65" on="0"/>
        <pt x="795" y="59" on="1"/>
        <pt x="795" y="53" on="0"/>
        <pt x="790" y="50" on="1"/>
        <pt x="767" y="30" on="0"/>
        <pt x="699" y="-10" on="0"/>
        <pt x="669" y="-18" on="1"/>
        <pt x="656" y="-22" on="0"/>
        <pt x="640" y="-22" on="1"/>
        <pt x="614" y="-22" on="0"/>
        <pt x="582" y="1" on="0"/>
        <pt x="564" y="37" on="0"/>
        <pt x="558" y="80" on="0"/>
        <pt x="558" y="101" on="1"/>
        <pt x="558" y="116" on="0"/>
        <pt x="561" y="146" on="0"/>
        <pt x="563" y="161" on="1"/>
        <pt x="545" y="134" on="0"/>
        <pt x="492" y="68" on="0"/>
        <pt x="429" y="11" on="0"/>
        <pt x="358" y="-27" on="0"/>
        <pt x="323" y="-27" on="1"/>
        <pt x="293" y="-27" on="0"/>
        <pt x="256" y="-2" on="0"/>
        <pt x="236" y="37" on="0"/>
        <pt x="229" y="85" on="0"/>
        <pt x="229" y="109" on="1"/>
        <pt x="229" y="141" on="0"/>
        <pt x="238" y="202" on="0"/>
        <pt x="245" y="232" on="1"/>
        <pt x="271" y="350" on="0"/>
        <pt x="347" y="576" on="0"/>
        <pt x="404" y="683" on="1"/>
        <pt x="375" y="666" on="0"/>
        <pt x="316" y="638" on="0"/>
        <pt x="287" y="621" on="1"/>
        <pt x="248" y="597" on="0"/>
        <pt x="171" y="533" on="0"/>
        <pt x="153" y="489" on="1"/>
        <pt x="148" y="479" on="0"/>
        <pt x="145" y="461" on="0"/>
        <pt x="142" y="451" on="1"/>
        <pt x="140" y="442" on="0"/>
        <pt x="129" y="442" on="1"/>
        <pt x="124" y="442" on="0"/>
        <pt x="113" y="450" on="0"/>
        <pt x="113" y="456" on="1"/>
        <pt x="113" y="491" on="0"/>
        <pt x="138" y="552" on="0"/>
        <pt x="180" y="604" on="0"/>
        <pt x="233" y="647" on="0"/>
        <pt x="260" y="664" on="1"/>
        <pt x="305" y="692" on="0"/>
        <pt x="398" y="741" on="0"/>
        <pt x="447" y="759" on="1"/>
        <pt x="449" y="762" on="0"/>
        <pt x="456" y="766" on="0"/>
        <pt x="459" y="766" on="1"/>
        <pt x="465" y="766" on="0"/>
        <pt x="476" y="757" on="0"/>
        <pt x="476" y="750" on="1"/>
        <pt x="476" y="747" on="0"/>
        <pt x="475" y="746" on="1"/>
        <pt x="460" y="705" on="0"/>
        <pt x="419" y="601" on="0"/>
        <pt x="375" y="486" on="0"/>
        <pt x="333" y="366" on="0"/>
        <pt x="300" y="250" on="0"/>
        <pt x="279" y="145" on="0"/>
        <pt x="279" y="103" on="1"/>
        <pt x="279" y="89" on="0"/>
        <pt x="280" y="60" on="0"/>
        <pt x="289" y="36" on="0"/>
        <pt x="308" y="20" on="0"/>
        <pt x="326" y="20" on="1"/>
        <pt x="350" y="20" on="0"/>
        <pt x="374" y="33" on="1"/>
        <pt x="428" y="61" on="0"/>
        <pt x="516" y="156" on="0"/>
        <pt x="551" y="206" on="1"/>
        <pt x="558" y="215" on="0"/>
        <pt x="574" y="237" on="0"/>
        <pt x="579" y="247" on="1"/>
        <pt x="582" y="254" on="0"/>
        <pt x="585" y="272" on="0"/>
        <pt x="587" y="280" on="1"/>
        <pt x="592" y="296" on="0"/>
        <pt x="600" y="327" on="0"/>
        <pt x="605" y="344" on="1"/>
        <pt x="635" y="439" on="0"/>
        <pt x="704" y="624" on="0"/>
        <pt x="755" y="710" on="1"/>
        <pt x="763" y="723" on="0"/>
        <pt x="778" y="749" on="0"/>
        <pt x="787" y="761" on="1"/>
        <pt x="790" y="766" on="0"/>
        <pt x="797" y="766" on="1"/>
        <pt x="805" y="766" on="0"/>
        <pt x="814" y="756" on="0"/>
      </contour>
    </TTGlyph>
    <TTGlyph name="Uacute" xMin="113" yMin="-27" xMax="815" yMax="916">
      <component glyphName="U" x="0" y="0" flags="0x204"/>
      <component glyphName="acute" x="72" y="205" flags="0x4"/>
    </TTGlyph>
    <TTGlyph name="Ucircumflex" xMin="113" yMin="-27" xMax="815" yMax="956">
      <component glyphName="U" x="0" y="0" flags="0x204"/>
      <component glyphName="circumflex" x="41" y="246" flags="0x4"/>
    </TTGlyph>
    <TTGlyph name="Udieresis" xMin="113" yMin="-27" xMax="815" yMax="910">
      <component glyphName="U" x="0" y="0" flags="0x204"/>
      <component glyphName="dieresis" x="41" y="225" flags="0x4"/>
    </TTGlyph>
    <TTGlyph name="Ugrave" xMin="113" yMin="-27" xMax="815" yMax="930">
      <component glyphName="U" x="0" y="0" flags="0x204"/>
      <component glyphName="grave" x="20" y="215" flags="0x4"/>
    </TTGlyph>
    <TTGlyph name="V" xMin="51" yMin="-23" xMax="827" yMax="803">
      <contour>
        <pt x="827" y="676" on="1"/>
        <pt x="827" y="629" on="0"/>
        <pt x="776" y="505" on="0"/>
        <pt x="694" y="370" on="0"/>
        <pt x="592" y="232" on="0"/>
        <pt x="489" y="109" on="0"/>
        <pt x="395" y="9" on="0"/>
        <pt x="363" y="-19" on="1"/>
        <pt x="359" y="-23" on="0"/>
        <pt x="352" y="-23" on="1"/>
        <pt x="346" y="-23" on="0"/>
        <pt x="336" y="-19" on="0"/>
        <pt x="334" y="-12" on="1"/>
        <pt x="330" y="5" on="0"/>
        <pt x="329" y="50" on="0"/>
        <pt x="329" y="67" on="1"/>
        <pt x="329" y="135" on="0"/>
        <pt x="348" y="268" on="0"/>
        <pt x="356" y="335" on="1"/>
        <pt x="364" y="406" on="0"/>
        <pt x="378" y="546" on="0"/>
        <pt x="378" y="618" on="1"/>
        <pt x="378" y="660" on="0"/>
        <pt x="375" y="702" on="1"/>
        <pt x="340" y="673" on="0"/>
        <pt x="261" y="638" on="0"/>
        <pt x="223" y="615" on="1"/>
        <pt x="185" y="592" on="0"/>
        <pt x="110" y="529" on="0"/>
        <pt x="92" y="487" on="1"/>
        <pt x="87" y="477" on="0"/>
        <pt x="84" y="459" on="0"/>
        <pt x="81" y="448" on="1"/>
        <pt x="77" y="439" on="0"/>
        <pt x="68" y="439" on="1"/>
        <pt x="60" y="439" on="0"/>
        <pt x="51" y="449" on="0"/>
        <pt x="51" y="456" on="1"/>
        <pt x="51" y="511" on="0"/>
        <pt x="120" y="604" on="0"/>
        <pt x="220" y="677" on="0"/>
        <pt x="333" y="732" on="0"/>
        <pt x="377" y="750" on="1"/>
        <pt x="383" y="753" on="0"/>
        <pt x="388" y="753" on="1"/>
        <pt x="394" y="753" on="0"/>
        <pt x="403" y="741" on="0"/>
        <pt x="403" y="735" on="1"/>
        <pt x="403" y="731" on="0"/>
        <pt x="400" y="728" on="1"/>
        <pt x="412" y="682" on="0"/>
        <pt x="420" y="588" on="0"/>
        <pt x="420" y="540" on="1"/>
        <pt x="420" y="487" on="0"/>
        <pt x="412" y="382" on="0"/>
        <pt x="407" y="329" on="1"/>
        <pt x="399" y="260" on="0"/>
        <pt x="387" y="122" on="0"/>
        <pt x="376" y="53" on="1"/>
        <pt x="400" y="86" on="0"/>
        <pt x="480" y="182" on="0"/>
        <pt x="571" y="294" on="0"/>
        <pt x="664" y="416" on="0"/>
        <pt x="739" y="535" on="0"/>
        <pt x="786" y="642" on="0"/>
        <pt x="786" y="684" on="1"/>
        <pt x="786" y="708" on="0"/>
        <pt x="774" y="728" on="1"/>
        <pt x="761" y="748" on="0"/>
        <pt x="715" y="766" on="0"/>
        <pt x="693" y="770" on="1"/>
        <pt x="686" y="771" on="0"/>
        <pt x="671" y="771" on="0"/>
        <pt x="664" y="773" on="1"/>
        <pt x="652" y="775" on="0"/>
        <pt x="652" y="787" on="1"/>
        <pt x="652" y="803" on="0"/>
        <pt x="667" y="803" on="1"/>
        <pt x="698" y="803" on="0"/>
        <pt x="756" y="790" on="0"/>
        <pt x="801" y="761" on="0"/>
        <pt x="827" y="712" on="0"/>
      </contour>
    </TTGlyph>
    <TTGlyph name="W" xMin="77" yMin="-23" xMax="1288" yMax="862">
      <contour>
        <pt x="1288" y="725" on="1"/>
        <pt x="1288" y="675" on="0"/>
        <pt x="1235" y="543" on="0"/>
        <pt x="1149" y="398" on="0"/>
        <pt x="1041" y="250" on="0"/>
        <pt x="933" y="118" on="0"/>
        <pt x="834" y="12" on="0"/>
        <pt x="800" y="-19" on="1"/>
        <pt x="796" y="-23" on="0"/>
        <pt x="791" y="-23" on="1"/>
        <pt x="778" y="-23" on="0"/>
        <pt x="774" y="-10" on="1"/>
        <pt x="771" y="-7" on="1"/>
        <pt x="757" y="30" on="0"/>
        <pt x="748" y="104" on="0"/>
        <pt x="748" y="143" on="1"/>
        <pt x="748" y="198" on="0"/>
        <pt x="753" y="307" on="0"/>
        <pt x="753" y="363" on="1"/>
        <pt x="753" y="398" on="0"/>
        <pt x="749" y="466" on="0"/>
        <pt x="744" y="501" on="1"/>
        <pt x="705" y="430" on="0"/>
        <pt x="622" y="293" on="0"/>
        <pt x="577" y="225" on="1"/>
        <pt x="536" y="163" on="0"/>
        <pt x="449" y="39" on="0"/>
        <pt x="391" y="-9" on="1"/>
        <pt x="391" y="-15" on="0"/>
        <pt x="380" y="-23" on="0"/>
        <pt x="375" y="-23" on="1"/>
        <pt x="362" y="-23" on="0"/>
        <pt x="359" y="-12" on="1"/>
        <pt x="355" y="5" on="0"/>
        <pt x="355" y="50" on="0"/>
        <pt x="355" y="67" on="1"/>
        <pt x="355" y="135" on="0"/>
        <pt x="374" y="268" on="0"/>
        <pt x="382" y="335" on="1"/>
        <pt x="390" y="406" on="0"/>
        <pt x="403" y="546" on="0"/>
        <pt x="403" y="618" on="1"/>
        <pt x="403" y="660" on="0"/>
        <pt x="400" y="702" on="1"/>
        <pt x="366" y="673" on="0"/>
        <pt x="287" y="638" on="0"/>
        <pt x="249" y="615" on="1"/>
        <pt x="211" y="592" on="0"/>
        <pt x="136" y="529" on="0"/>
        <pt x="118" y="487" on="1"/>
        <pt x="113" y="477" on="0"/>
        <pt x="109" y="459" on="0"/>
        <pt x="106" y="448" on="1"/>
        <pt x="104" y="439" on="0"/>
        <pt x="93" y="439" on="1"/>
        <pt x="85" y="439" on="0"/>
        <pt x="77" y="449" on="0"/>
        <pt x="77" y="456" on="1"/>
        <pt x="77" y="493" on="0"/>
        <pt x="109" y="559" on="0"/>
        <pt x="162" y="616" on="0"/>
        <pt x="230" y="665" on="0"/>
        <pt x="302" y="706" on="0"/>
        <pt x="373" y="738" on="0"/>
        <pt x="402" y="750" on="1"/>
        <pt x="408" y="753" on="0"/>
        <pt x="413" y="753" on="1"/>
        <pt x="420" y="753" on="0"/>
        <pt x="429" y="741" on="0"/>
        <pt x="429" y="735" on="1"/>
        <pt x="429" y="731" on="0"/>
        <pt x="426" y="728" on="1"/>
        <pt x="438" y="682" on="0"/>
        <pt x="445" y="588" on="0"/>
        <pt x="445" y="540" on="1"/>
        <pt x="445" y="487" on="0"/>
        <pt x="438" y="382" on="0"/>
        <pt x="432" y="329" on="1"/>
        <pt x="425" y="265" on="0"/>
        <pt x="413" y="137" on="0"/>
        <pt x="404" y="72" on="1"/>
        <pt x="436" y="119" on="0"/>
        <pt x="503" y="207" on="0"/>
        <pt x="535" y="254" on="1"/>
        <pt x="570" y="305" on="0"/>
        <pt x="638" y="406" on="0"/>
        <pt x="673" y="457" on="1"/>
        <pt x="689" y="481" on="0"/>
        <pt x="721" y="531" on="0"/>
        <pt x="738" y="554" on="1"/>
        <pt x="742" y="558" on="0"/>
        <pt x="748" y="558" on="1"/>
        <pt x="754" y="558" on="0"/>
        <pt x="764" y="549" on="0"/>
        <pt x="766" y="544" on="1"/>
        <pt x="780" y="508" on="0"/>
        <pt x="795" y="429" on="0"/>
        <pt x="801" y="348" on="0"/>
        <pt x="802" y="267" on="0"/>
        <pt x="802" y="229" on="1"/>
        <pt x="802" y="181" on="0"/>
        <pt x="805" y="88" on="0"/>
        <pt x="803" y="40" on="1"/>
        <pt x="870" y="133" on="0"/>
        <pt x="1019" y="307" on="0"/>
        <pt x="1086" y="401" on="1"/>
        <pt x="1107" y="431" on="0"/>
        <pt x="1163" y="515" on="0"/>
        <pt x="1212" y="606" on="0"/>
        <pt x="1247" y="697" on="0"/>
        <pt x="1247" y="734" on="1"/>
        <pt x="1247" y="747" on="0"/>
        <pt x="1242" y="773" on="0"/>
        <pt x="1234" y="784" on="1"/>
        <pt x="1220" y="806" on="0"/>
        <pt x="1168" y="826" on="0"/>
        <pt x="1143" y="829" on="1"/>
        <pt x="1136" y="831" on="0"/>
        <pt x="1122" y="830" on="0"/>
        <pt x="1116" y="832" on="1"/>
        <pt x="1104" y="833" on="0"/>
        <pt x="1104" y="847" on="1"/>
        <pt x="1104" y="853" on="0"/>
        <pt x="1111" y="862" on="0"/>
        <pt x="1118" y="862" on="1"/>
        <pt x="1152" y="862" on="0"/>
        <pt x="1213" y="848" on="0"/>
        <pt x="1260" y="816" on="0"/>
        <pt x="1288" y="764" on="0"/>
      </contour>
    </TTGlyph>
    <TTGlyph name="X" xMin="-82" yMin="-27" xMax="837" yMax="759">
      <contour>
        <pt x="837" y="696" on="1"/>
        <pt x="837" y="690" on="0"/>
        <pt x="828" y="680" on="0"/>
        <pt x="821" y="680" on="1"/>
        <pt x="818" y="680" on="0"/>
        <pt x="803" y="690" on="0"/>
        <pt x="782" y="702" on="0"/>
        <pt x="755" y="712" on="0"/>
        <pt x="738" y="712" on="1"/>
        <pt x="715" y="712" on="0"/>
        <pt x="673" y="695" on="0"/>
        <pt x="634" y="669" on="0"/>
        <pt x="600" y="635" on="0"/>
        <pt x="587" y="619" on="1"/>
        <pt x="552" y="574" on="0"/>
        <pt x="489" y="481" on="0"/>
        <pt x="460" y="432" on="1"/>
        <pt x="461" y="351" on="0"/>
        <pt x="465" y="199" on="0"/>
        <pt x="484" y="119" on="1"/>
        <pt x="495" y="70" on="0"/>
        <pt x="560" y="19" on="0"/>
        <pt x="611" y="19" on="1"/>
        <pt x="623" y="19" on="0"/>
        <pt x="647" y="24" on="0"/>
        <pt x="655" y="24" on="1"/>
        <pt x="662" y="24" on="0"/>
        <pt x="670" y="14" on="0"/>
        <pt x="670" y="7" on="1"/>
        <pt x="670" y="-1" on="0"/>
        <pt x="662" y="-6" on="1"/>
        <pt x="655" y="-10" on="0"/>
        <pt x="633" y="-16" on="0"/>
        <pt x="610" y="-20" on="0"/>
        <pt x="587" y="-22" on="0"/>
        <pt x="580" y="-22" on="1"/>
        <pt x="535" y="-22" on="0"/>
        <pt x="475" y="15" on="0"/>
        <pt x="437" y="76" on="0"/>
        <pt x="418" y="154" on="0"/>
        <pt x="410" y="236" on="0"/>
        <pt x="410" y="315" on="0"/>
        <pt x="410" y="346" on="1"/>
        <pt x="368" y="271" on="0"/>
        <pt x="283" y="125" on="0"/>
        <pt x="226" y="59" on="1"/>
        <pt x="213" y="44" on="0"/>
        <pt x="182" y="13" on="0"/>
        <pt x="147" y="-12" on="0"/>
        <pt x="108" y="-27" on="0"/>
        <pt x="86" y="-27" on="1"/>
        <pt x="61" y="-27" on="0"/>
        <pt x="19" y="-8" on="0"/>
        <pt x="-17" y="22" on="0"/>
        <pt x="-46" y="61" on="0"/>
        <pt x="-58" y="81" on="1"/>
        <pt x="-60" y="84" on="0"/>
        <pt x="-67" y="97" on="0"/>
        <pt x="-76" y="112" on="0"/>
        <pt x="-82" y="125" on="0"/>
        <pt x="-82" y="127" on="1"/>
        <pt x="-82" y="134" on="0"/>
        <pt x="-72" y="142" on="0"/>
        <pt x="-66" y="142" on="1"/>
        <pt x="-59" y="142" on="0"/>
        <pt x="-54" y="136" on="1"/>
        <pt x="-49" y="129" on="0"/>
        <pt x="-42" y="115" on="0"/>
        <pt x="-37" y="109" on="1"/>
        <pt x="-20" y="81" on="0"/>
        <pt x="29" y="26" on="0"/>
        <pt x="61" y="16" on="1"/>
        <pt x="71" y="13" on="0"/>
        <pt x="82" y="13" on="1"/>
        <pt x="98" y="13" on="0"/>
        <pt x="130" y="27" on="0"/>
        <pt x="158" y="49" on="0"/>
        <pt x="182" y="75" on="0"/>
        <pt x="192" y="87" on="1"/>
        <pt x="248" y="157" on="0"/>
        <pt x="335" y="315" on="0"/>
        <pt x="379" y="393" on="1"/>
        <pt x="410" y="449" on="1"/>
        <pt x="410" y="467" on="1"/>
        <pt x="410" y="514" on="0"/>
        <pt x="403" y="615" on="0"/>
        <pt x="386" y="659" on="1"/>
        <pt x="367" y="710" on="0"/>
        <pt x="312" y="710" on="1"/>
        <pt x="291" y="710" on="0"/>
        <pt x="236" y="691" on="0"/>
        <pt x="187" y="667" on="0"/>
        <pt x="151" y="648" on="0"/>
        <pt x="148" y="648" on="1"/>
        <pt x="142" y="648" on="0"/>
        <pt x="133" y="658" on="0"/>
        <pt x="133" y="664" on="1"/>
        <pt x="133" y="670" on="0"/>
        <pt x="138" y="675" on="1"/>
        <pt x="152" y="686" on="0"/>
        <pt x="198" y="712" on="0"/>
        <pt x="249" y="735" on="0"/>
        <pt x="298" y="750" on="0"/>
        <pt x="316" y="750" on="1"/>
        <pt x="352" y="750" on="0"/>
        <pt x="414" y="711" on="0"/>
        <pt x="427" y="676" on="1"/>
        <pt x="441" y="641" on="0"/>
        <pt x="455" y="567" on="0"/>
        <pt x="457" y="530" on="1"/>
        <pt x="476" y="562" on="0"/>
        <pt x="531" y="642" on="0"/>
        <pt x="599" y="712" on="0"/>
        <pt x="676" y="759" on="0"/>
        <pt x="718" y="759" on="1"/>
        <pt x="749" y="759" on="0"/>
        <pt x="814" y="730" on="0"/>
        <pt x="834" y="706" on="1"/>
        <pt x="837" y="701" on="0"/>
      </contour>
    </TTGlyph>
    <TTGlyph name="Y" xMin="-77" yMin="-607" xMax="819" yMax="766">
      <contour>
        <pt x="819" y="559" on="1"/>
        <pt x="819" y="553" on="0"/>
        <pt x="816" y="550" on="1"/>
        <pt x="780" y="498" on="0"/>
        <pt x="717" y="397" on="0"/>
        <pt x="661" y="293" on="0"/>
        <pt x="614" y="184" on="0"/>
        <pt x="594" y="124" on="1"/>
        <pt x="574" y="66" on="0"/>
        <pt x="547" y="-53" on="0"/>
        <pt x="520" y="-173" on="0"/>
        <pt x="490" y="-292" on="0"/>
        <pt x="468" y="-350" on="1"/>
        <pt x="448" y="-402" on="0"/>
        <pt x="396" y="-495" on="0"/>
        <pt x="325" y="-566" on="0"/>
        <pt x="231" y="-607" on="0"/>
        <pt x="170" y="-607" on="1"/>
        <pt x="118" y="-607" on="0"/>
        <pt x="28" y="-574" on="0"/>
        <pt x="-39" y="-513" on="0"/>
        <pt x="-77" y="-427" on="0"/>
        <pt x="-77" y="-374" on="1"/>
        <pt x="-77" y="-320" on="0"/>
        <pt x="-44" y="-210" on="0"/>
        <pt x="14" y="-109" on="0"/>
        <pt x="94" y="-26" on="0"/>
        <pt x="141" y="0" on="1"/>
        <pt x="145" y="2" on="0"/>
        <pt x="148" y="2" on="1"/>
        <pt x="154" y="2" on="0"/>
        <pt x="163" y="-7" on="0"/>
        <pt x="163" y="-13" on="1"/>
        <pt x="163" y="-21" on="0"/>
        <pt x="155" y="-26" on="1"/>
        <pt x="145" y="-34" on="0"/>
        <pt x="125" y="-47" on="0"/>
        <pt x="115" y="-55" on="1"/>
        <pt x="70" y="-92" on="0"/>
        <pt x="7" y="-190" on="0"/>
        <pt x="-13" y="-244" on="1"/>
        <pt x="-23" y="-273" on="0"/>
        <pt x="-35" y="-334" on="0"/>
        <pt x="-35" y="-366" on="1"/>
        <pt x="-35" y="-412" on="0"/>
        <pt x="-5" y="-484" on="0"/>
        <pt x="49" y="-533" on="0"/>
        <pt x="124" y="-559" on="0"/>
        <pt x="169" y="-559" on="1"/>
        <pt x="192" y="-559" on="0"/>
        <pt x="237" y="-551" on="0"/>
        <pt x="259" y="-541" on="1"/>
        <pt x="294" y="-526" on="0"/>
        <pt x="351" y="-468" on="0"/>
        <pt x="396" y="-392" on="0"/>
        <pt x="431" y="-305" on="0"/>
        <pt x="457" y="-217" on="0"/>
        <pt x="476" y="-133" on="0"/>
        <pt x="483" y="-99" on="1"/>
        <pt x="495" y="-45" on="0"/>
        <pt x="519" y="64" on="0"/>
        <pt x="534" y="118" on="1"/>
        <pt x="517" y="96" on="0"/>
        <pt x="470" y="45" on="0"/>
        <pt x="415" y="2" on="0"/>
        <pt x="355" y="-27" on="0"/>
        <pt x="325" y="-27" on="1"/>
        <pt x="295" y="-27" on="0"/>
        <pt x="258" y="-2" on="0"/>
        <pt x="239" y="37" on="0"/>
        <pt x="232" y="85" on="0"/>
        <pt x="232" y="109" on="1"/>
        <pt x="232" y="141" on="0"/>
        <pt x="240" y="202" on="0"/>
        <pt x="247" y="232" on="1"/>
        <pt x="273" y="350" on="0"/>
        <pt x="349" y="576" on="0"/>
        <pt x="406" y="683" on="1"/>
        <pt x="377" y="666" on="0"/>
        <pt x="318" y="638" on="0"/>
        <pt x="289" y="621" on="1"/>
        <pt x="250" y="597" on="0"/>
        <pt x="173" y="533" on="0"/>
        <pt x="155" y="489" on="1"/>
        <pt x="151" y="479" on="0"/>
        <pt x="147" y="461" on="0"/>
        <pt x="145" y="451" on="1"/>
        <pt x="142" y="442" on="0"/>
        <pt x="131" y="442" on="1"/>
        <pt x="126" y="442" on="0"/>
        <pt x="115" y="450" on="0"/>
        <pt x="115" y="456" on="1"/>
        <pt x="115" y="491" on="0"/>
        <pt x="140" y="552" on="0"/>
        <pt x="182" y="604" on="0"/>
        <pt x="235" y="647" on="0"/>
        <pt x="262" y="664" on="1"/>
        <pt x="307" y="692" on="0"/>
        <pt x="400" y="741" on="0"/>
        <pt x="450" y="759" on="1"/>
        <pt x="451" y="762" on="0"/>
        <pt x="458" y="766" on="0"/>
        <pt x="461" y="766" on="1"/>
        <pt x="467" y="766" on="0"/>
        <pt x="478" y="757" on="0"/>
        <pt x="478" y="750" on="1"/>
        <pt x="478" y="747" on="0"/>
        <pt x="477" y="746" on="1"/>
        <pt x="462" y="705" on="0"/>
        <pt x="421" y="601" on="0"/>
        <pt x="377" y="486" on="0"/>
        <pt x="335" y="365" on="0"/>
        <pt x="302" y="250" on="0"/>
        <pt x="281" y="145" on="0"/>
        <pt x="281" y="103" on="1"/>
        <pt x="281" y="89" on="0"/>
        <pt x="282" y="60" on="0"/>
        <pt x="291" y="36" on="0"/>
        <pt x="310" y="20" on="0"/>
        <pt x="328" y="20" on="1"/>
        <pt x="341" y="20" on="0"/>
        <pt x="365" y="28" on="0"/>
        <pt x="376" y="33" on="1"/>
        <pt x="412" y="51" on="0"/>
        <pt x="472" y="104" on="0"/>
        <pt x="525" y="166" on="0"/>
        <pt x="572" y="233" on="0"/>
        <pt x="593" y="265" on="1"/>
        <pt x="595" y="267" on="0"/>
        <pt x="595" y="268" on="1"/>
        <pt x="613" y="306" on="0"/>
        <pt x="657" y="387" on="0"/>
        <pt x="707" y="466" on="0"/>
        <pt x="763" y="539" on="0"/>
        <pt x="792" y="569" on="1"/>
        <pt x="797" y="574" on="0"/>
        <pt x="804" y="574" on="1"/>
        <pt x="810" y="574" on="0"/>
        <pt x="819" y="566" on="0"/>
      </contour>
    </TTGlyph>
    <TTGlyph name="Yacute" xMin="-77" yMin="-607" xMax="819" yMax="844">
      <component glyphName="Y" x="0" y="0" flags="0x204"/>
      <component glyphName="acute" x="123" y="133" flags="0x4"/>
    </TTGlyph>
    <TTGlyph name="Ydieresis" xMin="-77" yMin="-607" xMax="819" yMax="818">
      <component glyphName="Y" x="0" y="0" flags="0x204"/>
      <component glyphName="dieresis" x="113" y="133" flags="0x4"/>
    </TTGlyph>
    <TTGlyph name="Z" xMin="-10" yMin="-193" xMax="1092" yMax="768">
      <contour>
        <pt x="1092" y="-72" on="1"/>
        <pt x="1092" y="-78" on="0"/>
        <pt x="1088" y="-82" on="1"/>
        <pt x="1054" y="-111" on="0"/>
        <pt x="971" y="-152" on="0"/>
        <pt x="881" y="-180" on="0"/>
        <pt x="788" y="-193" on="0"/>
        <pt x="745" y="-193" on="1"/>
        <pt x="608" y="-193" on="0"/>
        <pt x="478" y="-138" on="1"/>
        <pt x="418" y="-112" on="0"/>
        <pt x="300" y="-57" on="0"/>
        <pt x="240" y="-31" on="1"/>
        <pt x="206" y="-16" on="0"/>
        <pt x="131" y="11" on="0"/>
        <pt x="93" y="11" on="1"/>
        <pt x="69" y="11" on="0"/>
        <pt x="34" y="-1" on="0"/>
        <pt x="14" y="-14" on="1"/>
        <pt x="11" y="-16" on="0"/>
        <pt x="6" y="-16" on="1"/>
        <pt x="0" y="-16" on="0"/>
        <pt x="-10" y="-6" on="0"/>
        <pt x="-10" y="0" on="1"/>
        <pt x="-10" y="6" on="0"/>
        <pt x="-6" y="9" on="1"/>
        <pt x="-6" y="16" on="0"/>
        <pt x="-2" y="19" on="1"/>
        <pt x="33" y="55" on="0"/>
        <pt x="104" y="124" on="0"/>
        <pt x="139" y="159" on="1"/>
        <pt x="214" y="233" on="0"/>
        <pt x="363" y="377" on="0"/>
        <pt x="441" y="447" on="1"/>
        <pt x="510" y="510" on="0"/>
        <pt x="650" y="632" on="0"/>
        <pt x="726" y="686" on="1"/>
        <pt x="707" y="683" on="0"/>
        <pt x="669" y="681" on="0"/>
        <pt x="650" y="681" on="1"/>
        <pt x="586" y="681" on="0"/>
        <pt x="460" y="696" on="0"/>
        <pt x="397" y="696" on="1"/>
        <pt x="338" y="696" on="0"/>
        <pt x="222" y="671" on="0"/>
        <pt x="175" y="633" on="1"/>
        <pt x="164" y="624" on="0"/>
        <pt x="147" y="605" on="0"/>
        <pt x="138" y="595" on="1"/>
        <pt x="134" y="591" on="0"/>
        <pt x="130" y="591" on="1"/>
        <pt x="124" y="591" on="0"/>
        <pt x="113" y="601" on="0"/>
        <pt x="113" y="607" on="1"/>
        <pt x="113" y="611" on="0"/>
        <pt x="115" y="613" on="1"/>
        <pt x="140" y="653" on="0"/>
        <pt x="211" y="704" on="0"/>
        <pt x="293" y="733" on="0"/>
        <pt x="382" y="744" on="0"/>
        <pt x="426" y="744" on="1"/>
        <pt x="478" y="744" on="0"/>
        <pt x="580" y="735" on="0"/>
        <pt x="632" y="735" on="1"/>
        <pt x="692" y="735" on="0"/>
        <pt x="799" y="750" on="0"/>
        <pt x="856" y="767" on="1"/>
        <pt x="858" y="768" on="1"/>
        <pt x="865" y="768" on="0"/>
        <pt x="875" y="756" on="0"/>
        <pt x="875" y="750" on="1"/>
        <pt x="875" y="744" on="0"/>
        <pt x="871" y="740" on="1"/>
        <pt x="840" y="712" on="0"/>
        <pt x="775" y="659" on="0"/>
        <pt x="743" y="633" on="1"/>
        <pt x="675" y="578" on="0"/>
        <pt x="541" y="468" on="0"/>
        <pt x="475" y="409" on="1"/>
        <pt x="376" y="321" on="0"/>
        <pt x="184" y="144" on="0"/>
        <pt x="84" y="56" on="1"/>
        <pt x="91" y="57" on="0"/>
        <pt x="104" y="58" on="0"/>
        <pt x="111" y="58" on="1"/>
        <pt x="150" y="58" on="0"/>
        <pt x="227" y="35" on="0"/>
        <pt x="262" y="19" on="1"/>
        <pt x="322" y="-7" on="0"/>
        <pt x="438" y="-65" on="0"/>
        <pt x="498" y="-91" on="1"/>
        <pt x="561" y="-118" on="0"/>
        <pt x="696" y="-148" on="0"/>
        <pt x="765" y="-148" on="1"/>
        <pt x="851" y="-148" on="0"/>
        <pt x="998" y="-103" on="0"/>
        <pt x="1070" y="-57" on="1"/>
        <pt x="1074" y="-55" on="0"/>
        <pt x="1077" y="-55" on="1"/>
        <pt x="1084" y="-55" on="0"/>
        <pt x="1092" y="-66" on="0"/>
      </contour>
    </TTGlyph>
    <TTGlyph name="Zcaron" xMin="-10" yMin="-193" xMax="1092" yMax="956">
      <component glyphName="Z" x="0" y="0" flags="0x204"/>
      <component glyphName="caron" x="-71" y="246" flags="0x4"/>
    </TTGlyph>
    <TTGlyph name="a" xMin="0" yMin="-40" xMax="477" yMax="485">
      <contour>
        <pt x="477" y="156" on="1"/>
        <pt x="451" y="103" on="0"/>
        <pt x="395" y="20" on="0"/>
        <pt x="350" y="-19" on="1"/>
        <pt x="328" y="-39" on="0"/>
        <pt x="300" y="-39" on="1"/>
        <pt x="285" y="-39" on="0"/>
        <pt x="258" y="-22" on="0"/>
        <pt x="253" y="-7" on="1"/>
        <pt x="251" y="-2" on="0"/>
        <pt x="250" y="16" on="0"/>
        <pt x="249" y="36" on="0"/>
        <pt x="250" y="55" on="0"/>
        <pt x="250" y="61" on="1"/>
        <pt x="215" y="19" on="0"/>
        <pt x="120" y="-40" on="0"/>
        <pt x="63" y="-40" on="1"/>
        <pt x="60" y="-40" on="0"/>
        <pt x="49" y="-36" on="0"/>
        <pt x="46" y="-35" on="1"/>
        <pt x="23" y="-24" on="0"/>
        <pt x="0" y="24" on="0"/>
        <pt x="0" y="48" on="1"/>
        <pt x="0" y="81" on="0"/>
        <pt x="17" y="146" on="0"/>
        <pt x="46" y="207" on="0"/>
        <pt x="84" y="263" on="0"/>
        <pt x="105" y="288" on="1"/>
        <pt x="159" y="355" on="0"/>
        <pt x="299" y="454" on="0"/>
        <pt x="381" y="484" on="1"/>
        <pt x="382" y="485" on="0"/>
        <pt x="385" y="485" on="1"/>
        <pt x="392" y="485" on="0"/>
        <pt x="399" y="475" on="0"/>
        <pt x="399" y="469" on="1"/>
        <pt x="399" y="460" on="0"/>
        <pt x="392" y="457" on="1"/>
        <pt x="375" y="448" on="0"/>
        <pt x="342" y="433" on="0"/>
        <pt x="326" y="424" on="1"/>
        <pt x="215" y="360" on="0"/>
        <pt x="139" y="260" on="1"/>
        <pt x="124" y="240" on="0"/>
        <pt x="92" y="190" on="0"/>
        <pt x="66" y="137" on="0"/>
        <pt x="49" y="81" on="0"/>
        <pt x="49" y="55" on="1"/>
        <pt x="49" y="51" on="0"/>
        <pt x="51" y="36" on="0"/>
        <pt x="55" y="21" on="0"/>
        <pt x="64" y="10" on="0"/>
        <pt x="70" y="10" on="1"/>
        <pt x="99" y="10" on="0"/>
        <pt x="154" y="40" on="0"/>
        <pt x="202" y="86" on="0"/>
        <pt x="240" y="138" on="0"/>
        <pt x="252" y="161" on="1"/>
        <pt x="275" y="203" on="0"/>
        <pt x="311" y="288" on="0"/>
        <pt x="329" y="331" on="1"/>
        <pt x="336" y="349" on="0"/>
        <pt x="355" y="397" on="0"/>
        <pt x="364" y="414" on="1"/>
        <pt x="368" y="421" on="0"/>
        <pt x="377" y="421" on="1"/>
        <pt x="384" y="421" on="0"/>
        <pt x="394" y="413" on="0"/>
        <pt x="394" y="406" on="1"/>
        <pt x="393" y="404" on="1"/>
        <pt x="385" y="368" on="0"/>
        <pt x="365" y="295" on="0"/>
        <pt x="353" y="260" on="1"/>
        <pt x="348" y="246" on="0"/>
        <pt x="334" y="212" on="0"/>
        <pt x="330" y="200" on="1"/>
        <pt x="328" y="193" on="0"/>
        <pt x="327" y="179" on="0"/>
        <pt x="326" y="172" on="1"/>
        <pt x="323" y="156" on="0"/>
        <pt x="316" y="125" on="0"/>
        <pt x="312" y="109" on="1"/>
        <pt x="307" y="89" on="0"/>
        <pt x="300" y="48" on="0"/>
        <pt x="300" y="27" on="1"/>
        <pt x="300" y="22" on="0"/>
        <pt x="300" y="14" on="0"/>
        <pt x="301" y="10" on="1"/>
        <pt x="308" y="10" on="0"/>
        <pt x="327" y="22" on="0"/>
        <pt x="347" y="39" on="0"/>
        <pt x="364" y="57" on="0"/>
        <pt x="369" y="62" on="1"/>
        <pt x="399" y="94" on="0"/>
        <pt x="426" y="133" on="1"/>
        <pt x="433" y="141" on="0"/>
        <pt x="444" y="160" on="0"/>
        <pt x="451" y="168" on="1"/>
        <pt x="454" y="173" on="0"/>
        <pt x="460" y="173" on="1"/>
        <pt x="467" y="173" on="0"/>
        <pt x="477" y="163" on="0"/>
      </contour>
    </TTGlyph>
    <TTGlyph name="aacute" xMin="0" yMin="-40" xMax="477" yMax="681">
      <component glyphName="a" x="0" y="0" flags="0x204"/>
      <component glyphName="acute" x="-235" y="-30" flags="0x4"/>
    </TTGlyph>
    <TTGlyph name="acircumflex" xMin="0" yMin="-40" xMax="516" yMax="680">
      <component glyphName="a" x="0" y="0" flags="0x204"/>
      <component glyphName="circumflex" x="-214" y="-30" flags="0x4"/>
    </TTGlyph>
    <TTGlyph name="acute" xMin="523" yMin="599" xMax="670" yMax="711">
      <contour>
        <pt x="670" y="690" on="1"/>
        <pt x="661" y="668" on="0"/>
        <pt x="643" y="656" on="1"/>
        <pt x="636" y="651" on="0"/>
        <pt x="622" y="644" on="0"/>
        <pt x="614" y="639" on="1"/>
        <pt x="581" y="617" on="0"/>
        <pt x="541" y="599" on="1"/>
        <pt x="535" y="599" on="0"/>
        <pt x="523" y="612" on="0"/>
        <pt x="523" y="618" on="1"/>
        <pt x="523" y="619" on="0"/>
        <pt x="524" y="621" on="0"/>
        <pt x="524" y="622" on="1"/>
        <pt x="542" y="644" on="0"/>
        <pt x="586" y="683" on="0"/>
        <pt x="609" y="700" on="1"/>
        <pt x="625" y="711" on="0"/>
        <pt x="644" y="711" on="1"/>
        <pt x="654" y="711" on="0"/>
        <pt x="669" y="701" on="0"/>
      </contour>
    </TTGlyph>
    <TTGlyph name="adieresis" xMin="0" yMin="-40" xMax="477" yMax="614">
      <component glyphName="a" x="0" y="0" flags="0x204"/>
      <component glyphName="dieresis" x="-245" y="-71" flags="0x4"/>
    </TTGlyph>
    <TTGlyph name="ae" xMin="0" yMin="-48" xMax="645" yMax="513">
      <contour>
        <pt x="645" y="443" on="1"/>
        <pt x="645" y="417" on="0"/>
        <pt x="621" y="368" on="0"/>
        <pt x="583" y="323" on="0"/>
        <pt x="539" y="286" on="0"/>
        <pt x="520" y="273" on="1"/>
        <pt x="490" y="253" on="0"/>
        <pt x="425" y="218" on="0"/>
        <pt x="388" y="218" on="1"/>
        <pt x="380" y="218" on="0"/>
        <pt x="360" y="222" on="0"/>
        <pt x="360" y="233" on="1"/>
        <pt x="360" y="246" on="0"/>
        <pt x="374" y="250" on="1"/>
        <pt x="378" y="251" on="0"/>
        <pt x="386" y="251" on="0"/>
        <pt x="390" y="252" on="1"/>
        <pt x="411" y="258" on="0"/>
        <pt x="433" y="271" on="1"/>
        <pt x="451" y="281" on="0"/>
        <pt x="504" y="322" on="0"/>
        <pt x="555" y="370" on="0"/>
        <pt x="591" y="422" on="0"/>
        <pt x="591" y="445" on="1"/>
        <pt x="591" y="460" on="0"/>
        <pt x="575" y="460" on="1"/>
        <pt x="568" y="460" on="0"/>
        <pt x="556" y="456" on="0"/>
        <pt x="550" y="454" on="1"/>
        <pt x="519" y="443" on="0"/>
        <pt x="458" y="404" on="0"/>
        <pt x="435" y="382" on="1"/>
        <pt x="416" y="363" on="0"/>
        <pt x="373" y="308" on="0"/>
        <pt x="363" y="284" on="1"/>
        <pt x="358" y="273" on="0"/>
        <pt x="353" y="252" on="0"/>
        <pt x="349" y="241" on="1"/>
        <pt x="345" y="230" on="0"/>
        <pt x="336" y="209" on="0"/>
        <pt x="333" y="198" on="1"/>
        <pt x="328" y="184" on="0"/>
        <pt x="327" y="151" on="0"/>
        <pt x="327" y="136" on="1"/>
        <pt x="327" y="122" on="0"/>
        <pt x="329" y="96" on="0"/>
        <pt x="331" y="83" on="1"/>
        <pt x="333" y="71" on="0"/>
        <pt x="344" y="46" on="0"/>
        <pt x="360" y="25" on="0"/>
        <pt x="381" y="12" on="0"/>
        <pt x="395" y="12" on="1"/>
        <pt x="403" y="12" on="0"/>
        <pt x="418" y="17" on="0"/>
        <pt x="425" y="21" on="1"/>
        <pt x="453" y="37" on="0"/>
        <pt x="499" y="88" on="0"/>
        <pt x="518" y="113" on="1"/>
        <pt x="523" y="121" on="0"/>
        <pt x="533" y="136" on="0"/>
        <pt x="538" y="143" on="1"/>
        <pt x="542" y="149" on="0"/>
        <pt x="549" y="149" on="1"/>
        <pt x="555" y="149" on="0"/>
        <pt x="565" y="140" on="0"/>
        <pt x="565" y="134" on="1"/>
        <pt x="565" y="131" on="0"/>
        <pt x="563" y="127" on="1"/>
        <pt x="551" y="105" on="0"/>
        <pt x="515" y="51" on="0"/>
        <pt x="470" y="4" on="0"/>
        <pt x="417" y="-28" on="0"/>
        <pt x="389" y="-28" on="1"/>
        <pt x="364" y="-28" on="0"/>
        <pt x="326" y="-4" on="0"/>
        <pt x="301" y="33" on="0"/>
        <pt x="286" y="79" on="0"/>
        <pt x="283" y="100" on="1"/>
        <pt x="264" y="71" on="0"/>
        <pt x="218" y="17" on="0"/>
        <pt x="164" y="-24" on="0"/>
        <pt x="100" y="-48" on="0"/>
        <pt x="63" y="-48" on="1"/>
        <pt x="60" y="-48" on="0"/>
        <pt x="47" y="-43" on="0"/>
        <pt x="44" y="-42" on="1"/>
        <pt x="21" y="-31" on="0"/>
        <pt x="0" y="17" on="0"/>
        <pt x="0" y="41" on="1"/>
        <pt x="0" y="74" on="0"/>
        <pt x="18" y="138" on="0"/>
        <pt x="47" y="199" on="0"/>
        <pt x="85" y="255" on="0"/>
        <pt x="105" y="280" on="1"/>
        <pt x="160" y="347" on="0"/>
        <pt x="299" y="446" on="0"/>
        <pt x="381" y="476" on="1"/>
        <pt x="382" y="477" on="0"/>
        <pt x="385" y="477" on="1"/>
        <pt x="392" y="477" on="0"/>
        <pt x="400" y="467" on="0"/>
        <pt x="400" y="461" on="1"/>
        <pt x="400" y="452" on="0"/>
        <pt x="392" y="449" on="1"/>
        <pt x="375" y="440" on="0"/>
        <pt x="343" y="425" on="0"/>
        <pt x="326" y="416" on="1"/>
        <pt x="272" y="384" on="0"/>
        <pt x="177" y="303" on="0"/>
        <pt x="139" y="252" on="1"/>
        <pt x="124" y="232" on="0"/>
        <pt x="92" y="182" on="0"/>
        <pt x="66" y="129" on="0"/>
        <pt x="49" y="73" on="0"/>
        <pt x="49" y="47" on="1"/>
        <pt x="49" y="43" on="0"/>
        <pt x="51" y="28" on="0"/>
        <pt x="55" y="13" on="0"/>
        <pt x="64" y="2" on="0"/>
        <pt x="70" y="2" on="1"/>
        <pt x="99" y="2" on="0"/>
        <pt x="154" y="32" on="0"/>
        <pt x="201" y="77" on="0"/>
        <pt x="240" y="130" on="0"/>
        <pt x="252" y="153" on="1"/>
        <pt x="264" y="175" on="0"/>
        <pt x="287" y="220" on="0"/>
        <pt x="295" y="243" on="1"/>
        <pt x="299" y="252" on="0"/>
        <pt x="304" y="271" on="0"/>
        <pt x="308" y="280" on="1"/>
        <pt x="313" y="291" on="0"/>
        <pt x="324" y="314" on="0"/>
        <pt x="329" y="325" on="1"/>
        <pt x="337" y="342" on="0"/>
        <pt x="355" y="391" on="0"/>
        <pt x="364" y="406" on="1"/>
        <pt x="370" y="413" on="0"/>
        <pt x="377" y="413" on="1"/>
        <pt x="385" y="413" on="0"/>
        <pt x="390" y="408" on="1"/>
        <pt x="406" y="425" on="0"/>
        <pt x="452" y="462" on="0"/>
        <pt x="503" y="493" on="0"/>
        <pt x="556" y="513" on="0"/>
        <pt x="581" y="513" on="1"/>
        <pt x="611" y="513" on="0"/>
        <pt x="645" y="472" on="0"/>
      </contour>
    </TTGlyph>
    <TTGlyph name="agrave" xMin="0" yMin="-40" xMax="477" yMax="675">
      <component glyphName="a" x="0" y="0" flags="0x204"/>
      <component glyphName="grave" x="-255" y="-40" flags="0x4"/>
    </TTGlyph>
    <TTGlyph name="ampersand" xMin="51" yMin="-47" xMax="607" yMax="775">
      <contour>
        <pt x="607" y="306" on="1"/>
        <pt x="607" y="244" on="0"/>
        <pt x="555" y="134" on="0"/>
        <pt x="512" y="91" on="1"/>
        <pt x="532" y="61" on="0"/>
        <pt x="573" y="7" on="0"/>
        <pt x="596" y="-20" on="1"/>
        <pt x="601" y="-25" on="0"/>
        <pt x="601" y="-32" on="1"/>
        <pt x="601" y="-38" on="0"/>
        <pt x="593" y="-47" on="0"/>
        <pt x="587" y="-47" on="1"/>
        <pt x="579" y="-47" on="0"/>
        <pt x="548" y="-18" on="0"/>
        <pt x="515" y="19" on="0"/>
        <pt x="486" y="55" on="0"/>
        <pt x="481" y="62" on="1"/>
        <pt x="436" y="27" on="0"/>
        <pt x="329" y="-15" on="0"/>
        <pt x="272" y="-15" on="1"/>
        <pt x="254" y="-15" on="0"/>
        <pt x="212" y="-9" on="0"/>
        <pt x="171" y="3" on="0"/>
        <pt x="134" y="21" on="0"/>
        <pt x="119" y="33" on="1"/>
        <pt x="102" y="46" on="0"/>
        <pt x="77" y="85" on="0"/>
        <pt x="60" y="130" on="0"/>
        <pt x="51" y="176" on="0"/>
        <pt x="51" y="197" on="1"/>
        <pt x="51" y="249" on="0"/>
        <pt x="104" y="333" on="0"/>
        <pt x="184" y="399" on="0"/>
        <pt x="277" y="452" on="0"/>
        <pt x="317" y="475" on="1"/>
        <pt x="315" y="492" on="0"/>
        <pt x="309" y="525" on="0"/>
        <pt x="309" y="542" on="1"/>
        <pt x="309" y="576" on="0"/>
        <pt x="326" y="643" on="0"/>
        <pt x="359" y="703" on="0"/>
        <pt x="408" y="752" on="0"/>
        <pt x="440" y="766" on="1"/>
        <pt x="449" y="770" on="0"/>
        <pt x="468" y="775" on="0"/>
        <pt x="478" y="775" on="1"/>
        <pt x="512" y="775" on="0"/>
        <pt x="561" y="731" on="0"/>
        <pt x="561" y="696" on="1"/>
        <pt x="561" y="672" on="0"/>
        <pt x="546" y="624" on="0"/>
        <pt x="521" y="579" on="0"/>
        <pt x="490" y="539" on="0"/>
        <pt x="474" y="523" on="1"/>
        <pt x="452" y="501" on="0"/>
        <pt x="403" y="467" on="0"/>
        <pt x="377" y="451" on="1"/>
        <pt x="393" y="365" on="0"/>
        <pt x="449" y="200" on="0"/>
        <pt x="493" y="124" on="1"/>
        <pt x="530" y="162" on="0"/>
        <pt x="576" y="257" on="0"/>
        <pt x="576" y="311" on="1"/>
        <pt x="576" y="325" on="0"/>
        <pt x="572" y="351" on="0"/>
        <pt x="569" y="365" on="1"/>
        <pt x="569" y="369" on="1"/>
        <pt x="569" y="375" on="0"/>
        <pt x="577" y="384" on="0"/>
        <pt x="583" y="384" on="1"/>
        <pt x="595" y="384" on="0"/>
        <pt x="598" y="372" on="1"/>
        <pt x="603" y="358" on="0"/>
        <pt x="607" y="321" on="0"/>
      </contour>
      <contour>
        <pt x="508" y="694" on="1"/>
        <pt x="508" y="711" on="0"/>
        <pt x="490" y="721" on="0"/>
        <pt x="475" y="721" on="1"/>
        <pt x="468" y="721" on="0"/>
        <pt x="464" y="718" on="1"/>
        <pt x="415" y="690" on="0"/>
        <pt x="364" y="602" on="0"/>
        <pt x="364" y="545" on="1"/>
        <pt x="364" y="524" on="0"/>
        <pt x="367" y="505" on="1"/>
        <pt x="386" y="516" on="0"/>
        <pt x="422" y="542" on="0"/>
        <pt x="437" y="558" on="1"/>
        <pt x="449" y="570" on="0"/>
        <pt x="474" y="603" on="0"/>
        <pt x="495" y="639" on="0"/>
        <pt x="508" y="677" on="0"/>
      </contour>
      <contour>
        <pt x="459" y="94" on="1"/>
        <pt x="409" y="169" on="0"/>
        <pt x="344" y="335" on="0"/>
        <pt x="326" y="423" on="1"/>
        <pt x="294" y="405" on="0"/>
        <pt x="215" y="361" on="0"/>
        <pt x="146" y="305" on="0"/>
        <pt x="98" y="236" on="0"/>
        <pt x="98" y="194" on="1"/>
        <pt x="98" y="178" on="0"/>
        <pt x="104" y="142" on="0"/>
        <pt x="117" y="107" on="0"/>
        <pt x="136" y="76" on="0"/>
        <pt x="148" y="66" on="1"/>
        <pt x="173" y="46" on="0"/>
        <pt x="242" y="26" on="0"/>
        <pt x="274" y="26" on="1"/>
        <pt x="325" y="26" on="0"/>
        <pt x="420" y="63" on="0"/>
      </contour>
    </TTGlyph>
    <TTGlyph name="aring" xMin="0" yMin="-40" xMax="477" yMax="618">
      <contour>
        <pt x="477" y="156" on="1"/>
        <pt x="451" y="103" on="0"/>
        <pt x="395" y="20" on="0"/>
        <pt x="350" y="-19" on="1"/>
        <pt x="328" y="-39" on="0"/>
        <pt x="300" y="-39" on="1"/>
        <pt x="285" y="-39" on="0"/>
        <pt x="258" y="-22" on="0"/>
        <pt x="253" y="-7" on="1"/>
        <pt x="251" y="-2" on="0"/>
        <pt x="250" y="16" on="0"/>
        <pt x="249" y="36" on="0"/>
        <pt x="250" y="55" on="0"/>
        <pt x="250" y="61" on="1"/>
        <pt x="215" y="19" on="0"/>
        <pt x="120" y="-40" on="0"/>
        <pt x="63" y="-40" on="1"/>
        <pt x="60" y="-40" on="0"/>
        <pt x="49" y="-36" on="0"/>
        <pt x="46" y="-35" on="1"/>
        <pt x="23" y="-24" on="0"/>
        <pt x="0" y="24" on="0"/>
        <pt x="0" y="48" on="1"/>
        <pt x="0" y="81" on="0"/>
        <pt x="17" y="146" on="0"/>
        <pt x="46" y="207" on="0"/>
        <pt x="84" y="263" on="0"/>
        <pt x="105" y="288" on="1"/>
        <pt x="147" y="340" on="0"/>
        <pt x="249" y="422" on="0"/>
        <pt x="309" y="453" on="1"/>
        <pt x="292" y="461" on="0"/>
        <pt x="271" y="489" on="0"/>
        <pt x="272" y="509" on="1"/>
        <pt x="272" y="515" on="1"/>
        <pt x="273" y="543" on="0"/>
        <pt x="303" y="589" on="0"/>
        <pt x="327" y="603" on="1"/>
        <pt x="329" y="604" on="0"/>
        <pt x="343" y="610" on="0"/>
        <pt x="345" y="611" on="1"/>
        <pt x="350" y="615" on="0"/>
        <pt x="366" y="618" on="0"/>
        <pt x="371" y="618" on="1"/>
        <pt x="398" y="618" on="0"/>
        <pt x="438" y="576" on="0"/>
        <pt x="438" y="550" on="1"/>
        <pt x="438" y="492" on="0"/>
        <pt x="397" y="461" on="1"/>
        <pt x="394" y="458" on="0"/>
        <pt x="392" y="457" on="1"/>
        <pt x="375" y="448" on="0"/>
        <pt x="342" y="433" on="0"/>
        <pt x="326" y="424" on="1"/>
        <pt x="215" y="360" on="0"/>
        <pt x="139" y="260" on="1"/>
        <pt x="124" y="240" on="0"/>
        <pt x="92" y="190" on="0"/>
        <pt x="66" y="137" on="0"/>
        <pt x="49" y="81" on="0"/>
        <pt x="49" y="55" on="1"/>
        <pt x="49" y="51" on="0"/>
        <pt x="51" y="36" on="0"/>
        <pt x="55" y="21" on="0"/>
        <pt x="64" y="10" on="0"/>
        <pt x="70" y="10" on="1"/>
        <pt x="99" y="10" on="0"/>
        <pt x="154" y="40" on="0"/>
        <pt x="202" y="86" on="0"/>
        <pt x="240" y="138" on="0"/>
        <pt x="252" y="161" on="1"/>
        <pt x="275" y="203" on="0"/>
        <pt x="311" y="288" on="0"/>
        <pt x="329" y="331" on="1"/>
        <pt x="336" y="349" on="0"/>
        <pt x="355" y="397" on="0"/>
        <pt x="364" y="414" on="1"/>
        <pt x="368" y="421" on="0"/>
        <pt x="377" y="421" on="1"/>
        <pt x="384" y="421" on="0"/>
        <pt x="394" y="413" on="0"/>
        <pt x="394" y="406" on="1"/>
        <pt x="393" y="404" on="1"/>
        <pt x="385" y="368" on="0"/>
        <pt x="365" y="295" on="0"/>
        <pt x="353" y="260" on="1"/>
        <pt x="348" y="246" on="0"/>
        <pt x="334" y="212" on="0"/>
        <pt x="330" y="200" on="1"/>
        <pt x="328" y="193" on="0"/>
        <pt x="327" y="179" on="0"/>
        <pt x="326" y="172" on="1"/>
        <pt x="323" y="156" on="0"/>
        <pt x="316" y="125" on="0"/>
        <pt x="312" y="109" on="1"/>
        <pt x="307" y="89" on="0"/>
        <pt x="300" y="48" on="0"/>
        <pt x="300" y="27" on="1"/>
        <pt x="300" y="22" on="0"/>
        <pt x="300" y="14" on="0"/>
        <pt x="301" y="10" on="1"/>
        <pt x="308" y="10" on="0"/>
        <pt x="327" y="22" on="0"/>
        <pt x="347" y="39" on="0"/>
        <pt x="364" y="57" on="0"/>
        <pt x="369" y="62" on="1"/>
        <pt x="399" y="94" on="0"/>
        <pt x="426" y="133" on="1"/>
        <pt x="433" y="141" on="0"/>
        <pt x="444" y="160" on="0"/>
        <pt x="451" y="168" on="1"/>
        <pt x="454" y="173" on="0"/>
        <pt x="460" y="173" on="1"/>
        <pt x="467" y="173" on="0"/>
        <pt x="477" y="163" on="0"/>
      </contour>
      <contour>
        <pt x="383" y="544" on="1"/>
        <pt x="383" y="561" on="0"/>
        <pt x="368" y="576" on="0"/>
        <pt x="354" y="581" on="1"/>
        <pt x="339" y="570" on="0"/>
        <pt x="316" y="541" on="0"/>
        <pt x="316" y="521" on="1"/>
        <pt x="316" y="494" on="0"/>
        <pt x="342" y="494" on="1"/>
        <pt x="362" y="494" on="0"/>
        <pt x="383" y="526" on="0"/>
      </contour>
    </TTGlyph>
    <TTGlyph name="asciicircum" xMin="133" yMin="580" xMax="540" yMax="759">
      <contour>
        <pt x="540" y="598" on="1"/>
        <pt x="540" y="591" on="0"/>
        <pt x="528" y="580" on="0"/>
        <pt x="521" y="580" on="1"/>
        <pt x="519" y="580" on="1"/>
        <pt x="518" y="580" on="0"/>
        <pt x="518" y="581" on="1"/>
        <pt x="500" y="596" on="0"/>
        <pt x="452" y="638" on="0"/>
        <pt x="399" y="678" on="0"/>
        <pt x="347" y="707" on="0"/>
        <pt x="324" y="709" on="1"/>
        <pt x="302" y="700" on="0"/>
        <pt x="264" y="671" on="0"/>
        <pt x="245" y="656" on="1"/>
        <pt x="240" y="652" on="0"/>
        <pt x="213" y="630" on="0"/>
        <pt x="183" y="608" on="0"/>
        <pt x="157" y="590" on="0"/>
        <pt x="152" y="590" on="1"/>
        <pt x="145" y="590" on="0"/>
        <pt x="133" y="602" on="0"/>
        <pt x="133" y="609" on="1"/>
        <pt x="134" y="612" on="1"/>
        <pt x="138" y="618" on="0"/>
        <pt x="147" y="631" on="0"/>
        <pt x="151" y="636" on="1"/>
        <pt x="178" y="671" on="0"/>
        <pt x="243" y="726" on="0"/>
        <pt x="283" y="746" on="1"/>
        <pt x="290" y="749" on="0"/>
        <pt x="305" y="757" on="0"/>
        <pt x="312" y="759" on="1"/>
        <pt x="326" y="759" on="1"/>
        <pt x="363" y="759" on="0"/>
        <pt x="396" y="737" on="1"/>
        <pt x="435" y="710" on="0"/>
        <pt x="508" y="638" on="0"/>
        <pt x="539" y="601" on="1"/>
      </contour>
    </TTGlyph>
    <TTGlyph name="asciitilde" xMin="113" yMin="334" xMax="741" yMax="489">
      <contour>
        <pt x="741" y="399" on="1"/>
        <pt x="741" y="395" on="0"/>
        <pt x="737" y="391" on="1"/>
        <pt x="714" y="365" on="0"/>
        <pt x="636" y="334" on="0"/>
        <pt x="601" y="334" on="1"/>
        <pt x="560" y="334" on="0"/>
        <pt x="487" y="365" on="0"/>
        <pt x="416" y="403" on="0"/>
        <pt x="343" y="434" on="0"/>
        <pt x="303" y="434" on="1"/>
        <pt x="257" y="434" on="0"/>
        <pt x="175" y="401" on="0"/>
        <pt x="135" y="380" on="1"/>
        <pt x="133" y="379" on="0"/>
        <pt x="129" y="379" on="1"/>
        <pt x="123" y="379" on="0"/>
        <pt x="113" y="391" on="0"/>
        <pt x="113" y="396" on="1"/>
        <pt x="113" y="399" on="0"/>
        <pt x="115" y="403" on="1"/>
        <pt x="130" y="424" on="0"/>
        <pt x="173" y="456" on="0"/>
        <pt x="223" y="478" on="0"/>
        <pt x="275" y="489" on="0"/>
        <pt x="301" y="489" on="1"/>
        <pt x="333" y="489" on="0"/>
        <pt x="386" y="474" on="0"/>
        <pt x="415" y="459" on="1"/>
        <pt x="435" y="448" on="0"/>
        <pt x="474" y="428" on="0"/>
        <pt x="494" y="417" on="1"/>
        <pt x="521" y="402" on="0"/>
        <pt x="581" y="375" on="0"/>
        <pt x="613" y="375" on="1"/>
        <pt x="644" y="375" on="0"/>
        <pt x="694" y="397" on="0"/>
        <pt x="718" y="414" on="1"/>
        <pt x="722" y="416" on="0"/>
        <pt x="725" y="416" on="1"/>
        <pt x="731" y="416" on="0"/>
        <pt x="741" y="405" on="0"/>
      </contour>
    </TTGlyph>
    <TTGlyph name="asterisk" xMin="123" yMin="453" xMax="391" yMax="730">
      <contour>
        <pt x="391" y="649" on="1"/>
        <pt x="391" y="625" on="0"/>
        <pt x="359" y="600" on="0"/>
        <pt x="342" y="589" on="1"/>
        <pt x="331" y="582" on="0"/>
        <pt x="308" y="571" on="0"/>
        <pt x="296" y="566" on="1"/>
        <pt x="305" y="559" on="0"/>
        <pt x="322" y="545" on="0"/>
        <pt x="331" y="538" on="1"/>
        <pt x="336" y="533" on="0"/>
        <pt x="353" y="522" on="0"/>
        <pt x="369" y="509" on="0"/>
        <pt x="381" y="494" on="0"/>
        <pt x="381" y="486" on="1"/>
        <pt x="381" y="481" on="0"/>
        <pt x="375" y="472" on="0"/>
        <pt x="373" y="468" on="1"/>
        <pt x="364" y="465" on="0"/>
        <pt x="356" y="465" on="1"/>
        <pt x="343" y="465" on="0"/>
        <pt x="315" y="482" on="0"/>
        <pt x="289" y="507" on="0"/>
        <pt x="267" y="534" on="0"/>
        <pt x="260" y="545" on="1"/>
        <pt x="255" y="535" on="0"/>
        <pt x="243" y="518" on="0"/>
        <pt x="237" y="508" on="1"/>
        <pt x="232" y="500" on="0"/>
        <pt x="222" y="481" on="0"/>
        <pt x="210" y="465" on="0"/>
        <pt x="195" y="453" on="0"/>
        <pt x="184" y="453" on="1"/>
        <pt x="173" y="453" on="0"/>
        <pt x="167" y="474" on="0"/>
        <pt x="167" y="482" on="1"/>
        <pt x="167" y="493" on="0"/>
        <pt x="180" y="519" on="0"/>
        <pt x="199" y="544" on="0"/>
        <pt x="220" y="566" on="0"/>
        <pt x="228" y="573" on="1"/>
        <pt x="217" y="579" on="0"/>
        <pt x="193" y="592" on="0"/>
        <pt x="182" y="598" on="1"/>
        <pt x="176" y="602" on="0"/>
        <pt x="162" y="607" on="0"/>
        <pt x="155" y="611" on="1"/>
        <pt x="139" y="618" on="0"/>
        <pt x="127" y="633" on="1"/>
        <pt x="123" y="641" on="0"/>
        <pt x="123" y="649" on="1"/>
        <pt x="123" y="659" on="0"/>
        <pt x="146" y="666" on="0"/>
        <pt x="154" y="666" on="1"/>
        <pt x="164" y="666" on="0"/>
        <pt x="189" y="655" on="0"/>
        <pt x="214" y="639" on="0"/>
        <pt x="236" y="621" on="0"/>
        <pt x="243" y="614" on="1"/>
        <pt x="243" y="623" on="0"/>
        <pt x="243" y="642" on="0"/>
        <pt x="242" y="651" on="1"/>
        <pt x="242" y="660" on="0"/>
        <pt x="239" y="678" on="0"/>
        <pt x="239" y="688" on="1"/>
        <pt x="239" y="694" on="0"/>
        <pt x="241" y="708" on="0"/>
        <pt x="247" y="721" on="0"/>
        <pt x="256" y="730" on="0"/>
        <pt x="264" y="730" on="1"/>
        <pt x="264" y="729" on="0"/>
        <pt x="265" y="729" on="1"/>
        <pt x="267" y="729" on="1"/>
        <pt x="281" y="723" on="0"/>
        <pt x="295" y="690" on="0"/>
        <pt x="295" y="676" on="1"/>
        <pt x="295" y="660" on="0"/>
        <pt x="292" y="628" on="0"/>
        <pt x="288" y="613" on="1"/>
        <pt x="313" y="631" on="1"/>
        <pt x="318" y="635" on="0"/>
        <pt x="331" y="648" on="0"/>
        <pt x="346" y="660" on="0"/>
        <pt x="362" y="668" on="0"/>
        <pt x="369" y="668" on="1"/>
        <pt x="371" y="668" on="0"/>
        <pt x="390" y="657" on="0"/>
        <pt x="391" y="655" on="1"/>
      </contour>
    </TTGlyph>
    <TTGlyph name="at" xMin="92" yMin="-34" xMax="735" yMax="764">
      <contour>
        <pt x="735" y="519" on="1"/>
        <pt x="735" y="467" on="0"/>
        <pt x="706" y="361" on="0"/>
        <pt x="654" y="264" on="0"/>
        <pt x="582" y="180" on="0"/>
        <pt x="540" y="150" on="1"/>
        <pt x="531" y="144" on="0"/>
        <pt x="504" y="129" on="0"/>
        <pt x="493" y="129" on="1"/>
        <pt x="482" y="129" on="0"/>
        <pt x="468" y="141" on="0"/>
        <pt x="461" y="159" on="0"/>
        <pt x="459" y="179" on="0"/>
        <pt x="459" y="188" on="1"/>
        <pt x="459" y="193" on="0"/>
        <pt x="459" y="201" on="0"/>
        <pt x="460" y="206" on="1"/>
        <pt x="430" y="175" on="0"/>
        <pt x="352" y="135" on="0"/>
        <pt x="307" y="135" on="1"/>
        <pt x="303" y="135" on="0"/>
        <pt x="290" y="140" on="0"/>
        <pt x="286" y="142" on="1"/>
        <pt x="266" y="153" on="0"/>
        <pt x="247" y="195" on="0"/>
        <pt x="247" y="217" on="1"/>
        <pt x="247" y="247" on="0"/>
        <pt x="263" y="306" on="0"/>
        <pt x="290" y="361" on="0"/>
        <pt x="324" y="413" on="0"/>
        <pt x="343" y="436" on="1"/>
        <pt x="391" y="495" on="0"/>
        <pt x="523" y="590" on="0"/>
        <pt x="595" y="615" on="1"/>
        <pt x="598" y="615" on="1"/>
        <pt x="605" y="615" on="0"/>
        <pt x="613" y="605" on="0"/>
        <pt x="613" y="598" on="1"/>
        <pt x="613" y="591" on="0"/>
        <pt x="606" y="586" on="1"/>
        <pt x="591" y="578" on="0"/>
        <pt x="560" y="565" on="0"/>
        <pt x="546" y="556" on="1"/>
        <pt x="447" y="499" on="0"/>
        <pt x="378" y="408" on="1"/>
        <pt x="364" y="390" on="0"/>
        <pt x="335" y="345" on="0"/>
        <pt x="312" y="297" on="0"/>
        <pt x="297" y="247" on="0"/>
        <pt x="297" y="223" on="1"/>
        <pt x="297" y="220" on="0"/>
        <pt x="298" y="207" on="0"/>
        <pt x="302" y="195" on="0"/>
        <pt x="309" y="185" on="0"/>
        <pt x="314" y="185" on="1"/>
        <pt x="339" y="185" on="0"/>
        <pt x="388" y="212" on="0"/>
        <pt x="431" y="253" on="0"/>
        <pt x="465" y="301" on="0"/>
        <pt x="476" y="321" on="1"/>
        <pt x="497" y="359" on="0"/>
        <pt x="530" y="438" on="0"/>
        <pt x="547" y="477" on="1"/>
        <pt x="555" y="494" on="0"/>
        <pt x="570" y="534" on="0"/>
        <pt x="579" y="549" on="1"/>
        <pt x="583" y="556" on="0"/>
        <pt x="592" y="556" on="1"/>
        <pt x="598" y="556" on="0"/>
        <pt x="609" y="548" on="0"/>
        <pt x="609" y="541" on="1"/>
        <pt x="609" y="539" on="1"/>
        <pt x="598" y="491" on="0"/>
        <pt x="570" y="402" on="0"/>
        <pt x="554" y="356" on="1"/>
        <pt x="550" y="345" on="0"/>
        <pt x="545" y="320" on="0"/>
        <pt x="542" y="309" on="1"/>
        <pt x="537" y="289" on="0"/>
        <pt x="526" y="252" on="0"/>
        <pt x="520" y="233" on="1"/>
        <pt x="512" y="209" on="0"/>
        <pt x="511" y="185" on="1"/>
        <pt x="513" y="183" on="1"/>
        <pt x="517" y="183" on="0"/>
        <pt x="531" y="192" on="0"/>
        <pt x="546" y="204" on="0"/>
        <pt x="559" y="216" on="0"/>
        <pt x="562" y="219" on="1"/>
        <pt x="591" y="247" on="0"/>
        <pt x="638" y="316" on="0"/>
        <pt x="672" y="392" on="0"/>
        <pt x="690" y="473" on="0"/>
        <pt x="690" y="514" on="1"/>
        <pt x="690" y="549" on="0"/>
        <pt x="673" y="620" on="0"/>
        <pt x="637" y="678" on="0"/>
        <pt x="579" y="715" on="0"/>
        <pt x="539" y="715" on="1"/>
        <pt x="503" y="715" on="0"/>
        <pt x="435" y="692" on="0"/>
        <pt x="372" y="656" on="0"/>
        <pt x="315" y="609" on="0"/>
        <pt x="291" y="585" on="1"/>
        <pt x="260" y="554" on="0"/>
        <pt x="208" y="479" on="0"/>
        <pt x="170" y="397" on="0"/>
        <pt x="149" y="309" on="0"/>
        <pt x="149" y="265" on="1"/>
        <pt x="149" y="230" on="0"/>
        <pt x="165" y="153" on="0"/>
        <pt x="184" y="123" on="1"/>
        <pt x="202" y="94" on="0"/>
        <pt x="257" y="53" on="0"/>
        <pt x="321" y="26" on="0"/>
        <pt x="390" y="14" on="0"/>
        <pt x="422" y="14" on="1"/>
        <pt x="482" y="14" on="0"/>
        <pt x="591" y="46" on="0"/>
        <pt x="642" y="76" on="1"/>
        <pt x="646" y="79" on="0"/>
        <pt x="652" y="79" on="1"/>
        <pt x="658" y="79" on="0"/>
        <pt x="667" y="70" on="0"/>
        <pt x="667" y="64" on="1"/>
        <pt x="667" y="57" on="0"/>
        <pt x="661" y="51" on="1"/>
        <pt x="635" y="27" on="0"/>
        <pt x="571" y="-6" on="0"/>
        <pt x="500" y="-25" on="0"/>
        <pt x="427" y="-34" on="0"/>
        <pt x="393" y="-34" on="1"/>
        <pt x="325" y="-34" on="0"/>
        <pt x="215" y="8" on="0"/>
        <pt x="135" y="85" on="0"/>
        <pt x="92" y="195" on="0"/>
        <pt x="92" y="263" on="1"/>
        <pt x="92" y="313" on="0"/>
        <pt x="117" y="411" on="0"/>
        <pt x="161" y="503" on="0"/>
        <pt x="220" y="585" on="0"/>
        <pt x="255" y="620" on="1"/>
        <pt x="283" y="648" on="0"/>
        <pt x="347" y="700" on="0"/>
        <pt x="417" y="740" on="0"/>
        <pt x="494" y="764" on="0"/>
        <pt x="535" y="764" on="1"/>
        <pt x="586" y="764" on="0"/>
        <pt x="662" y="722" on="0"/>
        <pt x="711" y="653" on="0"/>
        <pt x="735" y="565" on="0"/>
      </contour>
    </TTGlyph>
    <TTGlyph name="atilde" xMin="0" yMin="-40" xMax="494" yMax="645">
      <component glyphName="a" x="0" y="0" flags="0x204"/>
      <component glyphName="tilde" x="-245" y="-60" flags="0x4"/>
    </TTGlyph>
    <TTGlyph name="b" xMin="51" yMin="-57" xMax="419" yMax="843">
      <contour>
        <pt x="419" y="356" on="1"/>
        <pt x="419" y="326" on="0"/>
        <pt x="403" y="267" on="0"/>
        <pt x="387" y="242" on="1"/>
        <pt x="333" y="155" on="0"/>
        <pt x="186" y="12" on="0"/>
        <pt x="97" y="-37" on="1"/>
        <pt x="97" y="-41" on="1"/>
        <pt x="97" y="-46" on="0"/>
        <pt x="86" y="-57" on="0"/>
        <pt x="81" y="-57" on="1"/>
        <pt x="68" y="-57" on="0"/>
        <pt x="68" y="-45" on="1"/>
        <pt x="59" y="-40" on="0"/>
        <pt x="59" y="-30" on="1"/>
        <pt x="59" y="-26" on="0"/>
        <pt x="62" y="-21" on="1"/>
        <pt x="51" y="37" on="0"/>
        <pt x="51" y="93" on="1"/>
        <pt x="51" y="190" on="0"/>
        <pt x="99" y="377" on="0"/>
        <pt x="131" y="468" on="1"/>
        <pt x="149" y="519" on="0"/>
        <pt x="194" y="621" on="0"/>
        <pt x="251" y="718" on="0"/>
        <pt x="322" y="805" on="0"/>
        <pt x="364" y="840" on="1"/>
        <pt x="367" y="843" on="0"/>
        <pt x="371" y="843" on="1"/>
        <pt x="378" y="843" on="0"/>
        <pt x="388" y="833" on="0"/>
        <pt x="388" y="827" on="1"/>
        <pt x="388" y="822" on="0"/>
        <pt x="386" y="820" on="1"/>
        <pt x="350" y="766" on="0"/>
        <pt x="287" y="672" on="0"/>
        <pt x="233" y="577" on="0"/>
        <pt x="185" y="474" on="0"/>
        <pt x="164" y="411" on="1"/>
        <pt x="198" y="442" on="0"/>
        <pt x="274" y="487" on="0"/>
        <pt x="322" y="487" on="1"/>
        <pt x="330" y="487" on="0"/>
        <pt x="334" y="486" on="1"/>
        <pt x="339" y="485" on="0"/>
        <pt x="358" y="475" on="0"/>
        <pt x="363" y="472" on="1"/>
        <pt x="393" y="452" on="0"/>
        <pt x="419" y="391" on="0"/>
      </contour>
      <contour>
        <pt x="372" y="355" on="1"/>
        <pt x="372" y="368" on="0"/>
        <pt x="365" y="399" on="0"/>
        <pt x="352" y="426" on="0"/>
        <pt x="330" y="444" on="0"/>
        <pt x="315" y="444" on="1"/>
        <pt x="292" y="444" on="0"/>
        <pt x="245" y="425" on="0"/>
        <pt x="201" y="397" on="0"/>
        <pt x="161" y="364" on="0"/>
        <pt x="144" y="350" on="1"/>
        <pt x="121" y="278" on="0"/>
        <pt x="88" y="132" on="0"/>
        <pt x="88" y="57" on="1"/>
        <pt x="88" y="31" on="0"/>
        <pt x="91" y="4" on="1"/>
        <pt x="112" y="22" on="0"/>
        <pt x="170" y="73" on="0"/>
        <pt x="232" y="131" on="0"/>
        <pt x="293" y="195" on="0"/>
        <pt x="342" y="261" on="0"/>
        <pt x="372" y="325" on="0"/>
      </contour>
    </TTGlyph>
</ttFont>
